<?xml version="1.0" encoding="utf-8"?>
<!-- Generator: Adobe Illustrator 28.0.0, SVG Export Plug-In . SVG Version: 6.00 Build 0)  -->
<svg version="1.1" id="Layer_1" xmlns="http://www.w3.org/2000/svg" xmlns:xlink="http://www.w3.org/1999/xlink" x="0px" y="0px"
	 viewBox="0 0 300 300" style="enable-background:new 0 0 300 300;" xml:space="preserve">
<style type="text/css">
	.st0{fill:#010101;}
</style>
<g>
	<g>
		<path class="st0" d="M91.38,40.8c0.81-0.26,1.65-0.47,2.48-0.64c8.55-1.81,14.22,6.9,12.5,14.68c-0.07,0.33-0.12,0.69-0.3,0.97
			c-0.5,0.79-0.34,1.39,0.23,2.12c2.63,3.33,3.59,7.24,3.72,11.4c0.04,1.33,0.06,2.67-0.38,3.96c2.03,0.37,7.84,4.04,9.77,7.79
			c2.8,5.44,3.6,10.33,1.25,15.81c-0.26,0.6-0.24,1.02,0.24,1.5c2.25,2.29,14.33,15.68,10.92,29.56c-1.27,5.15-2.66,8.55-7.55,10.6
			c-0.27,0.11-0.55,0.22-0.84,0.31c-1.78,0.57-3.89,0.74-5.61,0.39c-2.3-0.47-6.38-2.76-6.92-3.17c-1.6-1.19-2.31-1.69-4.11-1.12
			c-0.03,0.01-0.07,0.02-0.1,0.03c-0.12,0.04-0.25,0.08-0.39,0.13c-0.89,0.28-2.23,0.68-3.08,0.95c-0.1,0.03-0.19,0.06-0.27,0.09
			c-1.37,0.45-2.07,1.61-2.57,2.96c-1.35,3.62-3.19,6.97-6.61,9.03c-0.37,0.22-0.82,0.42-1.33,0.58
			c-3.85,1.23-11.27,0.65-15.39-3.37c-10.26-10.02-7.96-28.22-7.61-30.7c0.09-0.66-0.12-1.02-0.68-1.36
			c-4.64-2.81-7.77-8.13-8.24-13.47c-0.42-4.81,1.51-10.12,2.95-12.02c-1.92-1.6-3.18-3.69-4.24-5.9c-1.03-2.13-1.73-4.38-1.89-6.76
			c-0.05-0.74-0.04-1.49,0.01-2.23c0.03-0.49-0.11-0.78-0.53-1.05c-2.66-1.66-4.43-4.08-5.43-6.99c-0.82-2.4-0.51-5.16,0.55-7.45
			c1.31-2.85,3.67-5.08,6.52-5.99c1.23-0.39,2.55-0.54,3.92-0.38c2,0.23,4.08,0.69,6.44,1.15c0.13,0.03,3.66-1.04,3.79-1.08
			c0.34-0.1,0.72-0.22,1.15-0.36c2.9-0.92,7.49-2.52,9.8-3.26c1.32-1.75,1.96-3.2,3.72-4.61C88.47,41.93,89.9,41.28,91.38,40.8
			 M90.69,38.62c-1.95,0.62-3.54,1.44-4.86,2.49c-1.51,1.21-2.34,2.44-3.15,3.64c-0.18,0.27-0.36,0.54-0.56,0.81
			c-1,0.33-2.25,0.75-3.56,1.19c-1.95,0.66-3.97,1.34-5.52,1.83c-0.41,0.13-0.78,0.25-1.11,0.34c-1.73,0.52-2.7,0.8-3.17,0.93
			l-0.82-0.16c-1.85-0.37-3.6-0.72-5.32-0.92c-1.65-0.19-3.29-0.03-4.87,0.48c-3.42,1.09-6.3,3.72-7.91,7.22
			c-1.37,2.99-1.6,6.32-0.63,9.15c1.14,3.31,3.09,5.93,5.81,7.81C55,74.07,55,74.7,55.04,75.29c0.16,2.52,0.85,5,2.11,7.61
			c0.77,1.6,1.83,3.55,3.41,5.29c-1.4,2.8-2.73,7.4-2.34,11.83c0.52,5.95,3.97,11.74,8.85,14.92c-0.28,2.28-0.69,7.03-0.1,12.48
			c0.91,8.39,3.76,14.98,8.46,19.57c5.03,4.91,13.53,5.24,17.69,3.92c0.69-0.22,1.3-0.49,1.81-0.8c4.32-2.61,6.31-6.82,7.57-10.2
			c0.45-1.21,0.83-1.48,1.13-1.58l0.25-0.08c0.41-0.13,0.94-0.29,1.48-0.46c0.57-0.17,1.14-0.35,1.6-0.5l0.42-0.14l0.07-0.02
			c0.71-0.23,0.71-0.23,2.04,0.77c0.62,0.46,5.06,3.02,7.84,3.58c2.04,0.41,4.57,0.24,6.76-0.46c0.35-0.11,0.7-0.24,1.03-0.38
			c6.09-2.55,7.63-7.02,8.9-12.16c3.57-14.51-8.21-28.2-11.05-31.24c2.21-5.56,1.72-10.89-1.54-17.23c-1.8-3.5-6.12-6.71-9.18-8.19
			c0.08-0.86,0.07-1.72,0.04-2.59c-0.17-5.13-1.51-9.25-4.1-12.6c0.21-0.45,0.3-0.87,0.36-1.17l0.03-0.14
			c1.11-5.03-0.42-10.55-3.91-14.08c-3.03-3.06-7.04-4.25-11.3-3.34C92.38,38.13,91.49,38.36,90.69,38.62L90.69,38.62z"/>
		<g>
			<path class="st0" d="M99.71,98.98c1.92,5.99,6.88,8.5,11.99,7.03c2.7-0.78,4.87-2.34,6.59-4.54c0.5-0.64,0.5-1.26,0.01-1.61
				c-0.48-0.35-0.98-0.19-1.49,0.45c-2.01,2.54-4.56,4.12-7.86,4.22c-4.45,0.14-7.72-3.38-7.47-7.95c0.07-1.21,0.34-2.37,0.84-3.47
				c0.23-0.52,0.29-1.02-0.24-1.4c-0.51-0.37-1.16-0.12-1.46,0.59C99.52,94.85,99.24,97.47,99.71,98.98z"/>
			<path class="st0" d="M118.5,113.32c-5.24,2.09-9.39,6.23-10.5,12.97c-0.22,1.32-0.16,2.66,0.15,3.97
				c0.09,0.41,0.33,0.7,0.76,0.77c0.33,0.05,0.62-0.06,0.85-0.32c0.29-0.33,0.23-0.72,0.16-1.1c-0.35-2.01-0.1-3.96,0.61-5.86
				c2.33-6.26,9.29-10.56,15.61-9.4c0.71,0.13,1.23-0.17,1.32-0.72c0.1-0.56-0.26-0.96-1.01-1.12
				C124.48,112.07,121.78,112.27,118.5,113.32z"/>
			<path class="st0" d="M92.26,51.28c1.53-1.14,2.98-2.13,4.78-2.4c0.25-0.04,0.5-0.04,0.74-0.08c0.47-0.09,0.82-0.32,0.79-0.85
				c-0.02-0.51-0.34-0.78-0.83-0.82c-0.92-0.07-1.81,0.17-2.65,0.49c-2.09,0.79-3.96,1.95-5.52,3.57c-0.37,0.39-0.68,0.82-0.38,1.39
				c0.28,0.54,0.79,0.49,1.3,0.51c2.65,0.1,5.29,0.29,7.54,1.97c0.25,0.19,0.55,0.32,0.85,0.41c0.49,0.15,0.91,0.01,1.14-0.47
				c0.21-0.45,0.07-0.88-0.33-1.13c-1.73-1.06-3.44-2.2-5.56-2.33C93.54,51.5,92.97,51.38,92.26,51.28z"/>
			<path class="st0" d="M87.18,102.98c1.9,6-0.7,10.92-5.71,12.67c-2.65,0.93-5.32,0.9-8,0.11c-0.78-0.23-1.14-0.74-0.94-1.31
				c0.19-0.56,0.69-0.73,1.48-0.5c3.11,0.9,6.1,0.72,8.85-1.1c3.71-2.46,4.34-7.22,1.49-10.8c-0.75-0.95-1.65-1.73-2.69-2.35
				c-0.49-0.29-0.82-0.66-0.62-1.28c0.2-0.59,0.87-0.77,1.53-0.37C84.95,99.49,86.69,101.47,87.18,102.98z"/>
			<path class="st0" d="M80.96,125.29c5.48-1.33,11.26-0.36,16.07,4.5c0.94,0.95,1.67,2.08,2.18,3.33c0.16,0.39,0.13,0.77-0.18,1.07
				c-0.24,0.23-0.54,0.31-0.88,0.23c-0.43-0.1-0.61-0.46-0.77-0.8c-0.88-1.84-2.21-3.29-3.89-4.43c-5.52-3.76-13.68-3.24-18.17,1.37
				c-0.51,0.52-1.1,0.57-1.49,0.18c-0.4-0.4-0.34-0.94,0.17-1.5C75.36,127.72,77.67,126.32,80.96,125.29z"/>
			<path class="st0" d="M65.35,60.08c-1.91-0.04-3.66-0.01-5.29,0.81c-0.22,0.11-0.43,0.26-0.65,0.36c-0.43,0.2-0.85,0.21-1.14-0.24
				c-0.27-0.43-0.17-0.83,0.2-1.15c0.71-0.59,1.58-0.91,2.44-1.13c2.16-0.57,4.36-0.7,6.57-0.28c0.53,0.1,1.03,0.27,1.12,0.91
				c0.08,0.6-0.36,0.86-0.76,1.16c-2.11,1.62-4.14,3.3-5.01,5.97c-0.1,0.29-0.27,0.58-0.46,0.83c-0.31,0.4-0.74,0.53-1.2,0.27
				c-0.44-0.25-0.57-0.67-0.38-1.11c0.8-1.87,1.53-3.78,3.19-5.12C64.42,61,64.83,60.57,65.35,60.08z"/>
			<path class="st0" d="M86.92,80.61c-0.38,1.01-0.97,1.73-1.87,2.16c-0.59,0.29-1.19,0.24-1.76-0.05c-0.43-0.22-0.63-0.6-0.48-1.07
				c0.14-0.44,0.51-0.68,0.95-0.56c0.67,0.18,1.02-0.16,1.32-0.65c0.39-0.63,0.31-0.85-0.35-1.14c-0.66-0.29-0.92-0.86-0.95-1.52
				c-0.04-0.77,0.27-1.42,0.94-1.84c0.72-0.46,1.64-0.41,2.29,0.1c0.64,0.5,0.84,1.24,0.56,2.14c-0.19,0.61,0.44,1.35,1.1,1.27
				c0.38-0.04,0.74-0.18,1.07-0.39c0.47-0.31,0.94-0.35,1.31,0.16c0.3,0.42,0.17,1.05-0.38,1.34
				C89.47,81.22,88.22,81.64,86.92,80.61z"/>
			<path class="st0" d="M77.72,75.09c0.45,1.37-0.14,2.59-1.46,3.05c-1.33,0.46-2.62-0.24-3.08-1.66c-0.4-1.24,0.34-2.48,1.73-2.92
				C76.15,73.16,77.29,73.78,77.72,75.09z"/>
			<path class="st0" d="M94.93,69.61c0.45,1.37-0.14,2.59-1.46,3.05c-1.33,0.46-2.62-0.24-3.08-1.66c-0.4-1.24,0.34-2.48,1.73-2.92
				C93.36,67.67,94.5,68.3,94.93,69.61z"/>
			<g>
				<path class="st0" d="M76.92,91.37c4.2,1.52,9.13,0.65,13.29-0.61c4.22-1.28,8.57-3.65,10.96-7.5c0.65-1.05-1.05-1.92-1.7-0.88
					c-2.16,3.48-6.32,5.52-10.12,6.64c-3.79,1.11-8.19,1.86-12.01,0.48c-0.49-0.18-1.03,0.27-1.14,0.72
					C76.06,90.79,76.43,91.2,76.92,91.37L76.92,91.37z"/>
			</g>
		</g>
		<g>
			<path class="st0" d="M56.07,66.21c-1.09-1.96-1.7-4.2-1.1-6.36c0.12-0.44,0.23-0.71,0.44-1.14c0.18-0.37,0.42-0.76,0.59-0.99
				c0.25-0.35,0.53-0.67,0.83-0.98c0.13-0.13,0.26-0.26,0.39-0.38c0.02-0.02,0.12-0.11,0.14-0.13c0.03-0.02,0.17-0.14,0.2-0.16
				c0.3-0.24,0.62-0.47,0.96-0.67c0.14-0.09,0.29-0.17,0.44-0.25c0.08-0.04,0.16-0.08,0.24-0.12c0.02-0.01,0.02-0.01,0.03-0.02
				c0,0,0,0,0.02-0.01c0.01,0,0.02-0.01,0.03-0.02c0,0,0,0,0,0c0.45-0.22,0.76-0.66,0.59-1.18c-0.14-0.45-0.73-0.83-1.2-0.62
				c-3.57,1.62-6.21,5.25-5.82,9.28c0.16,1.71,0.79,3.32,1.62,4.81C55.07,68.33,56.67,67.28,56.07,66.21z"/>
			<path class="st0" d="M65.61,104.63c-0.02-0.04-0.05-0.09-0.07-0.13c-0.02-0.03-0.03-0.07-0.04-0.08
				c-0.06-0.15-0.12-0.3-0.17-0.45c-0.13-0.37-0.24-0.74-0.33-1.11c-0.24-0.93-0.38-1.88-0.47-2.84c-0.18-2.15-0.07-4.44,0.89-6.41
				c0.54-1.1-1.16-1.98-1.7-0.88c-1.11,2.26-1.31,4.88-1.1,7.36c0.16,1.86,0.46,3.93,1.38,5.58C64.6,106.75,66.2,105.7,65.61,104.63
				z"/>
			<path class="st0" d="M88.48,145.22c-0.14,0.01-0.27,0.01-0.41,0c-0.07,0-0.15-0.01-0.22-0.01c0.27,0.02-0.05-0.01-0.1-0.01
				c-0.39-0.05-0.77-0.12-1.15-0.2c-0.94-0.21-1.9-0.5-2.75-0.83c-2-0.79-4.07-1.94-5.36-3.63c-0.31-0.41-0.87-0.58-1.32-0.28
				c-0.41,0.27-0.59,0.91-0.28,1.32c1.53,2.01,3.76,3.37,6.08,4.29c1.72,0.68,3.71,1.37,5.59,1.28
				C89.79,147.07,89.71,145.16,88.48,145.22z"/>
			<path class="st0" d="M64.48,91.14c0.16,0.49,0.68,0.76,1.17,0.6c0.49-0.16,0.76-0.68,0.6-1.17s-0.68-0.76-1.17-0.6
				C64.6,90.13,64.33,90.65,64.48,91.14z"/>
			<circle class="st0" cx="76.11" cy="138.87" r="0.93"/>
		</g>
	</g>
	<g>
		<path class="st0" d="M145.71,156.18c-0.48-0.04-0.98,0.02-1.48,0.2c-1.44,0.51-2.41,1.82-2.57,3.32
			c-0.01,0.13-0.03,0.26-0.04,0.39c-0.11-0.04-0.22-0.09-0.33-0.13c-2-0.82-4.8,0.35-5.11,2.63c-0.1,0.75,0.09,1.51,0.44,2.18
			c0.68,1.3,1.86,2.22,3.04,3.04c1.25,0.86,2.56,1.62,3.88,2.38c1.65,0.95,3.3,1.9,4.95,2.86c0.25,0.15,0.77,0.43,1.01,0.15
			c0.17-0.21,0.07-0.74,0.09-1c0.16-2.86-0.02-5.77-0.09-8.64C149.43,160.94,149.17,156.48,145.71,156.18z"/>
	</g>
	<g>
		<path class="st0" d="M256.74,85.97c0.77,0.38,1.51,0.81,2.23,1.27c7.4,4.65,5.4,14.86-1.25,19.24c-0.28,0.19-0.57,0.41-0.89,0.49
			c-0.91,0.22-1.21,0.76-1.31,1.68c-0.43,4.23-2.47,7.7-5.26,10.77c-0.9,0.99-1.82,1.96-3.03,2.58c1.2,1.68,2.82,8.35,1.59,12.39
			c-1.78,5.86-4.6,9.92-10.11,12.22c-0.6,0.25-0.88,0.57-0.88,1.24c0.02,3.21-0.63,21.23-12.74,28.82c-4.5,2.82-7.86,4.28-12.8,2.35
			c-0.27-0.11-0.54-0.23-0.82-0.36c-1.67-0.83-3.31-2.18-4.3-3.62c-1.32-1.93-2.65-6.42-2.76-7.1c-0.32-1.97-0.48-2.82-2.17-3.67
			c-0.03-0.02-0.06-0.03-0.09-0.05c-0.11-0.05-0.23-0.11-0.37-0.18c-0.84-0.42-2.08-1.06-2.88-1.46c-0.09-0.05-0.18-0.09-0.26-0.13
			c-1.3-0.63-2.61-0.28-3.9,0.34c-3.49,1.66-7.14,2.78-11.03,1.88c-0.42-0.1-0.88-0.27-1.36-0.51c-3.62-1.8-8.54-7.38-8.7-13.13
			c-0.39-14.33,13.93-25.8,15.91-27.33c0.53-0.41,0.63-0.82,0.46-1.45c-1.38-5.25,0.08-11.25,3.46-15.41
			c3.05-3.75,8.13-6.21,10.49-6.57c-0.26-2.48,0.29-4.86,1.06-7.19c0.75-2.25,1.8-4.35,3.35-6.16c0.48-0.57,1.01-1.1,1.57-1.59
			c0.37-0.33,0.46-0.64,0.34-1.12c-0.75-3.04-0.34-6.02,0.96-8.8c1.08-2.3,3.23-4.06,5.58-4.97c2.93-1.13,6.17-1.09,8.85,0.24
			c1.16,0.57,2.21,1.39,3.08,2.45c1.28,1.56,2.45,3.33,3.82,5.31c0.08,0.11,3.35,1.8,3.47,1.86c0.31,0.16,0.67,0.35,1.07,0.54
			c2.73,1.36,7.13,3.41,9.3,4.48c2.16-0.33,3.64-0.93,5.88-0.72C253.87,84.75,255.34,85.27,256.74,85.97 M257.76,83.92
			c-1.83-0.91-3.54-1.43-5.23-1.6c-1.93-0.18-3.38,0.12-4.79,0.42c-0.31,0.07-0.63,0.13-0.96,0.2c-0.94-0.46-2.14-1.03-3.39-1.62
			c-1.86-0.89-3.78-1.8-5.23-2.52c-0.38-0.19-0.73-0.37-1.04-0.52c-1.61-0.83-2.49-1.3-2.92-1.54l-0.47-0.69
			c-1.07-1.56-2.08-3.03-3.18-4.36c-1.06-1.29-2.34-2.31-3.83-3.05c-3.21-1.6-7.11-1.72-10.7-0.33c-3.06,1.19-5.55,3.42-6.83,6.13
			c-1.49,3.17-1.91,6.41-1.26,9.65c-0.46,0.44-0.89,0.9-1.28,1.35c-1.64,1.92-2.87,4.19-3.78,6.93c-0.56,1.69-1.16,3.83-1.23,6.17
			c-2.95,1.04-7.11,3.41-9.92,6.86c-3.77,4.63-5.32,11.19-4.03,16.87c-1.79,1.44-5.39,4.57-8.76,8.89
			c-5.19,6.66-7.73,13.37-7.55,19.94c0.19,7.03,6.06,13.18,9.97,15.12c0.64,0.32,1.27,0.55,1.86,0.69c4.91,1.14,9.28-0.5,12.53-2.05
			c1.16-0.56,1.62-0.48,1.91-0.34l0.24,0.12c0.39,0.19,0.88,0.45,1.38,0.7c0.53,0.27,1.07,0.55,1.5,0.76l0.4,0.19l0.07,0.03
			c0.66,0.33,0.66,0.33,0.93,1.98c0.12,0.76,1.53,5.69,3.13,8.03c1.18,1.72,3.11,3.36,5.17,4.38c0.33,0.17,0.67,0.32,1,0.45
			c6.14,2.41,10.36,0.27,14.85-2.54c12.66-7.93,13.74-25.96,13.81-30.12c5.45-2.45,8.81-6.62,10.89-13.44
			c1.14-3.76,0.28-9.08-0.89-12.27c0.66-0.56,1.25-1.19,1.83-1.83c3.45-3.8,5.36-7.69,5.83-11.9c0.47-0.18,0.82-0.42,1.08-0.59
			l0.12-0.08c4.3-2.83,7.05-7.87,6.99-12.83c-0.05-4.31-2.1-7.95-5.79-10.27C259.31,84.74,258.52,84.29,257.76,83.92L257.76,83.92z"
			/>
		<g>
			<path class="st0" d="M222.22,133.53c-2.8,5.64-0.98,10.89,3.72,13.39c2.48,1.32,5.12,1.71,7.89,1.33
				c0.81-0.11,1.23-0.55,1.13-1.15c-0.1-0.58-0.57-0.82-1.38-0.72c-3.21,0.42-6.14-0.22-8.58-2.44c-3.29-2.99-3.19-7.8,0.17-10.9
				c0.89-0.82,1.9-1.46,3.02-1.91c0.52-0.21,0.91-0.53,0.8-1.17c-0.11-0.62-0.75-0.89-1.46-0.6
				C224.96,130.43,222.93,132.12,222.22,133.53z"/>
			<path class="st0" d="M225.72,156.91c-5.22-2.15-11.08-2.07-16.57,2c-1.08,0.8-1.96,1.8-2.66,2.96c-0.21,0.36-0.25,0.74,0.01,1.08
				c0.2,0.27,0.49,0.39,0.83,0.36c0.44-0.04,0.67-0.36,0.88-0.68c1.15-1.69,2.69-2.91,4.52-3.78c6.03-2.87,14.02-1.12,17.75,4.12
				c0.42,0.59,1,0.73,1.45,0.4c0.46-0.33,0.48-0.87,0.06-1.51C230.89,160.17,228.81,158.43,225.72,156.91z"/>
			<path class="st0" d="M250.08,94.11c1.89,0.25,3.62,0.54,5.11,1.61c0.2,0.14,0.38,0.32,0.59,0.46c0.4,0.26,0.81,0.34,1.16-0.06
				c0.34-0.38,0.3-0.8-0.03-1.17c-0.61-0.69-1.42-1.14-2.24-1.49c-2.05-0.89-4.2-1.35-6.45-1.28c-0.54,0.02-1.06,0.11-1.24,0.73
				c-0.17,0.58,0.23,0.9,0.58,1.27c1.84,1.92,3.59,3.89,4.04,6.66c0.05,0.31,0.17,0.61,0.32,0.89c0.25,0.45,0.65,0.64,1.15,0.45
				c0.47-0.18,0.67-0.58,0.55-1.04c-0.51-1.97-0.94-3.97-2.37-5.55C250.85,95.15,250.52,94.67,250.08,94.11z"/>
			<path class="st0" d="M210.44,127.68c-2.81,5.63-8.1,7.35-12.92,5.12c-2.55-1.18-4.45-3.06-5.82-5.49c-0.4-0.71-0.3-1.32,0.23-1.6
				c0.53-0.27,1-0.04,1.41,0.67c1.6,2.81,3.88,4.76,7.12,5.37c4.38,0.82,8.14-2.16,8.59-6.72c0.12-1.2,0.02-2.39-0.3-3.56
				c-0.15-0.55-0.13-1.05,0.45-1.35c0.56-0.29,1.16,0.06,1.36,0.8C211.26,123.62,211.14,126.25,210.44,127.68z"/>
			<path class="st0" d="M190.44,139.36c4.86,2.86,8.33,7.59,8.4,14.42c0.01,1.34-0.25,2.65-0.75,3.91
				c-0.16,0.39-0.44,0.64-0.87,0.64c-0.33,0-0.61-0.15-0.79-0.44c-0.24-0.37-0.12-0.75,0.01-1.11c0.65-1.94,0.7-3.9,0.29-5.89
				c-1.35-6.54-7.57-11.85-13.99-11.67c-0.72,0.02-1.18-0.36-1.19-0.91c-0.01-0.57,0.41-0.91,1.17-0.96
				C184.72,137.21,187.36,137.82,190.44,139.36z"/>
			<path class="st0" d="M224.63,81.68c-1.34-1.36-2.62-2.56-4.36-3.1c-0.24-0.07-0.48-0.11-0.72-0.19
				c-0.45-0.16-0.76-0.44-0.65-0.96c0.1-0.5,0.46-0.72,0.95-0.68c0.92,0.07,1.76,0.45,2.54,0.89c1.95,1.1,3.61,2.53,4.91,4.37
				c0.31,0.44,0.55,0.91,0.17,1.43c-0.36,0.49-0.86,0.36-1.36,0.3c-2.64-0.3-5.27-0.52-7.75,0.8c-0.27,0.15-0.59,0.23-0.9,0.28
				c-0.5,0.07-0.9-0.13-1.05-0.64c-0.14-0.48,0.06-0.88,0.5-1.06c1.87-0.78,3.73-1.65,5.85-1.46
				C223.33,81.7,223.91,81.67,224.63,81.68z"/>
			<path class="st0" d="M225.82,111.44c-0.98,0.46-1.9,0.57-2.85,0.25c-0.63-0.21-1.02-0.65-1.23-1.26c-0.16-0.46-0.04-0.87,0.4-1.1
				c0.41-0.22,0.84-0.13,1.08,0.26c0.35,0.6,0.85,0.59,1.4,0.46c0.72-0.18,0.82-0.39,0.55-1.06c-0.27-0.67-0.06-1.26,0.38-1.76
				c0.51-0.58,1.18-0.83,1.95-0.67c0.84,0.17,1.46,0.85,1.58,1.66c0.11,0.8-0.27,1.48-1.09,1.92c-0.56,0.31-0.62,1.28-0.1,1.68
				c0.31,0.23,0.65,0.39,1.04,0.46c0.55,0.11,0.92,0.41,0.83,1.03c-0.08,0.51-0.61,0.87-1.21,0.7
				C227.23,113.65,226.04,113.08,225.82,111.44z"/>
			<path class="st0" d="M223.07,101.08c-0.63,1.3-1.9,1.77-3.17,1.17c-1.28-0.6-1.72-2-1.05-3.34c0.58-1.16,1.97-1.54,3.28-0.89
				C223.28,98.59,223.67,99.84,223.07,101.08z"/>
			<path class="st0" d="M239.24,109.12c-0.63,1.3-1.9,1.77-3.17,1.17c-1.28-0.6-1.72-2-1.05-3.34c0.58-1.16,1.97-1.54,3.28-0.89
				C239.46,106.64,239.84,107.88,239.24,109.12z"/>
			<g>
				<path class="st0" d="M211.15,112.2c1.96,4.02,6.11,6.82,9.96,8.81c3.92,2.03,8.7,3.35,13.09,2.25c1.19-0.3,0.58-2.11-0.61-1.81
					c-3.97,1-8.38-0.44-11.89-2.28c-3.49-1.84-7.18-4.36-8.96-8.02c-0.23-0.47-0.93-0.53-1.32-0.28
					C210.94,111.19,210.92,111.74,211.15,112.2L211.15,112.2z"/>
			</g>
		</g>
		<g>
			<path class="st0" d="M213.7,79.63c0.58-2.16,1.7-4.2,3.64-5.34c0.39-0.23,0.66-0.35,1.11-0.51c0.39-0.14,0.84-0.25,1.12-0.3
				c0.42-0.07,0.85-0.11,1.28-0.12c0.18-0.01,0.36,0,0.55,0c0.03,0,0.16,0.01,0.19,0.01c0.03,0,0.21,0.02,0.26,0.02
				c0.39,0.04,0.77,0.1,1.15,0.18c0.16,0.04,0.33,0.08,0.49,0.12c0.09,0.02,0.17,0.05,0.26,0.08c0.02,0.01,0.02,0.01,0.04,0.01
				c0,0,0,0,0.02,0.01c0.01,0,0.02,0,0.03,0.01c0,0,0,0,0,0c0.48,0.16,1,0.05,1.25-0.44c0.21-0.42,0.06-1.11-0.43-1.28
				c-3.69-1.32-8.11-0.55-10.64,2.61c-1.08,1.35-1.75,2.93-2.19,4.58C211.51,80.45,213.39,80.81,213.7,79.63z"/>
			<path class="st0" d="M193.81,113.84c0.01-0.05,0.03-0.1,0.04-0.14c0.01-0.03,0.03-0.07,0.03-0.08c0.06-0.15,0.12-0.3,0.19-0.44
				c0.16-0.35,0.34-0.69,0.54-1.03c0.48-0.83,1.04-1.62,1.65-2.37c1.37-1.67,3.04-3.24,5.1-3.98c1.16-0.42,0.55-2.23-0.61-1.81
				c-2.37,0.85-4.34,2.59-5.92,4.52c-1.18,1.44-2.4,3.14-2.9,4.97C191.61,114.67,193.49,115.03,193.81,113.84z"/>
			<path class="st0" d="M181.97,158.9c-0.1-0.09-0.2-0.19-0.29-0.29c-0.05-0.05-0.1-0.11-0.15-0.17c0.18,0.2-0.03-0.04-0.06-0.08
				c-0.24-0.3-0.47-0.62-0.69-0.95c-0.53-0.8-1.02-1.68-1.39-2.51c-0.88-1.96-1.57-4.23-1.32-6.34c0.06-0.51-0.22-1.02-0.76-1.12
				c-0.48-0.09-1.06,0.24-1.12,0.76c-0.3,2.51,0.36,5.04,1.38,7.31c0.76,1.68,1.72,3.57,3.12,4.81
				C181.62,161.14,182.89,159.72,181.97,158.9z"/>
			<path class="st0" d="M202.39,103.38c-0.23,0.46-0.04,1.02,0.42,1.25c0.46,0.23,1.02,0.04,1.25-0.42
				c0.23-0.46,0.04-1.02-0.42-1.25C203.17,102.73,202.62,102.92,202.39,103.38z"/>
			<circle class="st0" cx="177.51" cy="145.73" r="0.93"/>
		</g>
	</g>
	<g>
		<path class="st0" d="M84.7,218.16c0.75-1.37,1.67-2.64,2.86-3.64c1.72-1.45,3.27-1.8,5.24-2.76c1.17-2.12,3.63-6.31,5.1-8.98
			c0.21-0.39,0.41-0.74,0.57-1.06c0.06-0.12,1.8-3.37,1.8-3.51c0-2.4-0.04-4.53,0.12-6.54c0.11-1.37,0.51-2.64,1.14-3.77
			c1.44-2.62,4.09-4.5,7.14-5.24c2.45-0.59,5.22-0.36,7.41,0.91c2.66,1.54,4.68,3.76,5.8,6.68c0.18,0.47,0.43,0.67,0.92,0.73
			c0.74,0.09,1.48,0.23,2.19,0.42c2.31,0.61,4.37,1.74,6.26,3.16c1.96,1.48,3.76,3.12,4.96,5.31c2.14-1.04,7.72-1.91,12.36-0.57
			c5.14,1.49,9.76,5.6,11.61,10.7c0.22,0.61,0.54,0.89,1.2,0.93c2.5,0.14,20.8,1.41,28.64,13.42c3.14,4.82,2.27,12.21,0.32,15.75
			c-0.26,0.47-0.54,0.87-0.83,1.19c-2.68,2.95-6.33,4.11-10.14,4.73c-1.41,0.23-2.69,0.69-3.4,1.94c-0.04,0.08-0.09,0.16-0.14,0.25
			c-0.43,0.78-1.08,2.02-1.53,2.84c-0.07,0.13-0.14,0.25-0.2,0.36c-0.02,0.03-0.03,0.06-0.05,0.09c-0.91,1.66-0.56,2.45,0.3,4.25
			c0.29,0.61,1.76,5.07,1.77,7.41c0.01,1.76-0.57,3.8-1.47,5.43c-0.15,0.27-0.3,0.52-0.46,0.76c-2.96,4.4-6.56,5.11-11.86,5.36
			c-14.27,0.66-25.07-13.79-26.88-16.44c-0.38-0.56-0.79-0.66-1.43-0.52c-5.83,1.24-10.47-0.49-15.26-4.3
			c-3.3-2.62-5.78-9.03-5.74-11.09c-1.35,0.18-2.66-0.1-3.96-0.4c-4.05-0.94-7.7-2.63-10.46-5.86c-0.6-0.7-1.16-0.98-2.03-0.64
			c-0.3,0.12-0.67,0.1-1.01,0.11c-7.96,0.18-15.41-7.08-11.98-15.11C83.92,219.69,84.29,218.91,84.7,218.16 M82.69,217.06
			c-0.41,0.74-0.8,1.56-1.21,2.51c-1.71,4-1.33,8.17,1.09,11.74c2.78,4.11,7.9,6.68,13.05,6.57l0.14,0c0.31,0,0.74-0.01,1.22-0.13
			c2.78,3.19,6.56,5.3,11.56,6.46c0.84,0.2,1.68,0.38,2.55,0.46c0.85,3.29,3.17,8.15,6.25,10.59c5.58,4.43,10.72,5.94,16.6,4.85
			c2.43,3.37,13.57,17.59,28.5,16.9c5.29-0.24,9.98-0.89,13.66-6.37c0.2-0.3,0.39-0.61,0.57-0.94c1.11-2.02,1.77-4.46,1.76-6.55
			c-0.01-2.83-1.66-7.69-1.99-8.39c-0.72-1.5-0.72-1.5-0.36-2.15l0.04-0.07l0.22-0.38c0.23-0.42,0.52-0.95,0.8-1.48
			c0.27-0.49,0.53-0.98,0.74-1.36l0.13-0.23c0.16-0.28,0.49-0.6,1.77-0.81c3.56-0.58,8.08-1.72,11.47-5.45
			c0.41-0.45,0.79-0.99,1.14-1.62c2.11-3.82,3.43-12.22-0.41-18.11c-3.59-5.5-9.5-9.57-17.56-12.1c-5.23-1.64-9.97-2.16-12.26-2.32
			c-2.18-5.4-7.19-9.91-12.92-11.58c-4.27-1.24-9.04-0.82-12.06,0c-1.4-1.89-3.11-3.3-4.53-4.37c-2.31-1.74-4.62-2.9-7.05-3.55
			c-0.58-0.15-1.19-0.28-1.82-0.38c-1.31-3.03-3.51-5.46-6.53-7.22c-2.59-1.5-5.9-1.92-9.1-1.16c-3.74,0.9-6.88,3.22-8.61,6.36
			c-0.8,1.45-1.28,3.03-1.41,4.69c-0.14,1.73-0.14,3.51-0.13,5.4l0,0.84c-0.22,0.44-0.68,1.33-1.53,2.93
			c-0.16,0.3-0.35,0.65-0.55,1.02c-0.78,1.42-1.84,3.27-2.87,5.06c-0.69,1.2-1.35,2.35-1.86,3.26c-0.31,0.14-0.61,0.26-0.9,0.39
			c-1.33,0.56-2.7,1.14-4.18,2.38C84.79,213.86,83.68,215.26,82.69,217.06L82.69,217.06z"/>
		<g>
			<path class="st0" d="M140.16,237.62c5.51,3.04,7,8.4,4.57,13.13c-1.29,2.5-3.24,4.32-5.73,5.58c-0.73,0.37-1.33,0.25-1.59-0.3
				c-0.25-0.54,0-1,0.73-1.38c2.88-1.48,4.92-3.68,5.67-6.89c1-4.34-1.82-8.23-6.35-8.87c-1.2-0.17-2.39-0.12-3.57,0.15
				c-0.55,0.12-1.05,0.08-1.33-0.5c-0.26-0.57,0.11-1.16,0.86-1.32C136.14,236.63,138.76,236.87,140.16,237.62z"/>
			<path class="st0" d="M150.58,258.84c3.06-4.74,7.93-8,14.76-7.78c1.34,0.04,2.64,0.36,3.87,0.92c0.38,0.17,0.62,0.46,0.6,0.9
				c-0.01,0.33-0.18,0.6-0.48,0.77c-0.38,0.22-0.75,0.08-1.11-0.05c-1.91-0.73-3.87-0.86-5.87-0.54
				c-6.59,1.07-12.16,7.06-12.25,13.49c-0.01,0.73-0.41,1.17-0.96,1.16c-0.57-0.01-0.89-0.44-0.91-1.21
				C148.19,264.46,148.91,261.85,150.58,258.84z"/>
			<path class="st0" d="M94.81,221.06c-1.41,1.28-2.67,2.51-3.28,4.23c-0.08,0.23-0.13,0.48-0.22,0.71
				c-0.18,0.44-0.48,0.74-0.99,0.61c-0.49-0.12-0.7-0.49-0.64-0.97c0.11-0.92,0.52-1.74,0.99-2.5c1.18-1.9,2.68-3.5,4.57-4.72
				c0.45-0.29,0.93-0.51,1.44-0.1c0.47,0.38,0.33,0.87,0.25,1.37c-0.42,2.62-0.74,5.24,0.47,7.78c0.13,0.28,0.21,0.6,0.24,0.91
				c0.05,0.51-0.17,0.89-0.69,1.02c-0.48,0.12-0.88-0.1-1.04-0.54c-0.7-1.91-1.49-3.8-1.21-5.91
				C94.77,222.36,94.77,221.77,94.81,221.06z"/>
			<path class="st0" d="M146.51,226.11c5.52,3.03,10.84,1.44,13.54-3.15c1.43-2.42,1.92-5.05,1.66-7.83
				c-0.08-0.81-0.5-1.26-1.1-1.18c-0.59,0.07-0.85,0.54-0.78,1.35c0.28,3.22-0.48,6.13-2.8,8.47c-3.13,3.16-7.93,2.86-10.89-0.64
				c-0.78-0.92-1.38-1.96-1.78-3.1c-0.19-0.53-0.49-0.94-1.13-0.85c-0.62,0.08-0.92,0.71-0.66,1.43
				C143.52,223.24,145.12,225.33,146.51,226.11z"/>
			<path class="st0" d="M169.6,224.33c-2.37,5.12-2.53,10.98,1.3,16.64c0.75,1.11,1.72,2.04,2.84,2.78
				c0.35,0.23,0.73,0.28,1.08,0.03c0.27-0.19,0.41-0.47,0.4-0.82c-0.02-0.44-0.33-0.68-0.64-0.91c-1.64-1.22-2.79-2.81-3.59-4.68
				c-2.62-6.14-0.52-14.05,4.87-17.56c0.61-0.4,0.77-0.97,0.46-1.43c-0.31-0.47-0.85-0.52-1.5-0.12
				C173.08,219.31,171.25,221.31,169.6,224.33z"/>
			<path class="st0" d="M108.67,196.36c0.33-1.88,0.7-3.6,1.82-5.03c0.15-0.2,0.33-0.37,0.48-0.57c0.28-0.38,0.37-0.8-0.01-1.16
				c-0.36-0.35-0.78-0.33-1.17-0.02c-0.72,0.58-1.19,1.37-1.59,2.18c-0.98,2.01-1.53,4.14-1.55,6.39c0,0.54,0.07,1.06,0.68,1.27
				c0.57,0.2,0.91-0.19,1.29-0.52c2-1.75,4.04-3.43,6.83-3.75c0.31-0.04,0.62-0.15,0.9-0.29c0.46-0.23,0.66-0.62,0.5-1.13
				c-0.16-0.47-0.55-0.69-1.02-0.59c-1.99,0.42-4.01,0.77-5.64,2.13C109.74,195.64,109.25,195.95,108.67,196.36z"/>
			<path class="st0" d="M124.62,221.51c1.06-0.18,1.88-0.61,2.48-1.42c0.4-0.53,0.47-1.12,0.29-1.74c-0.13-0.47-0.46-0.73-0.96-0.67
				c-0.46,0.06-0.77,0.37-0.74,0.83c0.05,0.69-0.36,0.97-0.89,1.17c-0.69,0.26-0.9,0.14-1.05-0.56c-0.16-0.7-0.67-1.07-1.31-1.23
				c-0.75-0.18-1.44-0.01-1.99,0.56c-0.59,0.62-0.72,1.53-0.35,2.27c0.36,0.72,1.06,1.06,1.99,0.96c0.64-0.07,1.24,0.7,1.04,1.33
				c-0.12,0.37-0.32,0.69-0.59,0.97c-0.39,0.4-0.53,0.86-0.1,1.32c0.35,0.38,0.99,0.37,1.39-0.11
				C124.72,224.13,125.37,222.98,124.62,221.51z"/>
			<path class="st0" d="M120.99,211.42c1.26,0.71,2.57,0.37,3.27-0.84c0.71-1.22,0.27-2.62-1.04-3.34c-1.14-0.63-2.5-0.15-3.2,1.13
				C119.39,209.5,119.78,210.74,120.99,211.42z"/>
			<path class="st0" d="M112.27,227.24c1.26,0.71,2.57,0.37,3.27-0.84c0.71-1.22,0.27-2.62-1.04-3.34c-1.14-0.63-2.5-0.15-3.2,1.13
				C110.67,225.32,111.06,226.56,112.27,227.24z"/>
			<g>
				<path class="st0" d="M137.12,213.78c0.68,4.42-1.14,9.09-3.17,12.92c-2.07,3.9-5.25,7.7-9.48,9.3c-1.15,0.43-1.68-1.4-0.53-1.84
					c3.83-1.44,6.65-5.13,8.48-8.64c1.83-3.5,3.42-7.67,2.8-11.69c-0.08-0.51,0.46-0.96,0.93-0.98
					C136.71,212.83,137.04,213.28,137.12,213.78L137.12,213.78z"/>
			</g>
		</g>
		<g>
			<path class="st0" d="M116.48,188.45c-1.71-1.45-3.79-2.48-6.03-2.32c-0.46,0.03-0.74,0.09-1.21,0.21
				c-0.4,0.11-0.83,0.27-1.09,0.39c-0.39,0.18-0.76,0.39-1.12,0.63c-0.15,0.1-0.3,0.2-0.45,0.31c-0.02,0.02-0.13,0.1-0.16,0.12
				c-0.03,0.02-0.17,0.14-0.2,0.17c-0.3,0.25-0.58,0.52-0.85,0.81c-0.11,0.12-0.23,0.25-0.33,0.38c-0.06,0.07-0.11,0.14-0.17,0.21
				c-0.02,0.02-0.02,0.02-0.02,0.03c0,0,0,0-0.01,0.01c-0.01,0.01-0.02,0.01-0.02,0.02c0,0,0,0,0,0c-0.3,0.4-0.8,0.61-1.27,0.35
				c-0.41-0.23-0.68-0.88-0.38-1.3c2.28-3.19,6.36-5.07,10.23-3.91c1.65,0.49,3.1,1.41,4.41,2.52
				C118.75,187.88,117.41,189.25,116.48,188.45z"/>
			<path class="st0" d="M152.31,205.27c-0.04-0.03-0.08-0.06-0.12-0.09c-0.03-0.02-0.06-0.04-0.07-0.05
				c-0.13-0.09-0.27-0.17-0.4-0.26c-0.33-0.2-0.68-0.38-1.03-0.54c-0.87-0.41-1.77-0.74-2.7-1.01c-2.07-0.6-4.34-0.93-6.46-0.37
				c-1.19,0.32-1.72-1.52-0.53-1.84c2.43-0.65,5.05-0.34,7.44,0.35c1.79,0.52,3.76,1.22,5.21,2.44
				C154.58,204.69,153.25,206.06,152.31,205.27z"/>
			<path class="st0" d="M187.69,235.58c0.03-0.13,0.06-0.27,0.08-0.4c0.01-0.07,0.02-0.15,0.03-0.22c-0.03,0.27,0-0.05,0.01-0.1
				c0.03-0.39,0.03-0.78,0.03-1.17c-0.02-0.96-0.12-1.96-0.28-2.86c-0.39-2.12-1.11-4.37-2.52-5.96c-0.34-0.39-0.4-0.96-0.02-1.35
				c0.34-0.35,1.01-0.41,1.35-0.02c1.67,1.89,2.57,4.35,3.02,6.8c0.33,1.81,0.62,3.91,0.17,5.73
				C189.25,237.22,187.4,236.77,187.69,235.58z"/>
			<path class="st0" d="M139.3,201.54c0.45,0.25,0.61,0.81,0.37,1.26c-0.25,0.45-0.81,0.61-1.26,0.37s-0.61-0.81-0.37-1.26
				C138.28,201.46,138.85,201.3,139.3,201.54z"/>
			<circle class="st0" cx="183.86" cy="222.21" r="0.93"/>
		</g>
	</g>
	<path class="st0" d="M202.78,58.54c-0.18-0.46-0.42-0.92-0.63-1.32c-0.16-0.32-0.33-0.64-0.48-0.97c-1.04-2.36-1.51-4.86-1.9-7.88
		l-0.13-0.99c-0.38-3.06-0.78-6.22-2.06-9.19c-1.11-2.56-2.67-3.5-5.05-3.04c-0.99,0.19-2.01,0.35-3,0.51l-0.05,0.01
		c-3.31,0.53-6.74,1.08-9.89,2.71c-2.14,1.11-3.65,2.49-4.76,4.33c-0.46,0.77-0.99,1.53-1.5,2.26c-0.21,0.3-0.41,0.59-0.62,0.89
		c-0.14,0.21-0.25,0.26-0.56,0.15c-0.64-0.22-1.25-0.33-1.87-0.34c-1.14,0.01-2.29,0.08-3.32,0.13c-0.36,0.02-0.72,0.04-1.08,0.05
		c-0.11-0.39-0.21-0.78-0.32-1.18c-0.28-1.03-0.59-2.2-0.96-3.32c-0.48-1.49-1.06-3.04-1.77-4.76c-0.82-1.99-1.8-4.07-3.4-5.78
		c-1.06-1.13-2.13-2.18-3.64-2.69c-0.36-0.12-0.72-0.23-1.09-0.34l-0.09-0.03c-1.32-0.4-2.69-0.82-3.82-1.67
		c-0.18-0.14-0.38-0.22-0.57-0.31c-1.29-0.57-2.47-1-3.81-0.46c-1.16,0.47-2.6,1.19-3.43,2.63c-1.32,2.27-2.59,4.62-3.82,6.89
		l-0.52,0.96c-0.51,0.95-1.03,1.95-1.49,2.85c-0.96,1.86-1.94,3.79-3.07,5.57c-1.62,2.55-1.46,6.61,0.33,8.68
		c0.57,0.66,1.14,1.35,1.7,2.04c0.19,0.23,0.38,0.46,0.57,0.69c-0.2,0.2-0.4,0.4-0.6,0.6l-0.09,0.09c-0.59,0.59-1.2,1.19-1.82,1.77
		c-2.04,1.9-2.6,4.31-1.71,7.38c0.86,2.98,2.52,5.52,4.29,8.06c1.46,2.1,2.34,4.44,2.6,6.94c0.05,0.48,0.04,0.98,0.04,1.51
		c-0.01,0.43-0.01,0.88,0.02,1.33c0.09,1.11,0.61,2.04,1.44,2.54c0.82,0.49,1.83,0.53,2.84,0.09c0.8-0.35,1.62-0.89,2.58-1.71
		c2.13-1.81,3.38-4.24,4.6-6.6l0.12-0.24c0.31-0.6,0.61-1.21,0.91-1.81c0.66-1.34,1.34-2.72,2.14-4c1.13-1.8,2.49-4.24,3.04-7.12
		c0.25-1.28,0.6-2.64,1.06-4.06c0.61-1.88,1.95-3.14,4.31-4.07c1.07,2.3,3.17,2.4,5.03,2.48c0.1,0,0.21,0.01,0.31,0.01
		c-0.01,0.03-0.02,0.06-0.03,0.09c-0.45,1.11-0.91,2.21-1.38,3.32c-1.06,2.54-2.16,5.17-3.15,7.79c-0.67,1.76-1.33,3.63-1.42,5.51
		c-0.16,3.24,0.22,6.77,1.19,11.08c0.2,0.88,0.46,1.89,0.95,2.78c0.82,1.49,1.73,2.91,2.71,4.21c0.59,0.78,1.38,1.22,2.24,1.22
		c0.21,0,0.43-0.03,0.65-0.08c0.91-0.24,1.85-0.54,2.59-1.07c1.09-0.79,2.13-1.66,3.15-2.49l0.11-0.1c0.55-0.45,1.1-0.9,1.65-1.35
		c1.8-1.42,3.64-2.85,5.37-4.2l0.92-0.72c0.43-0.33,0.86-0.66,1.33-1c0.85-0.63,1.73-1.29,2.54-2c1.71-1.51,2.02-3.05,1.01-4.99
		c-0.72-1.37-0.92-2.54-0.65-3.68c0.51-2.1,0.34-4.03-0.51-5.89c0.7-0.13,1.4-0.25,2.09-0.38l0.46-0.08
		c2.37-0.43,4.82-0.87,7.25-1.35c1.42-0.28,2.91-0.68,4.43-1.18c1.42-0.47,2.24-1.62,2.19-3.08c-0.03-0.82-0.34-1.62-0.64-2.38
		L202.78,58.54z M192.71,61.21L192.71,61.21L192.71,61.21L192.71,61.21l-0.05-0.18c-2.11,0.54-4.5,1.14-6.97,1.23
		c-2.99,0.1-5.4-1.22-7.15-2.4c-0.67-0.45-1.3-0.98-1.92-1.52c-0.5-0.43-1.02-0.87-1.56-1.27c-0.66-0.48-1.35-0.88-2.08-1.3
		l-0.08-0.04c-0.22-0.13-0.44-0.26-0.67-0.39c0.08-0.28,0.16-0.55,0.25-0.84l0.03-0.1c0.31-1.06,0.62-2.15,1.06-3.19
		c0.11-0.26,0.66-0.58,1.31-0.75c0.91-0.25,1.88-0.37,2.82-0.49l0.42-0.05c0.41-0.04,1.19-0.13,1.15-1.02
		c-0.02-0.34-0.14-0.61-0.37-0.8c-0.36-0.3-0.85-0.3-1.2-0.24c-1.02,0.15-2.01,0.34-3.07,0.53l-0.05,0.01
		c-0.31,0.06-0.63,0.12-0.94,0.18c-0.05-0.44,0.2-0.85,0.63-1.38c0.75-0.92,1.48-1.97,2.3-3.3c0.94-1.51,2.17-2.64,3.88-3.54
		c2.38-1.25,5-1.73,7.53-2.19c0.73-0.13,1.45-0.27,2.17-0.42c1-0.21,2.09-0.36,3.43-0.48c0.78-0.08,1.32,0.28,1.75,1.17
		c1.2,2.46,1.61,5.19,1.97,7.59c0.11,0.72,0.21,1.44,0.31,2.18c0.21,1.49,0.42,3.02,0.7,4.52c0.43,2.29,1.26,4.51,2.55,6.8
		c0.08,0.15,0.12,0.35,0.16,0.59l-0.05,0.01c-0.2,0.06-0.39,0.11-0.53,0.09c-2.66-0.41-5.2,0.14-7.78,0.8L192.71,61.21z
		 M166.1,48.08c0.11-0.13,0.34-0.2,0.7-0.21c0.58-0.02,1.15-0.02,1.73-0.03l0.12,0c0.71-0.01,1.42-0.02,2.14-0.04l0.06,0
		c0.26,0,0.44,0.06,0.55,0.17c0.11,0.12,0.15,0.32,0.12,0.59c-0.1,1-0.25,2.01-0.4,2.99l-0.03,0.23c-0.03,0.23-0.07,0.45-0.1,0.68
		c-0.12,0.03-0.21,0.12-0.25,0.24c-0.05,0.17-0.11,0.34-0.17,0.52c-0.13,0.37-0.25,0.75-0.33,1.15c-0.18,0.91-0.79,1.62-1.71,2.01
		c-1.15,0.48-2.63,0.36-3.58-0.27c-0.64-0.42-0.57-1.24-0.41-1.84c0.25-0.92,0.54-1.83,0.82-2.71l0.03-0.09
		c0.17-0.54,0.34-1.08,0.5-1.62c0.11-0.36,0.21-0.78,0.15-1.19C165.98,48.39,166.01,48.19,166.1,48.08z M167.37,65.63l0.04-0.1
		l0.1-0.23c0.56-1.34,1.14-2.73,1.69-4.1c0.22-0.56,0.4-1.14,0.58-1.73c0.15-0.5,0.31-1.02,0.5-1.5c0.04-0.11,0.22-0.24,0.39-0.37
		l0.05-0.04c0.01-0.01,0.01-0.01,0.02-0.02c0.19,0.18,0.38,0.36,0.58,0.56c0.53,0.5,1.03,0.98,1.48,1.5c2.4,2.75,5.07,5.1,7.93,6.98
		c0.91,0.6,2.03,0.82,3.12,1.04l0.21,0.04c0.9,0.18,1.4,0.58,1.47,1.19l0.05,0.4c0.13,1.06,0.26,2.15,0.04,3.11
		c-0.39,1.69-0.21,3.32,0.55,5.13l0.02,0.05c0.71,1.69,0.71,1.69-0.65,2.91c-0.66,0.6-1.43,1.16-2.1,1.65l-0.13,0.1
		c-0.34,0.25-0.68,0.5-1.02,0.76l-0.6,0.47c-2.17,1.68-4.13,3.2-6.09,4.75c-0.63,0.5-1.26,1.01-1.89,1.52l-0.09,0.07
		c-0.87,0.71-1.76,1.44-2.67,2.12c-0.38,0.29-0.91,0.51-1.58,0.67c-0.23,0.06-0.62-0.03-0.81-0.18c-0.4-0.32-0.78-0.75-1.23-1.38
		c-1.49-2.07-2.38-4.55-2.7-7.58c-0.25-2.3-0.53-5.01-0.68-7.77c-0.09-1.56,0.53-3.04,1.13-4.48c0.12-0.28,0.23-0.56,0.34-0.84
		C166.06,68.76,166.73,67.16,167.37,65.63z M181.19,64.37c-0.59-0.47-1.07-0.86-1.5-1.23c-0.08-0.07-0.17-0.14-0.25-0.22
		c2.84,1.56,6.09,1.91,10.18,1.1c0.89-0.18,1.77-0.41,2.64-0.64c0.55-0.15,1.23-0.33,1.88-0.48c1.96-0.45,4.04-0.86,6.13-0.52
		c-0.82,0.38-1.71,0.65-2.74,0.84c-1.04,0.19-2.08,0.38-3.12,0.57l-0.17,0.03c-2.39,0.44-4.86,0.89-7.28,1.38
		C185.01,65.61,182.97,65.78,181.19,64.37z M156.86,40.72c-0.29-0.13-1.14-0.28-1.36,0.14c-0.22,0.41-0.18,0.95-0.07,1.29
		c0.1,0.32,0.41,0.5,0.67,0.66l0.09,0.06c0.53,0.32,1.06,0.64,1.6,0.95l0.05,0.03c1.18,0.69,2.4,1.41,3.52,2.22
		c0.61,0.45,1.11,1.11,1.6,1.77c0.2,0.26,0.39,0.53,0.59,0.77c0.02,0.05,0.01,0.25,0.01,0.32c0,0.1-0.03,0.21-0.06,0.33
		c-0.01,0.05-0.03,0.11-0.04,0.17c-0.35,1.57-1.11,2.2-2.59,2.14h0c-1.22-0.04-2.44,0.08-3.62,0.2l-0.09,0.01
		c-1.75,0.18-3.55,0.36-5.32,0.01c-0.42-0.08-0.83-0.18-1.27-0.29c-0.73-0.17-1.49-0.35-2.26-0.45c-1.02-0.13-2.08-0.2-3.01-0.26
		l-0.09-0.01c-0.56-0.04-1.13-0.07-1.69-0.12c-2.71-0.24-5.15-1-7.26-2.26c-1.12-0.67-1.26-1.33-0.55-2.57
		c1.17-2.02,2.49-4.31,3.7-6.59c0.72-1.37,1.42-2.78,2.04-4.03l0.03-0.07c0.62-1.24,1.25-2.52,1.9-3.76
		c0.64-1.21,1.39-2.46,2.57-3.33c0.7-0.52,1.34-0.77,1.96-0.77c0.5,0,0.99,0.16,1.49,0.49c1.71,1.13,3.6,1.76,5.38,2.3
		c2.33,0.71,3.7,2.75,4.54,4.23c0.83,1.47,1.46,3.1,2.08,4.66l0.26,0.66c0.57,1.44,1.07,2.86,1.6,4.36l0.1,0.27
		c0.09,0.24,0.17,0.49,0.26,0.73l-5.37-3.42c-0.13-0.08-0.25-0.16-0.38-0.25C157.54,41.1,157.22,40.88,156.86,40.72z M138.48,72.19
		c-1.67-2.42-3.12-4.64-3.9-7.28c-0.68-2.29-0.32-3.98,1.14-5.31l1.56-1.43c1.83-1.68,3.72-3.41,5.62-5.07
		c0.19-0.17,0.61-0.27,1.14-0.27l0.13,0c2.1,0.06,4.38,0.38,7.18,1c1.68,0.38,3.49,0.42,5.55,0.14c1.34-0.18,2.67-0.25,4.1-0.33
		l0.27-0.01c0.38-0.02,0.77-0.04,1.15-0.07c-0.1,0.36-0.33,0.58-0.79,0.74c-3.54,1.3-5.61,3.97-6.32,8.18
		c-0.49,2.89-1.45,5.42-2.94,7.72c-0.91,1.4-1.66,2.93-2.39,4.41c-0.34,0.69-0.69,1.4-1.05,2.09c-1.17,2.22-2.38,4.52-4.42,6.22
		l-0.16,0.14c-0.08,0.07-0.16,0.15-0.25,0.21l-0.09,0.06c-0.72,0.5-1.35,0.94-2.07,0.53c-0.44-0.24-0.43-0.67-0.38-1.34
		c0.01-0.14,0.02-0.29,0.02-0.42C141.66,78.57,140.64,75.32,138.48,72.19z M140.52,52.45l-2.13,1.73c-1.03-0.96-2.25-2.14-2.95-3.65
		L140.52,52.45z"/>
	<path class="st0" d="M75.52,161.16l-0.24-0.14c-0.41-0.25-0.86-0.45-1.3-0.66c-0.32-0.15-0.66-0.3-0.97-0.47
		c-2.27-1.24-4.17-2.92-6.32-5.07l-0.72-0.72c-2.17-2.18-4.42-4.44-7.24-5.99c-2.48-1.36-4.23-1.16-5.86,0.68
		c-0.7,0.79-1.44,1.58-2.1,2.28c-2.29,2.44-4.66,4.97-6.15,8.19c-1.01,2.19-1.37,4.2-1.11,6.34c0.11,0.9,0.16,1.86,0.2,2.7
		c0.02,0.36,0.04,0.72,0.06,1.08c0.01,0.25-0.04,0.35-0.35,0.46c-0.64,0.22-1.19,0.5-1.69,0.87c-0.85,0.67-1.69,1.4-2.51,2.1
		l-0.85,0.73c-0.32-0.24-0.65-0.49-0.97-0.74c-0.85-0.65-1.81-1.38-2.79-2.04c-1.29-0.88-2.7-1.75-4.31-2.68
		c-1.87-1.07-3.91-2.11-6.22-2.49c-1.53-0.25-3.02-0.43-4.52,0.1c-0.35,0.12-0.69,0.25-1.04,0.38l-0.12,0.04
		c-1.29,0.49-2.63,0.99-4.05,1.02c-0.23,0-0.44,0.06-0.64,0.11c-1.37,0.34-2.57,0.72-3.3,1.97c-0.63,1.08-1.33,2.53-1.11,4.18
		c0.34,2.6,0.77,5.24,1.2,7.83l0.17,1.02c0.17,1.05,0.37,2.11,0.57,3.17c0.38,2.06,0.78,4.18,0.98,6.29
		c0.28,3.01,2.88,6.12,5.57,6.66c0.84,0.17,1.69,0.36,2.51,0.55l0.08,0.02c0.29,0.07,0.58,0.13,0.87,0.2l-0.13,0.97
		c-0.11,0.82-0.22,1.68-0.36,2.51c-0.45,2.75,0.58,5,3.16,6.88c2.5,1.83,5.37,2.82,8.33,3.75c2.44,0.77,4.57,2.08,6.3,3.9
		c0.33,0.35,0.63,0.74,0.92,1.13c0,0,0.03,0.04,0.03,0.04c0.26,0.35,0.53,0.71,0.84,1.04c0.67,0.74,1.52,1.14,2.38,1.14
		c0.11,0,0.21-0.01,0.32-0.02c0.95-0.11,1.77-0.71,2.3-1.67c0.42-0.77,0.74-1.7,1-2.93c0.57-2.73,0.08-5.42-0.4-8.04l-0.05-0.26
		c-0.12-0.66-0.26-1.33-0.39-1.99c-0.3-1.46-0.6-2.97-0.75-4.47c-0.21-2.11-0.62-4.87-1.95-7.49c-0.59-1.16-1.14-2.46-1.64-3.86
		c-0.66-1.86-0.38-3.67,0.92-5.85c2.25,1.16,3.97-0.04,5.5-1.11c0.08-0.06,0.17-0.12,0.25-0.18c0.01,0.03,0.02,0.06,0.03,0.09
		c0.32,1.16,0.63,2.31,0.94,3.47c0.72,2.66,1.46,5.41,2.27,8.09c0.55,1.8,1.17,3.68,2.25,5.23c1.86,2.66,4.32,5.22,7.72,8.04
		c0.69,0.57,1.53,1.22,2.46,1.62c1.56,0.67,3.14,1.24,4.72,1.68c0.95,0.26,1.84,0.12,2.52-0.41c0.17-0.13,0.33-0.29,0.46-0.46
		c0.57-0.74,1.14-1.55,1.39-2.43c0.37-1.29,0.67-2.61,0.97-3.89c0.17-0.74,0.34-1.48,0.52-2.22c0.55-2.23,1.13-4.45,1.68-6.61
		l0.29-1.13c0.13-0.51,0.27-1.02,0.43-1.57c0.29-1.03,0.59-2.1,0.79-3.17c0.43-2.24-0.27-3.65-2.26-4.56
		c-1.4-0.64-2.28-1.45-2.77-2.52c-0.89-1.97-2.2-3.4-4.01-4.35c0.58-0.65,1.16-1.29,1.74-1.92l0.12-0.13
		c1.66-1.83,3.22-3.57,4.79-5.37c0.95-1.09,1.89-2.31,2.78-3.64c0.84-1.24,0.78-2.65-0.15-3.78
		C76.96,162.02,76.22,161.59,75.52,161.16z M74.58,191.5l-0.2,0c-0.13,0.45-0.26,0.9-0.38,1.36l-0.19,0.74
		c-0.6,2.32-1.28,4.94-1.91,7.48c-0.2,0.78-0.38,1.57-0.57,2.39c-0.26,1.12-0.53,2.27-0.83,3.4c-0.12,0.46-0.4,0.96-0.84,1.49
		c-0.15,0.19-0.5,0.35-0.74,0.35c0,0-0.01,0-0.01,0c-0.51-0.01-1.07-0.12-1.82-0.34c-2.44-0.72-4.66-2.14-6.78-4.35
		c-1.6-1.66-3.48-3.65-5.29-5.73c-1.03-1.19-1.44-2.74-1.85-4.23c-0.08-0.29-0.16-0.58-0.24-0.87c-0.47-1.63-0.91-3.29-1.35-4.9
		l-0.03-0.1l-0.18,0.05v0l0.17-0.09c-0.39-1.47-0.8-2.98-1.22-4.47c-0.17-0.59-0.39-1.18-0.6-1.72c-0.18-0.49-0.38-0.99-0.52-1.49
		c-0.03-0.11,0.03-0.32,0.09-0.57c0.01-0.02,0.01-0.04,0.02-0.06c0.23,0.03,0.47,0.05,0.69,0.07l0.12,0.01
		c0.72,0.07,1.4,0.15,2.07,0.28c3.58,0.71,7.13,0.93,10.55,0.67c1.08-0.08,2.11-0.6,3.1-1.09l0.19-0.1c0.84-0.42,1.45-0.4,1.89,0.04
		l0.28,0.29c0.75,0.76,1.52,1.54,1.93,2.44c0.73,1.57,1.86,2.76,3.57,3.72c0,0,0.04,0.02,0.04,0.02c1.59,0.9,1.59,0.9,1.27,2.7
		c-0.15,0.86-0.4,1.73-0.65,2.56L74.58,191.5C74.58,191.5,74.58,191.5,74.58,191.5z M22.3,194.28l-0.63,2.67
		c-1.4-0.13-3.09-0.31-4.57-1.09L22.3,194.28z M43.85,182.24c-0.76,0.07-1.21-0.63-1.45-1.21c-0.35-0.85-0.68-1.73-0.99-2.58
		l-0.02-0.07c-0.2-0.56-0.41-1.12-0.62-1.68c-0.14-0.35-0.31-0.75-0.61-1.03c-0.19-0.19-0.29-0.36-0.28-0.5
		c0.01-0.16,0.15-0.36,0.42-0.59c0.45-0.37,0.91-0.74,1.37-1.1l0.06-0.05c0.56-0.44,1.12-0.88,1.66-1.33l0.05-0.04
		c0.18-0.14,0.34-0.2,0.48-0.2c0.02,0,0.04,0,0.06,0c0.16,0.03,0.32,0.16,0.46,0.39c0.52,0.84,1.02,1.73,1.51,2.61
		c0.15,0.27,0.3,0.53,0.45,0.8c-0.08,0.09-0.1,0.22-0.05,0.35c0.06,0.15,0.11,0.3,0.16,0.45l0.02,0.05
		c0.12,0.35,0.26,0.75,0.45,1.13c0.41,0.83,0.37,1.77-0.13,2.63C46.23,181.35,44.99,182.16,43.85,182.24z M48.26,171.69
		c0.56-0.75,1.26-1.44,1.93-2.11l0.3-0.3c0.3-0.29,0.86-0.82,0.28-1.51c-0.22-0.26-0.48-0.4-0.78-0.41c-0.01,0-0.02,0-0.04,0
		c-0.45,0-0.83,0.29-1.06,0.54c-0.72,0.75-1.4,1.51-2.14,2.34c-0.21,0.24-0.42,0.48-0.64,0.72c-0.31-0.32-0.36-0.8-0.35-1.48
		c0.03-1.19-0.03-2.47-0.19-4.02c-0.19-1.77,0.1-3.42,0.91-5.18c1.12-2.44,2.9-4.42,4.62-6.34c0.49-0.55,0.98-1.1,1.46-1.66
		c0.66-0.77,1.43-1.56,2.41-2.48c0.57-0.54,1.21-0.58,2.1-0.14c2.45,1.22,4.44,3.12,6.2,4.8c0.52,0.5,1.04,1.01,1.57,1.52
		c1.08,1.05,2.19,2.14,3.33,3.16c1.74,1.55,3.76,2.8,6.18,3.82c0.16,0.07,0.31,0.21,0.48,0.36l0.01,0.01
		c-0.01,0.02-0.03,0.04-0.03,0.04c-0.12,0.17-0.23,0.33-0.36,0.39c-2.36,1.3-4.03,3.29-5.67,5.39c-1.34,1.71-2.86,3.66-4.76,5.24
		c-2.3,1.92-5.02,2.33-7.12,2.48c-0.78,0.05-1.6,0.01-2.39-0.02l-0.05,0c-0.66-0.03-1.35-0.07-2.02-0.05
		c-0.82,0.02-1.65,0.13-2.45,0.24c-0.28,0.04-0.57,0.07-0.85,0.11c-0.11-0.29-0.23-0.59-0.35-0.91c-0.4-1.02-0.82-2.08-1.11-3.17
		C47.61,172.82,47.85,172.23,48.26,171.69z M54.46,177.05L54.46,177.05L54.46,177.05L54.46,177.05z M61.81,178.83
		c-0.02,0-0.03,0-0.05,0c-0.77-0.01-1.38-0.02-1.94-0.05c-0.11,0-0.22-0.01-0.33-0.02c3.2-0.51,5.98-2.22,8.72-5.36
		c0.6-0.68,1.15-1.41,1.69-2.12c0.36-0.48,0.77-1.02,1.19-1.53c1.27-1.55,2.67-3.15,4.53-4.16c-0.42,0.8-0.95,1.56-1.65,2.34
		c-0.61,0.69-1.23,1.37-1.84,2.06l-0.31,0.34c-1.65,1.83-3.35,3.73-4.99,5.64C65.56,177.46,64.06,178.83,61.81,178.83z
		 M44.26,216.15l-0.19,0.01c-0.02,0.1-0.04,0.21-0.07,0.31l-0.03,0.11c-0.26,0.84-0.49,1.57-1.32,1.69
		c-0.5,0.08-0.75-0.26-1.12-0.83c-0.08-0.12-0.16-0.24-0.24-0.35c-2.11-2.85-4.9-4.79-8.52-5.95c-2.8-0.89-5.3-1.76-7.54-3.37
		c-1.94-1.4-2.68-2.95-2.35-4.9l0.36-2.07c0.42-2.45,0.86-4.99,1.35-7.47c0.05-0.25,0.32-0.59,0.74-0.91
		c0.03-0.02,0.07-0.05,0.1-0.08c1.7-1.24,3.7-2.38,6.29-3.6c1.56-0.73,3.02-1.8,4.48-3.28c0.95-0.96,1.96-1.83,3.04-2.77l0.12-0.1
		c0.32-0.27,0.64-0.55,0.96-0.83c0.14,0.35,0.09,0.66-0.17,1.07c-2.01,3.19-2.01,6.57,0.01,10.33c1.38,2.59,2.17,5.17,2.4,7.91
		c0.14,1.67,0.48,3.34,0.81,4.95l0.02,0.09c0.14,0.72,0.29,1.46,0.42,2.2c0.44,2.47,0.89,5.03,0.31,7.62
		c-0.01,0.06-0.02,0.12-0.04,0.18L44.26,216.15z M29.64,174.84c-0.15,0.01-0.3,0.02-0.48,0.03c-0.36,0.02-0.74,0.04-1.11,0.14
		c-0.31,0.07-1.07,0.48-0.99,0.94c0.08,0.46,0.44,0.86,0.73,1.07c0.27,0.19,0.64,0.15,0.93,0.11l0.11-0.01
		c0.63-0.07,1.27-0.15,1.94-0.24c1.35-0.17,2.74-0.35,4.11-0.39c0.75-0.03,1.56,0.2,2.35,0.42c0.32,0.09,0.63,0.18,0.94,0.24
		c0.05,0.03,0.16,0.18,0.21,0.25c0.06,0.08,0.1,0.18,0.15,0.3c0.02,0.05,0.05,0.11,0.07,0.16c0.68,1.45,0.46,2.43-0.74,3.28
		c0,0,0,0,0,0c-0.99,0.71-1.88,1.55-2.74,2.36l-0.09,0.08c-1.27,1.21-2.58,2.45-4.19,3.25c-0.37,0.18-0.74,0.35-1.11,0.52
		l-0.07,0.03c-0.68,0.31-1.39,0.63-2.06,1.03c-0.88,0.52-1.77,1.11-2.54,1.64L25,190.07c-0.48,0.32-0.96,0.65-1.45,0.96
		c-2.29,1.47-4.68,2.36-7.13,2.65c-1.29,0.15-1.81-0.28-2-1.67c-0.29-2.19-0.66-4.92-1.11-7.5c-0.26-1.51-0.57-3.06-0.85-4.43
		l-0.02-0.11c-0.27-1.34-0.54-2.73-0.79-4.1c-0.24-1.35-0.4-2.79,0-4.2c0.24-0.84,0.59-1.43,1.08-1.81c0.39-0.3,0.88-0.47,1.48-0.52
		c2.05-0.15,3.92-0.81,5.66-1.47c0.72-0.28,1.45-0.38,2.16-0.38c1.52,0,2.95,0.5,4.02,0.95c1.56,0.66,3.05,1.55,4.49,2.42l0.61,0.36
		c1.34,0.8,2.66,1.65,3.94,2.47l0.3,0.19c0.2,0.13,0.39,0.25,0.59,0.38L29.64,174.84z M39.63,218.2
		C39.63,218.2,39.63,218.2,39.63,218.2L39.63,218.2L39.63,218.2z"/>
	<path class="st0" d="M282.88,193.3c-1.19-2.56-2.73-3.43-5.14-2.9c-1.02,0.23-2.09,0.43-3.05,0.61c-3.29,0.62-6.69,1.26-9.79,2.98
		c-2.11,1.17-3.58,2.59-4.64,4.46c-0.44,0.79-0.95,1.56-1.44,2.3c-0.2,0.3-0.4,0.6-0.59,0.91c-0.14,0.21-0.24,0.26-0.56,0.17
		c-0.64-0.2-1.25-0.3-1.88-0.29c-1.07,0.04-2.14,0.13-3.31,0.22l-1.07,0.08c-0.12-0.39-0.23-0.78-0.35-1.17
		c-0.32-1.08-0.65-2.2-1.05-3.3c-0.53-1.47-1.15-3.01-1.9-4.71c-0.88-1.97-1.91-4.02-3.56-5.68c-1.09-1.1-2.19-2.13-3.71-2.59
		c-0.39-0.12-0.79-0.23-1.2-0.34c-1.33-0.37-2.7-0.75-3.85-1.56c-0.19-0.13-0.4-0.22-0.58-0.29c-1.31-0.54-2.49-0.93-3.82-0.35
		c-1.15,0.5-2.57,1.27-3.36,2.72c-1.25,2.28-2.44,4.64-3.59,6.92l-0.53,1.04c-0.48,0.95-0.95,1.92-1.41,2.89
		c-0.9,1.89-1.84,3.84-2.92,5.65c-1.55,2.6-1.28,6.65,0.57,8.67c0.59,0.64,1.17,1.31,1.76,1.99l0.13,0.15
		c0.15,0.18,0.31,0.35,0.46,0.53l-0.63,0.65c-0.59,0.62-1.2,1.26-1.82,1.87c-1.99,1.95-2.48,4.38-1.51,7.42
		c0.94,2.96,2.67,5.44,4.51,7.94c1.52,2.06,2.46,4.37,2.79,6.87c0.06,0.48,0.07,0.98,0.08,1.47c0,0.42,0.01,0.9,0.06,1.37
		c0.12,1.11,0.67,2.02,1.51,2.5c0.84,0.47,1.85,0.47,2.84,0.01c0.79-0.37,1.6-0.94,2.53-1.78c2.08-1.87,3.27-4.34,4.42-6.73
		l0.12-0.24c0.29-0.61,0.58-1.22,0.86-1.84c0.62-1.36,1.27-2.76,2.03-4.05c1.08-1.83,2.37-4.3,2.84-7.2
		c0.21-1.28,0.53-2.65,0.95-4.08c0.56-1.89,1.86-3.19,4.2-4.18c1.13,2.27,3.23,2.31,5.1,2.35c0.1,0,0.21,0,0.31,0
		c-0.01,0.03-0.02,0.06-0.03,0.09c-0.4,1.04-0.8,2.09-1.2,3.13l-0.09,0.22c-0.94,2.43-2,5.19-2.94,7.87
		c-0.62,1.78-1.23,3.67-1.27,5.55c-0.07,3.25,0.41,6.76,1.5,11.05c0.22,0.87,0.52,1.88,1.03,2.75c0.86,1.46,1.81,2.85,2.82,4.13
		c0.61,0.77,1.41,1.18,2.27,1.15c0.22-0.01,0.44-0.04,0.65-0.1c0.23-0.07,0.47-0.14,0.7-0.22c0.67-0.23,1.32-0.51,1.86-0.92
		c1.06-0.81,2.08-1.7,3.08-2.58c0.57-0.5,1.15-1,1.73-1.49c1.69-1.41,3.42-2.84,5.09-4.21l1.06-0.87c0.42-0.34,0.84-0.68,1.27-1.01
		c0.8-0.63,1.7-1.34,2.51-2.09c1.67-1.56,1.94-3.11,0.87-5.02c-0.75-1.35-0.99-2.51-0.75-3.67c0.45-2.11,0.23-4.04-0.67-5.88
		l2.54-0.53c2.68-0.56,4.91-1.03,7.22-1.55c1.41-0.32,2.89-0.76,4.4-1.3c1.4-0.51,2.19-1.68,2.1-3.14
		c-0.05-0.82-0.38-1.61-0.71-2.37l-0.11-0.26c-0.19-0.45-0.43-0.88-0.66-1.3c-0.16-0.29-0.35-0.62-0.51-0.96
		c-1.1-2.34-1.64-4.81-2.12-7.82l-0.15-0.99C284.73,199.37,284.25,196.22,282.88,193.3z M228.11,239.12
		c0.01-0.13,0.01-0.27,0.01-0.39c-0.03-3.54-1.13-6.75-3.38-9.83c-1.74-2.37-3.25-4.55-4.1-7.17c-0.74-2.27-0.43-3.97,0.99-5.34
		l1.57-1.52c1.77-1.71,3.6-3.48,5.43-5.17c0.07-0.07,0.18-0.12,0.32-0.17c0.21-0.07,0.49-0.12,0.81-0.13l0.13,0
		c2.1,0,4.39,0.26,7.2,0.8c1.69,0.33,3.51,0.33,5.55-0.01c1.34-0.22,2.67-0.33,4.09-0.44l0.3-0.03c0.37-0.03,0.74-0.06,1.12-0.09
		c-0.09,0.36-0.32,0.59-0.77,0.76c-3.51,1.39-5.5,4.13-6.09,8.35c-0.41,2.91-1.3,5.46-2.72,7.8c-0.87,1.43-1.58,2.98-2.27,4.47
		c-0.32,0.7-0.65,1.42-0.99,2.11c-1.11,2.25-2.25,4.59-4.25,6.34l-0.17,0.16c-0.07,0.07-0.15,0.14-0.23,0.2l-0.09,0.07
		c-0.71,0.52-1.32,0.98-2.06,0.59C228.08,240.25,228.08,239.83,228.11,239.12z M246.55,207.66L246.55,207.66
		c-1.22-0.01-2.44,0.15-3.62,0.3l-0.1,0.01c-1.74,0.22-3.54,0.46-5.31,0.15c-0.43-0.07-0.85-0.16-1.28-0.25
		c-0.74-0.15-1.5-0.31-2.27-0.39c-0.98-0.1-1.98-0.14-2.94-0.17l-0.11,0c-0.59-0.02-1.17-0.04-1.76-0.08
		c-2.71-0.16-5.17-0.86-7.32-2.06c-1.13-0.64-1.3-1.3-0.63-2.53c1.12-2.06,2.38-4.39,3.52-6.71c0.66-1.34,1.3-2.72,1.93-4.08
		c0.61-1.33,1.22-2.63,1.83-3.88c0.6-1.23,1.32-2.49,2.48-3.4c0.42-0.33,0.82-0.55,1.2-0.68c0.25-0.08,0.49-0.13,0.73-0.14
		c0.5-0.01,0.99,0.13,1.5,0.45c1.74,1.08,3.64,1.66,5.44,2.15c2.35,0.65,3.78,2.65,4.65,4.1c0.87,1.45,1.55,3.05,2.2,4.61l0.28,0.65
		c0.59,1.4,1.13,2.79,1.7,4.26l0.08,0.22c0.11,0.27,0.21,0.55,0.32,0.83l-5.47-3.28c-0.13-0.08-0.25-0.16-0.39-0.24
		c-0.31-0.2-0.64-0.41-0.99-0.55c-0.29-0.12-1.15-0.24-1.36,0.17c-0.21,0.42-0.15,0.96-0.04,1.3c0.1,0.31,0.43,0.49,0.68,0.64
		l0.09,0.05c0.53,0.31,1.07,0.6,1.61,0.9l0.06,0.03c1.2,0.66,2.44,1.34,3.58,2.12c0.62,0.43,1.14,1.08,1.65,1.72
		c0.2,0.26,0.41,0.51,0.61,0.75c0.02,0.05,0.02,0.24,0.02,0.32c0,0.09-0.03,0.2-0.05,0.33l-0.04,0.17
		C248.77,207.02,248.01,207.68,246.55,207.66z M224.15,210.9c-1.06-0.93-2.31-2.08-3.05-3.57l5.13,1.78L224.15,210.9z
		 M286.74,214.52c0.09,0.15,0.13,0.35,0.18,0.57l-0.03,0.03c-0.2,0.07-0.39,0.13-0.54,0.11c-2.67-0.34-5.19,0.28-7.76,1.01
		c-2.09,0.59-4.46,1.27-6.93,1.43c-2.99,0.2-5.43-1.07-7.21-2.2c-0.68-0.43-1.32-0.95-1.94-1.45c-0.52-0.42-1.05-0.85-1.62-1.24
		c-0.68-0.46-1.38-0.84-2.12-1.25c-0.25-0.14-0.5-0.27-0.76-0.41c0.08-0.31,0.17-0.62,0.26-0.97c0.28-1.06,0.56-2.15,0.96-3.19
		c0.1-0.26,0.64-0.59,1.29-0.79c0.89-0.27,1.85-0.42,2.81-0.57l0.42-0.06c0.41-0.05,1.18-0.16,1.12-1.05
		c-0.02-0.34-0.15-0.61-0.39-0.79c-0.37-0.29-0.86-0.27-1.21-0.21c-1.05,0.18-2.1,0.41-3.1,0.63l-0.94,0.2
		c-0.06-0.44,0.18-0.86,0.59-1.4c0.72-0.94,1.42-2.01,2.21-3.36c0.89-1.54,2.1-2.7,3.78-3.64c2.34-1.31,4.94-1.87,7.47-2.4
		c0.72-0.15,1.44-0.31,2.16-0.48c1-0.24,2.08-0.42,3.41-0.58c0.77-0.1,1.32,0.25,1.78,1.12c1.26,2.42,1.75,5.13,2.18,7.54
		c0.13,0.71,0.25,1.43,0.37,2.15c0.25,1.48,0.51,3.02,0.83,4.52C284.49,210.08,285.39,212.28,286.74,214.52z M272.56,232.88
		l0.02,0.04c0.76,1.66,0.76,1.66-0.56,2.93c-0.64,0.61-1.36,1.17-2.06,1.71l-0.11,0.09c-0.34,0.27-0.68,0.53-1.01,0.8l-0.59,0.48
		c-2.02,1.65-3.99,3.27-5.95,4.91c-0.61,0.51-1.21,1.03-1.81,1.54l0.12,0.14l-0.16-0.11c-0.87,0.75-1.78,1.53-2.69,2.27
		c-0.37,0.3-0.89,0.53-1.56,0.71c-0.23,0.06-0.62-0.01-0.82-0.16c-0.41-0.31-0.8-0.73-1.27-1.34c-1.55-2.02-2.5-4.48-2.91-7.51
		c-0.31-2.3-0.66-5.02-0.89-7.75c-0.13-1.57,0.45-3.06,1-4.51c0.11-0.28,0.22-0.56,0.32-0.85c0.57-1.55,1.17-3.11,1.76-4.63
		l0.09-0.22l-0.17-0.07l0.19,0.03c0.55-1.42,1.11-2.88,1.65-4.33c0.21-0.58,0.38-1.19,0.53-1.74c0.14-0.5,0.28-1.03,0.46-1.52
		c0.04-0.11,0.21-0.25,0.38-0.38l0.07-0.06c0.17,0.16,0.34,0.31,0.51,0.46l0.08,0.07c0.55,0.49,1.06,0.96,1.53,1.46
		c2.48,2.68,5.21,4.96,8.12,6.76c0.92,0.57,2.05,0.76,3.15,0.95l0.21,0.04c0.91,0.15,1.41,0.54,1.5,1.15l0.06,0.4
		c0.15,1.05,0.31,2.14,0.12,3.11C271.53,229.47,271.75,231.09,272.56,232.88z M251.69,204.04
		C251.69,204.04,251.69,204.04,251.69,204.04c0.05-0.06,0.13-0.11,0.24-0.15c0.12-0.04,0.27-0.06,0.45-0.08
		c0.61-0.04,1.23-0.06,1.84-0.08c0.71-0.03,1.42-0.06,2.14-0.1l0.06,0c0.26-0.01,0.44,0.05,0.55,0.16c0.11,0.12,0.16,0.31,0.14,0.59
		c-0.08,1-0.2,2.01-0.32,3l-0.11,0.91c-0.11,0.03-0.21,0.12-0.25,0.25c-0.05,0.17-0.1,0.34-0.15,0.51c-0.12,0.38-0.24,0.77-0.3,1.17
		c-0.16,0.92-0.75,1.65-1.66,2.05c-1.13,0.51-2.61,0.44-3.59-0.18c-0.65-0.41-0.61-1.22-0.46-1.83c0.22-0.9,0.48-1.81,0.73-2.68
		l0.01-0.05c0.17-0.57,0.33-1.15,0.49-1.72c0.1-0.36,0.19-0.79,0.12-1.19C251.58,204.34,251.6,204.15,251.69,204.04z M265.42,218.51
		c2.88,1.48,6.14,1.73,10.21,0.82c0.89-0.2,1.77-0.46,2.62-0.72c0.6-0.18,1.23-0.37,1.87-0.53c1.95-0.51,4.01-0.97,6.11-0.69
		c-0.81,0.4-1.69,0.7-2.72,0.92c-1.03,0.22-2.07,0.44-3.14,0.67c-2.42,0.51-4.92,1.04-7.37,1.61c-1.93,0.45-3.96,0.68-5.78-0.68
		c-0.62-0.46-1.11-0.84-1.54-1.19C265.59,218.65,265.51,218.58,265.42,218.51z"/>
	<g>
		<path class="st0" d="M33.16,111.21c-0.28-0.39-0.65-0.73-1.11-1c-1.32-0.77-2.95-0.66-4.2,0.2c-0.11,0.07-0.22,0.15-0.33,0.22
			c-0.04-0.11-0.07-0.22-0.11-0.34c-0.67-2.06-3.38-3.43-5.31-2.18c-0.63,0.41-1.09,1.05-1.37,1.75c-0.55,1.36-0.49,2.86-0.34,4.29
			c0.15,1.51,0.43,3.01,0.7,4.5c0.35,1.87,0.69,3.75,1.04,5.62c0.05,0.29,0.17,0.86,0.54,0.86c0.27,0,0.61-0.43,0.81-0.58
			c2.28-1.73,4.38-3.76,6.52-5.67C31.95,117.14,35.17,114.04,33.16,111.21z"/>
	</g>
	<g>
		<path class="st0" d="M242.62,47.21c-0.47,0.09-0.94,0.29-1.38,0.59c-1.25,0.88-1.83,2.4-1.58,3.89c0.02,0.13,0.04,0.26,0.07,0.39
			c-0.12-0.01-0.23-0.03-0.35-0.04c-2.15-0.25-4.53,1.64-4.2,3.91c0.11,0.75,0.5,1.43,1.01,1.98c1.01,1.06,2.4,1.64,3.75,2.1
			c1.44,0.49,2.91,0.87,4.38,1.24c1.85,0.47,3.69,0.94,5.54,1.41c0.28,0.07,0.85,0.21,1.01-0.13c0.11-0.25-0.13-0.73-0.19-0.98
			c-0.62-2.79-1.59-5.55-2.43-8.3C247.5,50.78,246.04,46.56,242.62,47.21z"/>
	</g>
	<g>
		<path class="st0" d="M215.38,270.4c-0.11-0.47-0.32-0.93-0.64-1.35c-0.92-1.22-2.47-1.74-3.95-1.44
			c-0.13,0.03-0.26,0.05-0.39,0.08c0.01-0.12,0.02-0.23,0.03-0.35c0.18-2.16-1.79-4.47-4.06-4.07c-0.74,0.13-1.41,0.54-1.94,1.08
			c-1.03,1.04-1.55,2.45-1.97,3.82c-0.45,1.45-0.77,2.94-1.09,4.42c-0.41,1.86-0.81,3.72-1.22,5.59c-0.06,0.29-0.18,0.86,0.17,1
			c0.25,0.1,0.73-0.16,0.97-0.22c2.77-0.72,5.49-1.77,8.21-2.71C211.97,275.39,216.14,273.79,215.38,270.4z"/>
	</g>
	<g>
		<path class="st0" d="M71.5,263.52c0.37,0.3,0.82,0.53,1.34,0.67c1.47,0.39,3.02-0.15,3.99-1.3c0.09-0.1,0.17-0.2,0.26-0.3
			c0.06,0.1,0.13,0.2,0.19,0.29c1.19,1.8,4.17,2.41,5.7,0.69c0.5-0.56,0.77-1.3,0.86-2.05c0.17-1.46-0.29-2.89-0.81-4.22
			c-0.55-1.42-1.21-2.78-1.87-4.15c-0.83-1.72-1.66-3.43-2.49-5.15c-0.13-0.26-0.39-0.79-0.75-0.69c-0.26,0.07-0.48,0.57-0.63,0.78
			c-1.74,2.28-3.22,4.79-4.78,7.2C71.1,257.49,68.81,261.33,71.5,263.52z"/>
	</g>
	<g>
		<path class="st0" d="M279.04,141.4c-0.43-0.22-0.91-0.36-1.45-0.38c-1.52-0.08-2.92,0.76-3.65,2.09
			c-0.06,0.12-0.13,0.23-0.19,0.35c-0.08-0.08-0.17-0.17-0.25-0.25c-1.53-1.53-4.57-1.52-5.72,0.48c-0.38,0.65-0.5,1.43-0.43,2.18
			c0.13,1.46,0.87,2.77,1.65,3.97c0.82,1.28,1.75,2.48,2.67,3.69c1.16,1.51,2.32,3.02,3.48,4.53c0.18,0.23,0.54,0.69,0.87,0.52
			c0.24-0.12,0.35-0.66,0.46-0.89c1.24-2.58,2.19-5.34,3.23-8.02C280.66,147.23,282.12,143.01,279.04,141.4z"/>
	</g>
</g>
</svg>
