<?xml version="1.0" encoding="utf-8"?>
<!-- Generator: Adobe Illustrator 15.1.0, SVG Export Plug-In . SVG Version: 6.00 Build 0)  -->
<!DOCTYPE svg PUBLIC "-//W3C//DTD SVG 1.1//EN" "http://www.w3.org/Graphics/SVG/1.1/DTD/svg11.dtd">
<svg version="1.1" id="Layer_1" xmlns="http://www.w3.org/2000/svg" xmlns:xlink="http://www.w3.org/1999/xlink" x="0px" y="0px"
	 width="500px" height="500px" viewBox="0 0 500 500" enable-background="new 0 0 500 500" xml:space="preserve">
<g>
	<path fill="#010101" d="M432.629,283.69c23.533,0,42.61,19.077,42.61,42.612c0,23.531-19.077,42.612-42.61,42.612
		c-23.536,0-42.611-19.081-42.611-42.612C390.018,302.768,409.093,283.69,432.629,283.69z"/>
	<path fill="#010101" d="M114.169,283.69c23.531,0,42.609,19.077,42.609,42.612c0,23.531-19.078,42.612-42.609,42.612
		c-23.535,0-42.612-19.081-42.612-42.612C71.557,302.768,90.635,283.69,114.169,283.69z"/>
	<path fill="#FFFFFF" d="M432.629,309.146c-9.461,0-17.155,7.696-17.155,17.157c0,9.459,7.694,17.155,17.155,17.155
		c9.458,0,17.154-7.696,17.154-17.155C449.785,316.842,442.087,309.146,432.629,309.146z"/>
	<path fill="#BE202E" d="M432.629,305.783c-11.317,0-20.521,9.205-20.521,20.52c0,11.315,9.204,20.52,20.521,20.52
		c11.312,0,20.521-9.204,20.521-20.52C453.15,314.988,443.941,305.783,432.629,305.783z M432.629,343.458
		c-9.461,0-17.155-7.696-17.155-17.155c0-9.461,7.694-17.157,17.155-17.157c9.458,0,17.154,7.696,17.154,17.157
		C449.785,335.762,442.087,343.458,432.629,343.458z"/>
	<path fill="#FFFFFF" d="M114.169,309.146c-9.461,0-17.158,7.696-17.158,17.157c0,9.459,7.696,17.155,17.158,17.155
		c9.458,0,17.154-7.696,17.154-17.155C131.323,316.842,123.628,309.146,114.169,309.146z"/>
	<path fill="#BE202E" d="M114.169,305.783c-11.317,0-20.521,9.205-20.521,20.52c0,11.315,9.206,20.52,20.521,20.52
		c11.313,0,20.521-9.204,20.521-20.52C134.69,314.988,125.482,305.783,114.169,305.783z M114.169,343.458
		c-9.461,0-17.158-7.696-17.158-17.155c0-9.461,7.696-17.157,17.158-17.157c9.458,0,17.154,7.696,17.154,17.157
		C131.323,335.762,123.628,343.458,114.169,343.458z"/>
	<path fill="#010101" d="M273.285,362.187c116.801,0,211.486,3.01,211.486,6.729c0,3.713-94.686,6.726-211.486,6.726
		c-116.799,0-211.486-3.013-211.486-6.726C61.799,365.196,156.486,362.187,273.285,362.187z"/>
	<path fill="#BE202E" d="M42.882,318.297c-6.267-10.448,1.248-26.777,11.908-37.508c10.454-10.522,31.759-16.555,58.455-16.555
		c21.368,0,42.492,3.953,52.565,9.84c17.472,10.206,14.516,41.213,13.096,56.111l-0.003,0.05l70.611,0.401v-76.101
		c0-8.231,4.385-13.819,8.73-15.706l0.521,1.196c-0.377-5.353,0.281-18.488,0.281-22.718c0-4.933,0.351-10.095,2.491-11.211
		c2.916-1.524,21.28-1.348,27.559-1.348c0,0,16.15-0.896,22.877,2.692c6.728,3.588,15.25,17.493,19.735,23.817
		c2.274,3.207,3.389,6.145,3.356,8.5l0.821-0.596c3.176,4.372,6.68,9.792,8.032,18.813c1.334,8.883,0.084,69.699,0.015,73.199
		l2.5,0.014c-0.429-12.331,2.313-33.871,5.124-43.088c4.172-13.682,25.253-20.783,42.207-24.33
		c6.235-1.306,16.521-1.968,30.57-1.968c12.734,0,26.142,0.539,35.974,1.058c-3.052-10.909-18.374-17.441-44.726-18.64
		c0,0-52.029-2.244-57.861-2.244c-8.071-3.139-12.11-10.766-13.903-13.456c-1.793-2.691-12.559-24.22-27.358-31.398
		c-10.957-3.304-35.884-2.691-35.884-2.691c-7.178,0-30.5,0-35.883,0s-10.766,8.97-10.766,11.662c0,2.17,0,82.242,0,113.145H223.16
		c0-11.807,0-54.374,0-59.599c0-5.99-7.41-3.804-10.627-3.744V246h4.012c2.986,0,5.409-1.166,5.409-2.606s-2.422-2.606-5.409-2.606
		h-4.012v-7.652h4.012c2.986,0,5.409-1.167,5.409-2.608c0-1.439-2.422-2.607-5.409-2.607H24.992c-2.987,0-5.408,1.168-5.408,2.607
		c0,1.441,2.421,2.608,5.408,2.608h4.538v7.652h-4.538c-2.987,0-5.408,1.166-5.408,2.606S22.004,246,24.992,246h4.538v9.607
		c-4.667-0.043-7.447-0.092-7.761-0.149c-2.689-0.491-6.278,4.603-3.587,7.662c2.691,3.063,5.83,6.585,7.178,5.29
		c0,5.224-0.75,37.649-0.195,46.428c-0.916,0.187-1.641,0.443-2.106,0.798c-3.531,2.692-5.887,11.214,0,13.454
		c5.886,2.245,24.725,0,28.763,0c-0.088-0.205-0.161-0.416-0.238-0.625C48.268,325.698,45.23,322.215,42.882,318.297z
		 M207.824,255.9c-12.38,0.005-47.898,0.005-84.63-0.03v-9.868h84.63V255.9z M207.824,240.787h-84.63v-7.652h84.63V240.787z
		 M34.914,233.135h83.427v7.652H34.914V233.135z M34.914,246.002h83.427v9.864c-32.777-0.033-65.751-0.095-83.427-0.213V246.002z"/>
	<path fill="#BE202E" d="M331.708,244.668c-4.485,1.795-64.141,0-65.936,0s-5.831,0-6.727-2.692
		c-0.088-0.265-0.158-0.67-0.218-1.188c-3.555,1.676-7.296,6.616-7.296,13.749v76.11l90.38,0.517
		c0.041-1.942,1.315-64.199,0.013-72.89c-1.199-7.985-4.188-13.023-7.045-17.054C334.474,242.787,333.419,243.983,331.708,244.668z"
		/>
	<path fill="#BE202E" d="M346.537,333.208l-167.826-0.955c-0.171,1.867-0.289,3.365-0.289,4.365v4.368l170.104-0.426
		c-0.394-0.554-0.737-1.168-1.015-1.858C347.019,337.471,346.705,335.564,346.537,333.208z"/>
	<path fill="#BE202E" d="M164.792,275.817c-9.792-5.725-30.507-9.564-51.547-9.564c-26.159,0-46.944,5.817-57.021,15.958
		c-9.864,9.93-17.286,25.587-11.61,35.049c5.394,8.996,14.92,15.78,22.159,15.78c3.47,0,5.984-1.512,7.476-4.498
		c0.736-1.475,1.46-3.186,2.227-4.999c4.701-11.114,11.803-27.908,39.472-28.304c0.232,0,0.466-0.002,0.697-0.002
		c28.172,0,36.517,24.104,40.999,37.055c0.532,1.535,0.991,2.86,1.419,3.959c1.858,4.746,6.179,6.438,9.603,6.438
		c2.101,0,4.049-0.593,5.477-1.664c1.031-0.774,2.259-2.166,2.259-4.407c0-1.438,0.218-3.726,0.496-6.623
		C178.279,315.513,181.151,285.373,164.792,275.817z"/>
	<path fill="#BE202E" d="M488.552,298.837c3.717,0,6.729-2.62,6.729-5.852v-11.515c0-3.232-3.013-5.854-6.729-5.854
		c-0.371,0-0.731,0.032-1.086,0.082c-0.687,0.098-1.343,0.284-1.944,0.551c-0.173-2.809-0.457-4.766-0.888-5.416
		c-2.526-3.788-4.889-4.622-10.28-5.071c-3.834-0.319-27.947-1.94-50.02-1.94c-13.909,0-24.057,0.646-30.156,1.922
		c-23.208,4.858-37.66,13.008-40.69,22.946c-3.729,12.229-6.719,42.727-4.101,49.264c2.22,5.557,10.254,5.446,14.721,5.36
		c0.498-0.009,0.955-0.017,1.354-0.017c0.449,0,0.981,0.021,1.582,0.043c4.842,0.19,13.975,0.627,18.661-9.129
		c0.937-1.95,1.84-4.563,2.887-7.59c4.879-14.107,13.043-37.728,42.599-38.502c0.521-0.014,1.036-0.022,1.547-0.022
		c22.072,0,37.224,12.983,42.657,36.562l0.026,0.106c0.774,3.356,4.502,7.332,6.877,7.332c1.76,0,2.112-2.744,2.168-4.377
		c0.017-0.543,0.045-1.271,0.082-2.146c0.599,0.244,1.269,0.437,1.996,0.56c0.633,0.108,1.309,0.168,2.008,0.168
		c3.717,0,6.727-1.646,6.727-3.676v-7.228c0-2.028-3.01-3.674-6.727-3.674c-0.483,0-0.955,0.028-1.405,0.08
		c0.174-4.522,0.323-8.907,0.434-13.034C487.898,298.811,488.222,298.837,488.552,298.837z"/>
	<path fill-rule="evenodd" clip-rule="evenodd" fill="#BE202E" d="M120.609,149.895c6.123-11.148,13.805-22.366,30.391-22.298
		c18.646,0.078,28.524,15.669,29.918,33.046c0.904,11.269-3.209,19.664-8.456,25.49c-7.537,8.375-19.055,13.283-28.472,20.158
		c-9.699,7.082-17.738,14.934-23.244,25.192c-7.237-12.777-18.682-22.209-31.841-30.432c-14.34-8.959-30.404-17.247-28.456-40.435
		c1.535-18.28,10.024-29.527,26.618-33.523c1.176-0.285,4.053-0.404,5.965-0.214C107.385,128.31,115.549,138.974,120.609,149.895z"
		/>
	<path fill="#BE202E" d="M161.302,213.402c-0.049-0.302-0.089-0.552-0.132-0.788c0.154-0.066,0.273-0.156,0.306-0.13
		c0.452,0.316,0.932,0.336,1.434,0.159c0.582-0.207,0.812-0.771,0.538-1.32c-0.399-0.796-1.211-1.13-2.057-0.851
		c-1.245,0.406-1.839,1.659-1.458,2.925c0.635,2.098,2.918,3.568,5.241,3.142c1.679-0.31,3.234-0.829,4.601-1.931
		c1.089-0.881,2.379-1.513,3.392-2.504c0.358-0.347,0.701-0.716,0.989-1.12c1.163-1.629,2.336-3.247,3.438-4.917
		c0.854-1.284,1.6-2.636,2.122-4.101c0.244-0.681,0.481-1.368,0.771-2.03c0.543-1.239,0.612-2.556,0.691-3.872
		c0.053-0.909-0.228-1.71-0.803-2.4c-0.498-0.59-1.03-1.15-1.546-1.728c-0.444-0.497-1.047-0.719-1.642-0.934
		c-1.326-0.467-2.71-0.536-4.006-0.058c-2.086,0.764-3.504,2.483-3.516,4.677c0,0.307,0.075,0.631,0.18,0.923
		c0.145,0.38,0.343,0.741,0.537,1.104c0.6,1.122,1.574,1.583,2.812,1.554c0.27-0.009,0.54-0.073,0.814-0.087
		c0.437-0.021,0.803-0.192,1.057-0.534c0.323-0.435,0.667-0.873,0.891-1.361c0.381-0.832,0.071-1.521-0.754-1.875
		c-0.125-0.054-0.254-0.098-0.385-0.144c-0.644-0.225-1.049-0.129-1.301,0.317c-0.294,0.514-0.174,0.894,0.405,1.349l0.168,0.19
		c-0.015,0.091,0.006,0.208-0.041,0.263c-0.309,0.325-0.613,0.743-1.138,0.557c-0.49-0.177-0.538-0.65-0.635-1.116
		c-0.201-0.954-0.027-1.806,0.505-2.594c0.322-0.471,0.755-0.719,1.358-0.794c1.509-0.179,2.485,0.452,3.218,1.741
		c0.936,1.64,0.484,3.399-0.338,4.473c-0.191,0.248-0.444,0.452-0.635,0.698c-0.514,0.649-1.214,0.94-2.006,0.974
		c-0.765,0.032-1.553,0.076-2.296-0.082c-0.693-0.149-1.333-0.542-1.992-0.844c-0.696-0.316-1.169-0.849-1.451-1.555
		c-0.509-1.276-0.856-2.596-0.771-3.976c0.077-1.212,0.676-2.249,1.328-3.248c0.456-0.702,1.077-1.25,1.829-1.591
		c1.067-0.484,2.143-1.005,3.373-0.962c0.179,0.005,0.367-0.023,0.536-0.073c1.067-0.322,2.061-0.042,3.05,0.346
		c1.633,0.642,2.787,1.85,3.754,3.237c0.577,0.83,0.729,1.837,0.793,2.842c0.005,0.121,0.075,0.233,0.161,0.479
		c0.204-0.306,0.376-0.5,0.484-0.729c0.618-1.315,1.169-2.667,1.848-3.948c0.619-1.162,1.364-2.254,2.073-3.366
		c0.853-1.334,1.668-2.699,2.603-3.977c1.078-1.465,2.24-2.861,3.409-4.251c1.438-1.715,3.237-3.028,4.942-4.462
		c1.58-1.326,3.329-2.362,5.114-3.344c1.629-0.89,3.29-1.732,5.142-2.141c1.141-0.254,2.235-0.724,3.351-1.085
		c0.213-0.07,0.437-0.113,0.66-0.146c2.693-0.393,5.33-0.121,7.962,0.562c3.998,1.039,7.33,3.125,10.022,6.225
		c1.037,1.197,2.154,2.369,2.637,3.938c0.449,1.473,0.897,2.951,1.272,4.443c0.565,2.237,0.353,4.514,0.238,6.776
		c-0.029,0.498-0.181,0.988-0.301,1.47c-0.424,1.627-0.767,3.265-1.615,4.761c-1.483,2.617-3.057,5.158-5.344,7.168
		c-1.476,1.297-3.094,2.366-5.035,2.861c-1.887,0.488-3.766,0.537-5.632-0.119c-0.211-0.073-0.417-0.169-0.618-0.273
		c-1.691-0.863-3.329-1.811-4.529-3.396c-0.438,0.055-0.844,0.066-1.232,0.159c-1.782,0.425-3.535,0.169-5.242-0.317
		c-0.723-0.205-1.345-0.746-2.027-1.112c-0.315-0.168-0.652-0.377-0.988-0.396c-1.993-0.093-3.493-1.158-4.9-2.417
		c-0.235-0.214-0.484-0.422-0.664-0.681c-0.173-0.251-0.332-0.55-0.381-0.844c-0.079-0.531,0.129-1.082-0.102-1.611
		c0.241-1.064,0.502-2.158,1.294-2.937c0.794-0.785,1.664-1.531,2.777-1.873c0.243-0.073,0.531-0.104,0.776-0.047
		c0.19,0.046,0.414,0.223,0.495,0.4c0.128,0.275-0.042,0.527-0.288,0.688c-0.42,0.269-0.791,0.571-1.162,0.916
		c-0.823,0.763-1.16,1.74-1.396,2.746c-0.378,1.596,0.388,3.234,1.933,3.729c0.161,0.051,0.346,0.04,0.604,0.065
		c-0.048-0.327-0.047-0.6-0.139-0.843c-0.264-0.671-0.195-1.28,0.039-1.973c0.268-0.786,0.509-1.543,1.048-2.189
		c0.77-0.915,1.788-1.056,2.732-0.339c0.592,0.448,1.076,1.01,1.298,1.72c0.188,0.598,0.276,1.241,0.326,1.869
		c0.038,0.452-0.09,0.903-0.427,1.257c-0.49,0.526-0.982,1.054-1.495,1.607c0.5,0.569,1.257,0.687,1.939,0.831
		c0.881,0.191,1.803,0.223,2.71,0.253c0.389,0.012,0.785-0.149,1.226-0.241c-0.226-0.732-0.429-1.362-0.607-2.001
		c-0.452-1.609-0.238-3.13,0.547-4.603c0.359-0.679,0.635-1.377,1.269-1.9c0.927-0.76,2.805-1.11,4.08-0.222
		c0.832,0.579,1.261,1.359,1.31,2.272c0.109,2.003-0.264,3.885-1.784,5.385c-0.713,0.7-1.369,1.448-2.449,1.812
		c0.194,0.301,0.27,0.521,0.423,0.638c0.904,0.691,1.844,1.311,2.868,1.83c2.166,1.103,4.326,0.892,6.469,0.067
		c1.424-0.545,2.512-1.563,3.514-2.717c1.086-1.255,1.881-2.655,2.543-4.161c0.224-0.509,0.328-1.03,0.356-1.585
		c0.039-0.676,0.074-1.362,0.229-2.016c0.25-1.044,0.236-2.066-0.049-3.091c-0.34-1.227-0.623-2.47-1.031-3.675
		c-0.512-1.515-1.315-2.899-2.246-4.191c-1.209-1.673-2.775-2.977-4.396-4.242c-1.494-1.163-3.199-1.842-4.964-2.412
		c-0.909-0.294-1.831-0.562-2.768-0.734c-1.831-0.335-3.667-0.291-5.515-0.016c-1.49,0.223-2.952,0.528-4.356,1.065
		c-0.841,0.326-1.672,0.681-2.479,1.092c-1.622,0.822-3.3,1.544-4.795,2.596c-1.112,0.788-2.21,1.597-3.308,2.406
		c-0.181,0.133-0.347,0.296-0.496,0.466c-1.246,1.437-2.487,2.884-3.729,4.326c-0.088,0.104-0.196,0.193-0.265,0.309
		c-1.633,2.666-3.428,5.23-4.417,8.256c-0.474,1.459-1.239,2.82-1.86,4.233c-0.62,1.416-1.284,2.815-1.805,4.266
		c-0.366,1.01-1.028,1.81-1.581,2.685c-1.094,1.728-2.39,3.305-3.769,4.822c-0.916,1.004-1.738,2.092-2.715,3.046
		c-1.381,1.349-2.95,2.391-4.704,3.207c-0.922,0.434-1.865,0.635-2.861,0.705c-1.262,0.083-2.455-0.3-3.542-0.826
		c-0.979-0.469-1.731-1.333-2.07-2.425c-0.242-0.782-0.475-1.577-0.593-2.383c-0.239-1.618,0.601-3.279,1.996-4.018
		c0.694-0.366,1.471-0.628,2.208-0.234c0.859,0.459,1.557,1.126,1.703,2.171c0.027,0.213,0.013,0.458-0.061,0.66
		c-0.33,0.918-1.355,1.796-2.442,1.479C161.81,213.517,161.633,213.477,161.302,213.402z M211.17,200.444
		c0.862-0.178,1.44-0.705,2.027-1.171c0.97-0.775,1.703-1.725,2.044-2.968c0.154-0.556,0.106-1.074-0.019-1.6
		c-0.104-0.433-0.397-0.691-0.824-0.824c-1.095-0.336-2.645,0.235-3.165,1.266C210.378,196.843,210.101,198.579,211.17,200.444z
		 M202.932,198.874c1.196-0.278,1.446-1.429,1.443-2.369c-0.003-0.627-0.28-1.125-0.685-1.215c-0.569-0.128-0.972,0.186-1.272,0.605
		c-0.151,0.207-0.281,0.498-0.272,0.745C202.17,197.462,202.301,198.27,202.932,198.874z"/>
	<path fill="#BE202E" d="M203.566,167.287c-0.341-0.513-0.132-0.837,0.071-1.12c0.239-0.328,0.552-0.602,0.822-0.904
		c0.84-0.946,1.738-1.851,2.507-2.858c1.031-1.349,1.65-2.896,1.895-4.588c0.165-1.118,0.296-2.236,0.275-3.374
		c-0.017-0.581,0.132-1.174,0.285-1.74c0.542-1.979,2.41-2.244,3.672-1.689c1.33,0.58,2.191,1.589,2.324,3.104
		c0.06,0.749-0.184,1.431-0.466,2.102c-0.085,0.206-0.218,0.392-0.344,0.581c-1.338,1.986-2.737,3.931-4.507,5.569
		c-0.501,0.46-0.97,0.956-1.469,1.417C207.127,165.171,205.366,166.176,203.566,167.287z"/>
	<path fill="#BE202E" d="M194.096,172.828c-0.183-1.005,0.12-1.721,0.4-2.438c0.295-0.761,0.648-1.508,0.898-2.283
		c0.668-2.029,0.742-4.076,0.122-6.143c-0.297-1.004-0.66-1.978-1.083-2.931c-0.338-0.769-0.492-1.551-0.146-2.379
		c0.385-0.933,1.6-1.593,2.558-1.295c0.977,0.299,1.733,0.814,2.231,1.818c1.132,2.292,0.917,4.548,0.125,6.848
		c-0.472,1.379-1.004,2.728-1.829,3.939c-0.305,1.409-1.369,2.434-1.903,3.727c-0.149,0.371-0.432,0.7-0.714,0.993
		C194.646,172.802,194.375,172.772,194.096,172.828z"/>
	<path fill="#BE202E" d="M186.824,180.237c0.043-0.374,0.067-0.771,0.145-1.158c0.28-1.413-0.081-2.713-0.759-3.92
		c-0.732-1.298-1.61-2.519-2.308-3.837c-0.442-0.829-0.773-1.75-0.955-2.672c-0.26-1.346,0.809-2.311,2.157-2.011
		c1.473,0.328,2.649,1.071,3.393,2.476c1.34,2.526,1.464,5.098,0.424,7.731c-0.416,1.051-0.894,2.081-1.36,3.111
		C187.443,180.216,187.231,180.396,186.824,180.237z"/>
	<path fill="#BE202E" d="M78.935,214.555c-1.104,0.321-2.146-0.571-2.479-1.503c-0.074-0.205-0.088-0.452-0.06-0.668
		c0.146-1.06,0.855-1.735,1.727-2.202c0.747-0.403,1.537-0.133,2.24,0.239c1.414,0.746,2.267,2.432,2.023,4.073
		c-0.121,0.819-0.354,1.623-0.601,2.417c-0.345,1.108-1.107,1.986-2.1,2.462c-1.104,0.532-2.313,0.921-3.594,0.837
		c-1.011-0.069-1.968-0.276-2.903-0.714c-1.778-0.827-3.37-1.885-4.771-3.255c-0.991-0.968-1.826-2.071-2.754-3.089
		c-1.399-1.538-2.714-3.138-3.823-4.894c-0.562-0.887-1.234-1.697-1.604-2.723c-0.53-1.471-1.203-2.892-1.831-4.329
		c-0.631-1.433-1.407-2.813-1.888-4.292c-1.003-3.071-2.824-5.673-4.48-8.377c-0.071-0.118-0.181-0.209-0.271-0.312
		c-1.259-1.465-2.519-2.93-3.783-4.391c-0.149-0.171-0.318-0.335-0.502-0.471c-1.114-0.82-2.228-1.641-3.356-2.44
		c-1.517-1.068-3.219-1.8-4.865-2.634c-0.818-0.417-1.662-0.777-2.515-1.108c-1.425-0.546-2.908-0.855-4.419-1.08
		c-1.875-0.279-3.738-0.325-5.596,0.015c-0.95,0.173-1.886,0.447-2.808,0.745c-1.791,0.579-3.519,1.266-5.038,2.447
		c-1.645,1.283-3.231,2.605-4.457,4.302c-0.947,1.312-1.759,2.715-2.279,4.253c-0.415,1.222-0.701,2.483-1.045,3.73
		c-0.288,1.038-0.303,2.075-0.049,3.135c0.158,0.662,0.192,1.36,0.23,2.046c0.031,0.561,0.136,1.09,0.363,1.606
		c0.671,1.525,1.478,2.948,2.581,4.22c1.015,1.173,2.12,2.204,3.564,2.759c2.175,0.836,4.367,1.049,6.563-0.068
		c1.039-0.529,1.994-1.155,2.91-1.858c0.155-0.119,0.232-0.341,0.429-0.646c-1.096-0.371-1.761-1.129-2.486-1.839
		c-1.54-1.52-1.919-3.431-1.809-5.461c0.049-0.928,0.486-1.718,1.329-2.308c1.294-0.901,3.199-0.544,4.139,0.227
		c0.643,0.53,0.921,1.239,1.287,1.929c0.797,1.492,1.013,3.037,0.557,4.667c-0.18,0.649-0.389,1.291-0.617,2.03
		c0.448,0.093,0.85,0.259,1.244,0.245c0.921-0.031,1.855-0.063,2.749-0.256c0.693-0.148,1.46-0.264,1.968-0.843
		c-0.521-0.561-1.02-1.097-1.518-1.632c-0.341-0.359-0.471-0.816-0.433-1.274c0.051-0.637,0.141-1.29,0.33-1.897
		c0.225-0.717,0.717-1.289,1.317-1.745c0.96-0.725,1.992-0.583,2.773,0.347c0.546,0.653,0.791,1.422,1.062,2.219
		c0.237,0.703,0.308,1.321,0.04,2.001c-0.092,0.247-0.092,0.527-0.141,0.856c0.262-0.025,0.45-0.014,0.613-0.067
		c1.567-0.502,2.345-2.163,1.961-3.783c-0.238-1.02-0.581-2.01-1.415-2.785c-0.377-0.348-0.754-0.656-1.179-0.929
		c-0.25-0.163-0.421-0.419-0.293-0.697c0.083-0.18,0.311-0.359,0.503-0.408c0.25-0.057,0.542-0.026,0.788,0.049
		c1.128,0.345,2.011,1.103,2.816,1.898c0.803,0.792,1.069,1.899,1.313,2.98c-0.234,0.537-0.023,1.096-0.104,1.632
		c-0.047,0.301-0.21,0.604-0.385,0.86c-0.183,0.26-0.436,0.473-0.674,0.69c-1.428,1.278-2.949,2.357-4.971,2.453
		c-0.341,0.018-0.683,0.23-1.002,0.398c-0.692,0.373-1.322,0.921-2.056,1.13c-1.731,0.493-3.51,0.752-5.318,0.323
		c-0.395-0.094-0.807-0.107-1.25-0.161c-1.218,1.606-2.879,2.57-4.596,3.446c-0.203,0.105-0.413,0.201-0.626,0.276
		c-1.892,0.664-3.799,0.615-5.715,0.121c-1.969-0.504-3.608-1.589-5.109-2.905c-2.321-2.039-3.915-4.62-5.42-7.271
		c-0.86-1.52-1.208-3.18-1.637-4.833c-0.124-0.487-0.279-0.985-0.307-1.488c-0.116-2.297-0.333-4.606,0.24-6.877
		c0.382-1.511,0.836-3.013,1.295-4.507c0.488-1.592,1.62-2.781,2.671-3.994c2.734-3.146,6.113-5.262,10.17-6.315
		c2.67-0.693,5.345-0.971,8.077-0.572c0.226,0.036,0.454,0.079,0.67,0.148c1.13,0.367,2.242,0.844,3.399,1.103
		c1.88,0.414,3.564,1.269,5.217,2.171c1.811,0.996,3.585,2.049,5.188,3.393c1.73,1.454,3.555,2.787,5.015,4.527
		c1.185,1.409,2.365,2.827,3.458,4.312c0.949,1.295,1.774,2.68,2.641,4.036c0.718,1.128,1.472,2.234,2.101,3.412
		c0.69,1.3,1.249,2.673,1.876,4.007c0.11,0.23,0.285,0.431,0.492,0.74c0.086-0.248,0.158-0.364,0.163-0.486
		c0.065-1.02,0.22-2.042,0.806-2.884c0.981-1.406,2.15-2.632,3.807-3.283c1.004-0.396,2.011-0.678,3.094-0.355
		c0.173,0.054,0.363,0.082,0.544,0.077c1.249-0.043,2.339,0.484,3.423,0.977c0.762,0.345,1.391,0.903,1.854,1.614
		c0.661,1.014,1.269,2.067,1.347,3.296c0.088,1.399-0.266,2.739-0.782,4.033c-0.286,0.717-0.767,1.258-1.472,1.579
		c-0.667,0.306-1.317,0.705-2.021,0.856c-0.753,0.159-1.552,0.113-2.329,0.082c-0.803-0.033-1.515-0.329-2.036-0.986
		c-0.193-0.251-0.451-0.458-0.643-0.711c-0.836-1.088-1.292-2.873-0.343-4.537c0.744-1.308,1.733-1.949,3.264-1.764
		c0.613,0.075,1.052,0.325,1.378,0.803c0.54,0.798,0.716,1.665,0.513,2.631c-0.099,0.473-0.148,0.953-0.646,1.132
		c-0.532,0.189-0.841-0.234-1.153-0.565c-0.048-0.053-0.028-0.174-0.043-0.267l0.171-0.19c0.589-0.463,0.711-0.85,0.411-1.37
		c-0.255-0.452-0.666-0.552-1.32-0.321c-0.132,0.043-0.264,0.089-0.389,0.145c-0.838,0.36-1.152,1.059-0.765,1.903
		c0.226,0.495,0.575,0.938,0.903,1.38c0.258,0.348,0.63,0.521,1.074,0.54c0.277,0.015,0.552,0.08,0.826,0.089
		c1.255,0.031,2.245-0.438,2.852-1.576c0.196-0.366,0.397-0.734,0.543-1.122c0.108-0.294,0.184-0.624,0.184-0.936
		c-0.011-2.223-1.451-3.969-3.567-4.743c-1.314-0.485-2.719-0.415-4.064,0.059c-0.604,0.219-1.215,0.444-1.665,0.947
		c-0.524,0.585-1.063,1.155-1.568,1.752c-0.584,0.701-0.869,1.513-0.814,2.435c0.081,1.336,0.149,2.672,0.701,3.929
		c0.294,0.67,0.534,1.368,0.782,2.061c0.529,1.483,1.287,2.856,2.153,4.161c1.119,1.691,2.308,3.335,3.488,4.985
		c0.292,0.411,0.64,0.786,1.003,1.136c1.028,1.007,2.337,1.647,3.442,2.542c1.386,1.118,2.964,1.644,4.668,1.958
		c2.354,0.434,4.672-1.056,5.315-3.186c0.386-1.285-0.216-2.556-1.479-2.969c-0.858-0.282-1.684,0.059-2.088,0.865
		c-0.277,0.558-0.044,1.128,0.547,1.338c0.507,0.18,0.994,0.161,1.453-0.161c0.035-0.026,0.155,0.063,0.312,0.134
		c-0.043,0.238-0.084,0.491-0.135,0.798C79.289,214.467,79.111,214.504,78.935,214.555z M28.968,195.87
		c-0.527-1.046-2.099-1.627-3.211-1.285c-0.431,0.135-0.729,0.396-0.834,0.835c-0.128,0.536-0.175,1.06-0.021,1.624
		c0.346,1.261,1.089,2.228,2.075,3.011c0.596,0.472,1.182,1.009,2.056,1.188C30.121,199.353,29.838,197.59,28.968,195.87z
		 M38.189,197.387c0.009-0.251-0.122-0.547-0.276-0.757c-0.304-0.426-0.714-0.743-1.291-0.616c-0.411,0.092-0.692,0.599-0.695,1.232
		c-0.003,0.956,0.25,2.121,1.464,2.404C38.032,199.036,38.166,198.222,38.189,197.387z"/>
	<path fill="#BE202E" d="M36.749,167.606c0.346-0.521,0.134-0.849-0.072-1.135c-0.242-0.336-0.561-0.611-0.834-0.918
		c-0.854-0.961-1.763-1.879-2.543-2.9c-1.047-1.368-1.675-2.938-1.924-4.655c-0.167-1.134-0.299-2.268-0.278-3.422
		c0.015-0.588-0.135-1.189-0.29-1.764c-0.549-2.009-2.444-2.276-3.724-1.716c-1.349,0.59-2.224,1.612-2.357,3.149
		c-0.061,0.76,0.186,1.454,0.473,2.133c0.085,0.209,0.22,0.397,0.349,0.59c1.358,2.014,2.777,3.986,4.572,5.649
		c0.507,0.467,0.985,0.968,1.49,1.438C33.136,165.458,34.924,166.479,36.749,167.606z"/>
	<path fill="#BE202E" d="M46.355,173.225c0.187-1.02-0.122-1.745-0.405-2.472c-0.3-0.771-0.658-1.529-0.912-2.312
		c-0.677-2.062-0.752-4.136-0.123-6.234c0.301-1.02,0.668-2.006,1.098-2.974c0.343-0.78,0.498-1.574,0.147-2.414
		c-0.39-0.943-1.624-1.615-2.595-1.313c-0.992,0.305-1.759,0.827-2.263,1.846c-1.15,2.325-0.933,4.613-0.128,6.947
		c0.479,1.397,1.02,2.766,1.855,3.994c0.31,1.43,1.389,2.471,1.931,3.784c0.152,0.375,0.438,0.709,0.723,1.005
		C45.798,173.202,46.074,173.17,46.355,173.225z"/>
	<path fill="#BE202E" d="M53.733,180.743c-0.044-0.377-0.067-0.783-0.145-1.174c-0.284-1.433,0.081-2.752,0.77-3.978
		c0.742-1.318,1.633-2.555,2.341-3.891c0.448-0.84,0.785-1.777,0.968-2.711c0.264-1.365-0.82-2.343-2.188-2.039
		c-1.494,0.331-2.687,1.085-3.441,2.51c-1.361,2.562-1.486,5.172-0.431,7.844c0.423,1.065,0.906,2.11,1.381,3.156
		C53.106,180.723,53.321,180.904,53.733,180.743z"/>
</g>
</svg>
