<?xml version="1.0" encoding="utf-8"?>
<!-- Generator: Adobe Illustrator 15.1.0, SVG Export Plug-In . SVG Version: 6.00 Build 0)  -->
<!DOCTYPE svg PUBLIC "-//W3C//DTD SVG 1.1//EN" "http://www.w3.org/Graphics/SVG/1.1/DTD/svg11.dtd">
<svg version="1.1" id="Layer_1" xmlns="http://www.w3.org/2000/svg" xmlns:xlink="http://www.w3.org/1999/xlink" x="0px" y="0px"
	 width="500px" height="500px" viewBox="0 0 500 500" enable-background="new 0 0 500 500" xml:space="preserve">
<g>
	<path fill="#010101" d="M432.095,321.761c23.307,0,42.199,18.893,42.199,42.201c0,23.304-18.893,42.201-42.199,42.201
		c-23.308,0-42.198-18.897-42.198-42.201C389.896,340.653,408.787,321.761,432.095,321.761z"/>
	<path fill="#010101" d="M116.711,321.761c23.305,0,42.197,18.893,42.197,42.201c0,23.304-18.893,42.201-42.197,42.201
		c-23.308,0-42.201-18.897-42.201-42.201C74.511,340.653,93.403,321.761,116.711,321.761z"/>
	<path fill="#FFFFFF" d="M432.095,346.971c-9.369,0-16.989,7.622-16.989,16.991c0,9.367,7.62,16.989,16.989,16.989
		c9.367,0,16.989-7.622,16.989-16.989C449.086,354.593,441.462,346.971,432.095,346.971z"/>
	<path fill="#BE202E" d="M432.095,343.641c-11.207,0-20.323,9.115-20.323,20.321c0,11.205,9.116,20.321,20.323,20.321
		c11.204,0,20.323-9.116,20.323-20.321C452.418,352.756,443.299,343.641,432.095,343.641z M432.095,380.951
		c-9.369,0-16.989-7.622-16.989-16.989c0-9.369,7.62-16.991,16.989-16.991c9.367,0,16.989,7.622,16.989,16.991
		C449.086,373.329,441.462,380.951,432.095,380.951z"/>
	<path fill="#FFFFFF" d="M116.711,346.971c-9.371,0-16.993,7.622-16.993,16.991c0,9.367,7.622,16.989,16.993,16.989
		c9.367,0,16.987-7.622,16.987-16.989C133.699,354.593,126.079,346.971,116.711,346.971z"/>
	<path fill="#BE202E" d="M116.711,343.641c-11.209,0-20.323,9.115-20.323,20.321c0,11.205,9.118,20.321,20.323,20.321
		c11.202,0,20.321-9.116,20.321-20.321C137.033,352.756,127.913,343.641,116.711,343.641z M116.711,380.951
		c-9.371,0-16.993-7.622-16.993-16.989c0-9.369,7.622-16.991,16.993-16.991c9.367,0,16.987,7.622,16.987,16.991
		C133.699,373.329,126.079,380.951,116.711,380.951z"/>
	<path fill="#010101" d="M274.29,399.498c115.673,0,209.444,2.981,209.444,6.665c0,3.677-93.771,6.66-209.444,6.66
		c-115.672,0-209.443-2.983-209.443-6.66C64.847,402.479,158.618,399.498,274.29,399.498z"/>
	<path fill="#BE202E" d="M46.113,356.033c-6.208-10.348,1.234-26.519,11.792-37.146c10.354-10.42,31.452-16.395,57.89-16.395
		c21.161,0,42.083,3.915,52.059,9.745c17.302,10.107,14.375,40.815,12.967,55.57l-0.002,0.048l69.929,0.398v-75.366
		c0-8.151,4.343-13.686,8.646-15.554l0.516,1.183c-0.373-5.301,0.278-18.308,0.278-22.497c0-4.887,0.347-9.998,2.468-11.104
		c2.887-1.51,21.073-1.335,27.291-1.335c0,0,15.995-0.889,22.657,2.667c6.662,3.553,15.103,17.323,19.544,23.588
		c2.253,3.174,3.356,6.084,3.324,8.418l0.813-0.593c3.146,4.331,6.615,9.698,7.955,18.633c1.321,8.797,0.083,69.026,0.015,72.492
		l2.476,0.015c-0.425-12.213,2.291-33.544,5.075-42.672c4.131-13.55,25.009-20.583,41.799-24.096
		c6.175-1.293,16.362-1.948,30.275-1.948c12.611,0,25.89,0.533,35.626,1.047c-3.021-10.804-18.197-17.273-44.293-18.46
		c0,0-51.528-2.223-57.304-2.223c-7.993-3.108-11.993-10.661-13.769-13.324c-1.775-2.667-12.438-23.986-27.095-31.097
		c-10.851-3.271-35.537-2.665-35.537-2.665c-7.108,0-30.206,0-35.537,0c-5.331,0-10.662,8.882-10.662,11.549
		c0,2.149,0,81.448,0,112.053h-10.662c0-11.693,0-53.85,0-59.023c0-5.932-7.338-3.767-10.524-3.708v-9.8h3.973
		c2.957,0,5.355-1.154,5.355-2.581s-2.398-2.581-5.355-2.581h-3.973v-7.577h3.973c2.957,0,5.355-1.157,5.355-2.586
		c0-1.424-2.398-2.581-5.355-2.581H28.393c-2.958,0-5.355,1.157-5.355,2.581c0,1.429,2.397,2.586,5.355,2.586h4.495v7.577h-4.495
		c-2.958,0-5.355,1.154-5.355,2.581s2.397,2.581,5.355,2.581h4.495v9.516c-4.621-0.043-7.376-0.091-7.685-0.148
		c-2.665-0.486-6.218,4.559-3.553,7.588c2.664,3.034,5.773,6.522,7.108,5.239c0,5.173-0.743,37.286-0.193,45.979
		c-0.907,0.186-1.625,0.438-2.086,0.79c-3.497,2.666-5.83,11.106,0,13.324c5.83,2.224,24.487,0,28.485,0
		c-0.087-0.203-0.158-0.412-0.235-0.619C51.446,363.363,48.438,359.913,46.113,356.033z M209.462,294.239
		c-12.261,0.004-47.437,0.004-83.813-0.03v-9.773h83.813V294.239z M209.462,279.271h-83.813v-7.577h83.813V279.271z M38.219,271.694
		h82.623v7.577H38.219V271.694z M38.219,284.436h82.623v9.77c-32.46-0.032-65.118-0.094-82.623-0.211V284.436z"/>
	<path fill="#BE202E" d="M332.148,283.115c-4.441,1.777-63.521,0-65.298,0c-1.778,0-5.775,0-6.662-2.667
		c-0.088-0.262-0.156-0.663-0.216-1.177c-3.521,1.66-7.226,6.553-7.226,13.616v75.376l89.508,0.512
		c0.04-1.924,1.303-63.58,0.012-72.186c-1.188-7.908-4.147-12.898-6.977-16.891C334.889,281.252,333.843,282.438,332.148,283.115z"
		/>
	<path fill="#BE202E" d="M346.835,370.801l-166.205-0.946c-0.17,1.849-0.288,3.332-0.288,4.322v4.327l168.463-0.423
		c-0.39-0.548-0.73-1.156-1.004-1.84C347.312,375.021,347.001,373.134,346.835,370.801z"/>
	<path fill="#BE202E" d="M166.845,313.964c-9.698-5.67-30.214-9.473-51.051-9.473c-25.906,0-46.491,5.762-56.471,15.805
		c-9.769,9.834-17.119,25.339-11.498,34.711c5.343,8.908,14.777,15.627,21.944,15.627c3.438,0,5.928-1.497,7.405-4.454
		c0.729-1.461,1.447-3.155,2.206-4.951c4.655-11.007,11.688-27.639,39.092-28.031c0.227,0,0.46-0.002,0.69-0.002
		c27.898,0,36.162,23.873,40.602,36.698c0.527,1.52,0.982,2.833,1.404,3.92c1.843,4.7,6.121,6.376,9.512,6.376
		c2.08,0,4.01-0.586,5.424-1.647c1.021-0.767,2.236-2.145,2.236-4.365c0-1.424,0.217-3.688,0.491-6.559
		C180.2,353.275,183.045,323.427,166.845,313.964z"/>
	<path fill="#BE202E" d="M487.479,336.761c3.681,0,6.664-2.595,6.664-5.795v-11.403c0-3.202-2.983-5.797-6.664-5.797
		c-0.367,0-0.725,0.032-1.076,0.081c-0.68,0.098-1.329,0.282-1.926,0.546c-0.17-2.782-0.452-4.721-0.878-5.363
		c-2.502-3.753-4.842-4.578-10.182-5.022c-3.797-0.317-27.677-1.922-49.536-1.922c-13.775,0-23.824,0.639-29.865,1.903
		c-22.983,4.812-37.296,12.882-40.298,22.724c-3.693,12.111-6.654,42.314-4.061,48.788c2.198,5.504,10.154,5.395,14.578,5.309
		c0.493-0.008,0.946-0.016,1.342-0.016c0.444,0,0.972,0.02,1.566,0.042c4.795,0.188,13.84,0.621,18.48-9.04
		c0.928-1.932,1.822-4.52,2.859-7.517c4.832-13.972,12.917-37.363,42.188-38.13c0.515-0.015,1.026-0.022,1.531-0.022
		c21.86,0,36.864,12.857,42.246,36.208l0.026,0.105c0.768,3.324,4.458,7.261,6.811,7.261c1.743,0,2.092-2.717,2.146-4.334
		c0.017-0.538,0.045-1.259,0.081-2.125c0.593,0.241,1.257,0.433,1.977,0.554c0.627,0.108,1.297,0.167,1.989,0.167
		c3.681,0,6.662-1.63,6.662-3.641v-7.157c0-2.009-2.981-3.639-6.662-3.639c-0.479,0-0.946,0.028-1.393,0.079
		c0.173-4.479,0.321-8.821,0.431-12.908C486.831,336.734,487.151,336.761,487.479,336.761z"/>
	<path fill-rule="evenodd" clip-rule="evenodd" fill="#BE202E" d="M171.89,219.801c3.563-3.547,7.728-6.946,14.013-5.073
		c7.063,2.104,9.075,9.12,7.668,15.867c-0.912,4.377-3.407,7.103-6.046,8.728c-3.792,2.337-8.708,2.916-13.045,4.474
		c-4.469,1.607-8.393,3.691-11.625,6.969c-1.322-5.651-4.612-10.505-8.688-15.09c-4.442-4.996-9.614-9.931-6.292-18.509
		c2.618-6.764,7.091-10.086,13.831-9.751c0.479,0.022,1.583,0.296,2.288,0.583C169.276,210.14,171.187,215.093,171.89,219.801z"/>
	<path fill-rule="evenodd" clip-rule="evenodd" fill="#BE202E" d="M88.43,205.038c0.791-6.459,2.314-13.249,10.21-16.366
		c8.874-3.504,16.532,2.029,20.495,10.025c2.57,5.183,2.208,9.954,0.821,13.718c-1.992,5.412-6.534,9.932-9.704,14.984
		c-3.266,5.213-5.595,10.469-6.266,16.391c-5.866-4.696-13.096-7.009-20.91-8.417c-8.518-1.534-17.729-2.427-21.204-13.815
		c-2.743-8.978-0.843-15.938,6.286-20.987c0.506-0.359,1.85-0.964,2.795-1.234C78.043,197.292,83.95,200.809,88.43,205.038z"/>
	<path fill-rule="evenodd" clip-rule="evenodd" fill="#BE202E" d="M138.383,162.358c2.442-4.394,5.503-8.813,12.062-8.752
		c7.37,0.067,11.243,6.252,11.76,13.125c0.335,4.458-1.309,7.768-3.395,10.061c-2.997,3.296-7.56,5.211-11.298,7.91
		c-3.849,2.78-7.042,5.869-9.243,9.913c-2.833-5.065-7.339-8.819-12.523-12.097c-5.652-3.571-11.987-6.883-11.169-16.045
		c0.645-7.224,4.024-11.654,10.592-13.196c0.467-0.112,1.604-0.154,2.36-0.075C133.199,153.799,136.405,158.03,138.383,162.358z"/>
	<path fill-rule="evenodd" clip-rule="evenodd" fill="#BE202E" d="M79.257,149.288c0.26-4.385,1-9.024,6.188-11.458
		c5.831-2.735,11.223,0.67,14.229,5.887c1.951,3.387,1.91,6.615,1.133,9.209c-1.114,3.732-3.984,6.968-5.906,10.51
		c-1.979,3.645-3.327,7.285-3.53,11.303c-4.149-2.916-9.118-4.168-14.443-4.787c-5.802-0.675-12.046-0.887-14.867-8.413
		c-2.227-5.934-1.242-10.703,3.349-14.404c0.325-0.264,1.205-0.729,1.832-0.952C71.933,144.507,76.061,146.627,79.257,149.288z"/>
	<path fill-rule="evenodd" clip-rule="evenodd" fill="#BE202E" d="M196.945,174.126c3.275-2.912,7.067-5.67,12.446-3.732
		c6.047,2.178,7.455,8.383,5.901,14.185c-1.009,3.766-3.313,6.017-5.691,7.301c-3.414,1.853-7.72,2.117-11.573,3.261
		c-3.97,1.181-7.486,2.804-10.46,5.499c-0.875-4.986-3.503-9.373-6.827-13.563c-3.623-4.564-7.883-9.114-4.572-16.415
		c2.609-5.761,6.666-8.436,12.516-7.812c0.415,0.041,1.364,0.331,1.963,0.617C195.143,165.589,196.564,169.993,196.945,174.126z"/>
	<path fill-rule="evenodd" clip-rule="evenodd" fill="#BE202E" d="M53.764,181.781c0.229-2.338,0.719-4.804,3.541-5.997
		c3.173-1.341,5.984,0.588,7.484,3.438c0.972,1.849,0.885,3.574,0.415,4.945c-0.67,1.971-2.269,3.641-3.37,5.491
		c-1.131,1.912-1.927,3.829-2.116,5.972c-2.158-1.646-4.789-2.417-7.621-2.855c-3.086-0.481-6.418-0.723-7.771-4.799
		c-1.07-3.219-0.445-5.747,2.084-7.63c0.179-0.134,0.658-0.365,0.997-0.471C49.949,179.078,52.11,180.293,53.764,181.781z"/>
	<path fill-rule="evenodd" clip-rule="evenodd" fill="#BE202E" d="M38.968,239.355c-1.735-3.202-3.245-6.794-0.655-10.775
		c2.908-4.479,8.195-4.44,12.595-2.08c2.854,1.53,4.238,3.821,4.825,5.99c0.85,3.113,0.245,6.648,0.439,9.98
		c0.202,3.436,0.846,6.589,2.462,9.507c-4.2-0.239-8.248,1.054-12.269,2.944c-4.38,2.064-8.87,4.647-14.148,0.582
		c-4.165-3.205-5.557-6.994-3.943-11.609c0.113-0.327,0.527-1.039,0.873-1.471C31.719,239.193,35.55,238.878,38.968,239.355z"/>
	<path fill-rule="evenodd" clip-rule="evenodd" fill="#BE202E" d="M126.273,242.131c1.223-2.005,2.736-4.012,5.796-3.859
		c3.44,0.17,5.133,3.131,5.245,6.35c0.072,2.086-0.757,3.602-1.777,4.633c-1.46,1.483-3.625,2.292-5.422,3.48
		c-1.85,1.23-3.4,2.609-4.502,4.459c-1.228-2.422-3.262-4.26-5.623-5.885c-2.57-1.776-5.466-3.442-4.911-7.702
		c0.437-3.363,2.098-5.37,5.194-5.964c0.219-0.044,0.752-0.042,1.103,0.008C124.013,238.039,125.431,240.072,126.273,242.131z"/>
	<path fill-rule="evenodd" clip-rule="evenodd" fill="#BE202E" d="M208.856,242.949c1.747-1.568,3.771-3.058,6.66-2.033
		c3.247,1.15,4.018,4.473,3.202,7.587c-0.53,2.019-1.759,3.233-3.032,3.928c-1.824,1.001-4.131,1.155-6.192,1.778
		c-2.125,0.647-4.006,1.524-5.593,2.979c-0.481-2.674-1.902-5.018-3.696-7.251c-1.953-2.439-4.25-4.866-2.495-8.787
		c1.383-3.097,3.55-4.542,6.687-4.223c0.223,0.021,0.732,0.175,1.054,0.325C207.865,238.379,208.64,240.735,208.856,242.949z"/>
	<path fill-rule="evenodd" clip-rule="evenodd" fill="#BE202E" d="M219.621,208.847c1.133-0.992,2.443-1.934,4.29-1.254
		c2.074,0.763,2.545,2.9,1.997,4.893c-0.355,1.292-1.153,2.062-1.974,2.498c-1.179,0.629-2.661,0.71-3.989,1.094
		c-1.369,0.4-2.582,0.948-3.611,1.869c-0.289-1.719-1.183-3.232-2.318-4.679c-1.233-1.581-2.688-3.156-1.534-5.66
		c0.912-1.975,2.313-2.888,4.324-2.659c0.143,0.014,0.469,0.12,0.674,0.217C219.02,205.907,219.499,207.425,219.621,208.847z"/>
	<path fill-rule="evenodd" clip-rule="evenodd" fill="#BE202E" d="M183.401,140.089c1.748-1.568,3.771-3.058,6.66-2.033
		c3.247,1.15,4.018,4.473,3.202,7.587c-0.529,2.019-1.759,3.232-3.032,3.929c-1.824,1-4.13,1.155-6.192,1.778
		c-2.125,0.647-4.006,1.524-5.593,2.979c-0.48-2.673-1.902-5.017-3.696-7.251c-1.953-2.439-4.249-4.866-2.495-8.787
		c1.383-3.097,3.55-4.542,6.686-4.223c0.224,0.021,0.733,0.175,1.055,0.325C182.41,135.519,183.185,137.875,183.401,140.089z"/>
	<path fill-rule="evenodd" clip-rule="evenodd" fill="#BE202E" d="M115.028,123.67c1.407-1.877,3.103-3.734,6.136-3.29
		c3.408,0.495,4.812,3.604,4.619,6.818c-0.127,2.084-1.097,3.515-2.21,4.444c-1.594,1.337-3.828,1.936-5.728,2.949
		c-1.958,1.049-3.632,2.274-4.905,4.01c-0.993-2.529-2.844-4.55-5.037-6.393c-2.392-2.011-5.117-3.945-4.159-8.131
		c0.754-3.308,2.598-5.148,5.737-5.444c0.223-0.024,0.752,0.028,1.097,0.112C113.166,119.382,114.385,121.539,115.028,123.67z"/>
	<path fill-rule="evenodd" clip-rule="evenodd" fill="#BE202E" d="M41.88,147.522c0.028-1.507,0.214-3.109,1.959-4.018
		c1.96-1.021,3.858,0.069,4.963,1.814c0.717,1.132,0.749,2.24,0.52,3.142c-0.328,1.296-1.265,2.447-1.875,3.687
		c-0.626,1.283-1.037,2.549-1.048,3.929c-1.465-0.944-3.187-1.299-5.021-1.435c-2-0.15-4.144-0.134-5.219-2.673
		c-0.847-2.003-0.58-3.655,0.942-4.988c0.106-0.096,0.404-0.266,0.614-0.351C39.3,145.988,40.745,146.654,41.88,147.522z"/>
	<path fill-rule="evenodd" clip-rule="evenodd" fill="#BE202E" d="M17.868,186.482c-0.654-3.583-0.976-7.466,2.722-10.449
		c4.155-3.354,9.168-1.676,12.618,1.932c2.239,2.342,2.844,4.948,2.729,7.192c-0.16,3.223-1.831,6.396-2.68,9.625
		c-0.874,3.328-1.239,6.526-0.609,9.801c-3.917-1.532-8.167-1.558-12.578-1.006c-4.804,0.603-9.874,1.662-13.629-3.839
		c-2.965-4.339-3.113-8.373-0.146-12.259c0.209-0.276,0.825-0.824,1.287-1.126C11.027,184.076,14.769,184.969,17.868,186.482z"/>
	<path fill-rule="evenodd" clip-rule="evenodd" fill="#BE202E" d="M152.079,124.825c0.919-1.197,2.02-2.375,3.964-2.068
		c2.183,0.345,3.062,2.348,2.913,4.408c-0.096,1.337-0.729,2.249-1.449,2.835c-1.035,0.848-2.472,1.217-3.698,1.853
		c-1.267,0.66-2.349,1.433-3.178,2.537c-0.618-1.629-1.792-2.938-3.185-4.138c-1.52-1.309-3.254-2.569-2.61-5.25
		c0.508-2.114,1.706-3.285,3.722-3.452c0.143-0.014,0.483,0.026,0.703,0.081C150.916,122.057,151.683,123.451,152.079,124.825z"/>
	<path fill-rule="evenodd" clip-rule="evenodd" fill="#BE202E" d="M16.3,226.958c-0.622-1.376-1.141-2.902,0.047-4.473
		c1.333-1.761,3.514-1.591,5.26-0.489c1.134,0.716,1.64,1.705,1.816,2.616c0.26,1.311-0.091,2.753-0.11,4.136
		c-0.016,1.426,0.156,2.744,0.739,3.998c-1.729-0.225-3.437,0.193-5.15,0.856c-1.871,0.722-3.801,1.658-5.86-0.177
		c-1.625-1.443-2.093-3.05-1.29-4.909c0.056-0.132,0.251-0.412,0.404-0.583C13.312,226.679,14.903,226.658,16.3,226.958z"/>
	<path fill-rule="evenodd" clip-rule="evenodd" fill="#BE202E" d="M226.512,160.041c1.285-0.793,2.731-1.504,4.44-0.528
		c1.918,1.096,2.029,3.281,1.161,5.154c-0.565,1.216-1.48,1.843-2.36,2.137c-1.27,0.426-2.744,0.262-4.115,0.42
		c-1.418,0.168-2.705,0.507-3.871,1.244c0-1.741-0.633-3.383-1.511-4.998c-0.957-1.761-2.131-3.555-0.578-5.834
		c1.226-1.796,2.761-2.466,4.705-1.908c0.138,0.039,0.441,0.197,0.628,0.327C226.407,157.04,226.63,158.616,226.512,160.041z"/>
</g>
</svg>
