<?xml version="1.0" encoding="utf-8"?>
<!-- Generator: Adobe Illustrator 25.2.0, SVG Export Plug-In . SVG Version: 6.00 Build 0)  -->
<svg version="1.1" id="Layer_1" xmlns="http://www.w3.org/2000/svg" xmlns:xlink="http://www.w3.org/1999/xlink" x="0px" y="0px"
	 width="500px" height="500px" viewBox="0 0 500 500" style="enable-background:new 0 0 500 500;" xml:space="preserve">
<style type="text/css">
	.st0{fill:#010101;}
	.st1{fill:#FFFFFF;}
	.st2{fill:#BE202E;}
</style>
<g>
	<g>
		<circle class="st0" cx="433.8" cy="342.5" r="42.2"/>
	</g>
	<g>
		
			<ellipse transform="matrix(4.531443e-02 -0.999 0.999 4.531443e-02 -228.804 445.4939)" class="st0" cx="118.7" cy="342.5" rx="42.2" ry="42.2"/>
	</g>
	<g>
		<path class="st1" d="M433.8,325.5c-9.4,0-17,7.6-17,17c0,9.4,7.6,17,17,17c9.4,0,17-7.6,17-17
			C450.8,333.1,443.2,325.5,433.8,325.5z"/>
		<path class="st2" d="M433.8,322.1c-11.2,0-20.3,9.1-20.3,20.3s9.1,20.3,20.3,20.3c11.2,0,20.3-9.1,20.3-20.3
			C454.1,331.3,445,322.1,433.8,322.1z M433.8,359.4c-9.4,0-17-7.6-17-17c0-9.4,7.6-17,17-17c9.4,0,17,7.6,17,17
			C450.8,351.8,443.2,359.4,433.8,359.4z"/>
		<path class="st1" d="M118.7,325.5c-9.4,0-17,7.6-17,17c0,9.4,7.6,17,17,17c9.4,0,17-7.6,17-17S128,325.5,118.7,325.5z"/>
		<path class="st2" d="M118.7,322.1c-11.2,0-20.3,9.1-20.3,20.3s9.1,20.3,20.3,20.3c11.2,0,20.3-9.1,20.3-20.3
			C139,331.3,129.9,322.1,118.7,322.1z M118.7,359.4c-9.4,0-17-7.6-17-17c0-9.4,7.6-17,17-17c9.4,0,17,7.6,17,17
			C135.7,351.8,128,359.4,118.7,359.4z"/>
	</g>
	<ellipse class="st0" cx="276.1" cy="384.6" rx="209.3" ry="6.7"/>
	<g>
		<path class="st2" d="M48.1,334.5c-6.2-10.3,1.2-26.5,11.8-37.1C70.3,287,91.3,281,117.8,281c21.1,0,42,3.9,52,9.7
			c17.3,10.1,14.4,40.8,13,55.5c0,0,0,0,0,0l69.9,0.4v-75.3c0-8.1,4.3-13.7,8.6-15.5l0.5,1.2c-0.4-5.3,0.3-18.3,0.3-22.5
			c0-4.9,0.3-10,2.5-11.1c2.9-1.5,21.1-1.3,27.3-1.3c0,0,16-0.9,22.6,2.7s15.1,17.3,19.5,23.6c2.3,3.2,3.4,6.1,3.3,8.4l0.8-0.6
			c3.1,4.3,6.6,9.7,7.9,18.6c1.3,8.8,0.1,69,0,72.4l2.5,0c-0.4-12.2,2.3-33.5,5.1-42.6c4.1-13.5,25-20.6,41.8-24.1
			c6.2-1.3,16.3-1.9,30.3-1.9c12.6,0,25.9,0.5,35.6,1c-3-10.8-18.2-17.3-44.3-18.4c0,0-51.5-2.2-57.3-2.2c-8-3.1-12-10.7-13.8-13.3
			c-1.8-2.7-12.4-24-27.1-31.1c-10.8-3.3-35.5-2.7-35.5-2.7c-7.1,0-30.2,0-35.5,0s-10.7,8.9-10.7,11.5c0,2.1,0,81.4,0,112h-10.7
			c0-11.7,0-53.8,0-59c0-5.9-7.3-3.8-10.5-3.7V263h4c3,0,5.4-1.2,5.4-2.6c0-1.4-2.4-2.6-5.4-2.6h-4v-7.6h4c3,0,5.4-1.2,5.4-2.6
			s-2.4-2.6-5.4-2.6H30.4c-3,0-5.4,1.2-5.4,2.6c0,1.4,2.4,2.6,5.4,2.6h4.5v7.6h-4.5c-3,0-5.4,1.2-5.4,2.6c0,1.4,2.4,2.6,5.4,2.6h4.5
			v9.5c-4.6,0-7.4-0.1-7.7-0.1c-2.7-0.5-6.2,4.6-3.5,7.6c2.7,3,5.8,6.5,7.1,5.2c0,5.2-0.7,37.3-0.2,45.9c-0.9,0.2-1.6,0.4-2.1,0.8
			c-3.5,2.7-5.8,11.1,0,13.3c5.8,2.2,24.5,0,28.5,0c-0.1-0.2-0.2-0.4-0.2-0.6C53.5,341.9,50.5,338.4,48.1,334.5z M211.4,272.8
			c-12.3,0-47.4,0-83.7,0V263h83.7V272.8z M211.4,257.8h-83.7v-7.6h83.7V257.8z M40.3,250.3h82.6v7.6H40.3V250.3z M40.3,263h82.6
			v9.8c-32.4,0-65.1-0.1-82.6-0.2V263L40.3,263z"/>
		<path class="st2" d="M333.9,261.7c-4.4,1.8-63.5,0-65.2,0c-1.8,0-5.8,0-6.7-2.7c-0.1-0.3-0.2-0.7-0.2-1.2
			c-3.5,1.7-7.2,6.5-7.2,13.6v75.3l89.4,0.5c0-1.9,1.3-63.5,0-72.1c-1.2-7.9-4.1-12.9-7-16.9C336.7,259.8,335.6,261,333.9,261.7z"/>
		<path class="st2" d="M348.6,349.3l-166.1-0.9c-0.2,1.8-0.3,3.3-0.3,4.3v4.3l168.3-0.4c-0.4-0.5-0.7-1.2-1-1.8
			C349.1,353.5,348.8,351.6,348.6,349.3z"/>
		<path class="st2" d="M168.8,292.5c-9.7-5.7-30.2-9.5-51-9.5c-25.9,0-46.5,5.8-56.4,15.8c-9.8,9.8-17.1,25.3-11.5,34.7
			c5.3,8.9,14.8,15.6,21.9,15.6c3.4,0,5.9-1.5,7.4-4.4c0.7-1.5,1.4-3.2,2.2-4.9c4.7-11,11.7-27.6,39.1-28c0.2,0,0.5,0,0.7,0
			c27.9,0,36.1,23.9,40.6,36.7c0.5,1.5,1,2.8,1.4,3.9c1.8,4.7,6.1,6.4,9.5,6.4l0,0c2.1,0,4-0.6,5.4-1.6c1-0.8,2.2-2.1,2.2-4.4
			c0-1.4,0.2-3.7,0.5-6.6C182.1,331.8,185,302,168.8,292.5z"/>
		<path class="st2" d="M489.1,315.3c3.7,0,6.7-2.6,6.7-5.8v-11.4c0-3.2-3-5.8-6.7-5.8c-0.4,0-0.7,0-1.1,0.1
			c-0.7,0.1-1.3,0.3-1.9,0.5c-0.2-2.8-0.5-4.7-0.9-5.4c-2.5-3.7-4.8-4.6-10.2-5c-3.8-0.3-27.7-1.9-49.5-1.9
			c-13.8,0-23.8,0.6-29.8,1.9c-23,4.8-37.3,12.9-40.3,22.7c-3.7,12.1-6.6,42.3-4.1,48.7c2.2,5.5,10.1,5.4,14.6,5.3
			c0.5,0,0.9,0,1.3,0c0.4,0,1,0,1.6,0c4.8,0.2,13.8,0.6,18.5-9c0.9-1.9,1.8-4.5,2.9-7.5c4.8-14,12.9-37.3,42.2-38.1c0.5,0,1,0,1.5,0
			c21.8,0,36.8,12.8,42.2,36.2l0,0.1c0.8,3.3,4.5,7.3,6.8,7.3c1.7,0,2.1-2.7,2.1-4.3c0-0.5,0-1.3,0.1-2.1c0.6,0.2,1.3,0.4,2,0.6
			c0.6,0.1,1.3,0.2,2,0.2c3.7,0,6.7-1.6,6.7-3.6v-7.2c0-2-3-3.6-6.7-3.6c-0.5,0-0.9,0-1.4,0.1c0.2-4.5,0.3-8.8,0.4-12.9
			C488.5,315.3,488.8,315.3,489.1,315.3z"/>
	</g>
	<path class="st2" d="M197.9,122.8c1.6,3.8,5,8.4,9.3,11.1l-13.5,5l-5.8,2.2c-0.1-0.2-0.1-0.4-0.2-0.6
		c-6.8-19.6-22.8-34.7-44.3-29.2c-19.1,4.8-24.7,20-28.4,34.7c-9.1-11.1-21.6-21-38.6-18.4c-2.3,0.3-5.5,1.3-6.8,2
		c-17.9,9.5-24.4,25-20.8,46.5c1,5.9,2.8,10.7,5.1,14.8l-6.3,2.3c-0.3,0-10.2-4.1-12-7.4L5.8,197c2.8,5.5,9.5,9.2,17.9,8.4
		c-6.9,5.1-9.2,11.7-8.1,18l29.8-11.1c-0.8-3.5,3.6-12.8,4.2-13.3l7.9-2.9c9,10.6,23,14.1,36.1,18.3c17.6,5.6,33.6,13.1,45.7,25.7
		c3.3-13.5,10.3-24.9,19.3-35.9c8.8-10.7,20.6-19.8,26.9-31.7c3.6-6.8,5.7-15.4,3.9-25.4l6.4-2.4l13.6-5.1c-1.6,4.9-1,10.3,0.1,14.6
		c4.7-9.1,10.8-18.3,20.2-25.4C218,129.5,207.1,126.9,197.9,122.8z"/>
</g>
</svg>
