<?xml version="1.0" encoding="utf-8"?>
<!-- Generator: Adobe Illustrator 24.3.0, SVG Export Plug-In . SVG Version: 6.00 Build 0)  -->
<svg version="1.1" id="Layer_1" xmlns="http://www.w3.org/2000/svg" xmlns:xlink="http://www.w3.org/1999/xlink" x="0px" y="0px"
	 viewBox="0 0 500 500" style="enable-background:new 0 0 500 500;" xml:space="preserve">
<style type="text/css">
	.st0{fill:#EEC7DE;}
	.st1{fill:#F1E7A7;}
	.st2{fill:#BCDAEE;}
	.st3{fill:#FFFFFF;}
	.st4{fill:#EBBC93;}
	.st5{fill:#BCE0C1;}
</style>
<g>
	<path d="M167,157.1c-0.4-12.4-3.6-21.4-9.6-26.7c-4.6-4.2-10.5-6-17.7-5.6c-4.8,0.3-9,2.9-12.7,5.2c-3.3,2.1-6.4,4.1-9.4,4.1
		c-2.8,0-6-2-9.4-4.2c-4.1-2.6-8.8-5.6-14-5.6c-6.2-0.1-11.9,2.1-16.3,6.4c-6.1,5.9-9.6,15.5-9.7,26.4
		c-0.5,41.9,28.4,68.9,49.3,69.9c0.3,0,0.6,0,0.8,0c7.4,0,16.1-4.5,24.4-12.7C154.4,202.9,167.8,180.9,167,157.1z M117.6,225.3
		c-19.8-0.9-48.1-26.9-47.6-68.1c0.2-17,9-31.3,24.2-31.1c9,0,16.3,9.7,23.5,9.7c7.1,0,13.7-8.8,22.2-9.3
		c7.1-0.4,24.4,0.8,25.4,30.6C166.3,190.6,137.4,226.2,117.6,225.3z"/>
	<path class="st0" d="M139.8,126.6c-8.5,0.5-15.1,9.3-22.2,9.3c-7.1,0-14.5-9.7-23.5-9.7c-15.2-0.2-24,14-24.2,31.1
		c-0.5,41.2,27.8,67.2,47.6,68.1c19.8,0.9,48.8-34.7,47.6-68.1C164.2,127.4,146.9,126.2,139.8,126.6z"/>
	<g>
		<path d="M104.5,173.3c0.1,0.3-0.1,0.6-0.4,0.7c-0.3,0.2-0.6,0.2-0.9,0c-0.2-0.1-0.4-0.3-0.5-0.6c-0.1-0.3-0.3-0.7-0.4-1.1
			c-0.1-0.4-0.2-0.7-0.2-0.8c-0.4-1-0.7-2-0.9-3c-0.1-0.3-0.2-0.8-0.4-1.4c-0.2-0.6-0.3-1.1-0.4-1.4c-0.1,2.7-0.2,5.2-0.2,7.6
			c0,0.4-0.1,0.6-0.4,0.8c-0.3,0.1-0.6,0.1-0.8,0c-0.3-0.1-0.4-0.4-0.4-0.8v0.2v0c0-0.1,0-0.2-0.1-0.3c-0.1-0.3-0.1-0.5,0.1-0.7
			c0-1.9,0-3.8,0.1-5.8c0-2,0.1-4.4,0.2-7.4c0.1-3,0.2-4.9,0.2-5.8c0-0.4,0.2-0.7,0.7-0.8c0.4-0.1,0.7,0.1,0.9,0.4l0,0.4
			c0.1,1.9,0,4,0,6.3c0.3-0.5,0.8-1.4,1.6-2.7c0.8-1.3,1.3-2.4,1.7-3.1c0-0.1,0-0.2,0.1-0.4c0-0.1,0.1-0.2,0.2-0.3
			c0.2-0.3,0.5-0.4,0.8-0.4c0.3,0,0.5,0.1,0.7,0.4c0.2,0.3,0.2,0.5,0,0.9c-0.4,0.9-1.2,2.2-2.2,4c-1,1.8-1.8,3.1-2.3,4.1
			c0.2,0.5,0.7,2.2,1.5,5c0.1,0.4,0.2,0.8,0.4,1.3c0.2,0.5,0.3,0.9,0.4,1.3c0.1,0.4,0.3,0.8,0.4,1.3c0.2,0.5,0.3,0.9,0.4,1.3
			c0.2,0.1,0.2,0.3,0.2,0.5C104.5,173.1,104.5,173.2,104.5,173.3z"/>
		<path d="M109.9,154c-0.3,0-0.5-0.1-0.6-0.3c-0.1-0.3-0.1-0.5,0-0.7l0,0c0.1-0.3,0.4-0.4,0.6-0.4c0.1,0,0.6,0.1,1.4,0.2
			c0.9,0.1,1.5,0.1,2,0.1c0.3,0,0.6,0.1,0.7,0.4c0.1,0.3,0.1,0.5,0,0.8c-0.1,0.3-0.4,0.4-0.7,0.5c-0.2,0-0.4,0-0.6,0
			c0.1,3.7,0,6.6-0.1,8.8c0,0.5,0,1.4-0.1,2.6c0,1.2-0.1,2.1-0.1,2.8c0,0.2,0,0.5,0,0.8c0,0.4,0,0.7-0.1,0.9c0,0.2,0,0.5,0,0.8
			c0,0.3,0,0.6,0,0.9c0,0.3,0,0.6,0.1,0.9c0.3,0,0.6-0.1,0.8-0.2c0.3-0.1,0.6,0,0.8,0.2c0.2,0.2,0.3,0.5,0.2,0.8
			c-0.1,0.3-0.3,0.5-0.6,0.6c-0.7,0.2-1.9,0.2-3.4-0.1c-0.1,0-0.2-0.1-0.3-0.2c-0.1-0.1-0.2-0.1-0.2-0.2c-0.1-0.2-0.1-0.4,0-0.6
			c0.1-0.2,0.2-0.3,0.4-0.4c0.1,0,0.3-0.1,0.3-0.1h0.2c-0.1-0.6-0.1-2,0-4c0-0.6,0-1.6,0.1-2.9c0-1.3,0.1-2.2,0.1-2.8
			c0-0.8,0.1-1.8,0.1-2.9c0-1.1,0-2.2,0-3.3c0-1.1,0-2,0.1-2.9c-0.1,0-0.2,0-0.3,0c-0.1,0-0.2,0-0.3,0c-0.1,0-0.1,0-0.3-0.1
			c-0.1,0-0.2,0-0.2,0C110,154.1,109.9,154.1,109.9,154L109.9,154z"/>
		<path d="M122.1,174.5c-0.8,0.1-1.5,0-2.2-0.3c-0.7-0.3-1.2-0.8-1.4-1.5c-0.3-0.7-0.4-1.5-0.4-2.4c0-0.1,0-0.2,0-0.4
			c0-0.2,0-0.4,0-0.5c0-0.1,0-0.3,0-0.5c0-0.2-0.1-0.3-0.2-0.4c-0.2-0.3-0.2-0.6,0-0.8c0.2-0.3,0.4-0.4,0.7-0.4
			c0.3,0,0.5,0.1,0.8,0.4c0.3,0.5,0.4,1.3,0.3,2.4c-0.1,1.1,0.1,1.9,0.4,2.3c0.3,0.3,0.6,0.5,1,0.6c0.4,0.1,0.8,0,1.1-0.2
			c0.4-0.4,0.6-0.9,0.8-1.5c0.2-1.4,0.2-2.9-0.2-4.6c-0.4-1.6-0.9-3.1-1.7-4.5c-0.1-0.2-0.3-0.5-0.5-0.9c-0.2-0.4-0.4-0.7-0.6-1
			c-0.2-0.3-0.3-0.6-0.5-0.9c-0.2-0.3-0.3-0.7-0.5-1c-0.1-0.4-0.2-0.7-0.3-1c-0.3-1.8,0-3.2,0.8-4.2c0.4-0.6,1-0.9,1.6-0.9
			c0.7,0,1.3,0.2,1.8,0.6c0.3,0.2,0.5,0.5,0.6,0.8c0.2,0.3,0.3,0.6,0.3,0.9c0.1,0.3,0.1,0.6,0.2,1c0.1,0.4,0.2,0.7,0.2,1
			c0.1,0.3,0,0.5-0.2,0.7c-0.2,0.2-0.4,0.2-0.6,0.2c-0.3,0-0.4-0.2-0.5-0.5c-0.1-0.2-0.2-0.6-0.3-1c-0.1-0.5-0.2-0.8-0.3-1
			c-0.1-0.3-0.4-0.7-0.7-1c-0.4-0.3-0.7-0.3-0.9,0c-0.4,0.4-0.6,0.9-0.7,1.5c-0.1,0.6-0.1,1.2,0.1,1.7c0.1,0.6,0.3,1.1,0.6,1.5
			c0.2,0.4,0.5,0.9,0.9,1.6c0.4,0.6,0.7,1.2,1,1.8c0.3,0.6,0.6,1.1,0.8,1.6c0.5,1.4,0.9,2.9,1.1,4.5c0.1,0.5,0.1,1.1,0.1,1.8
			c0,0.7-0.1,1.4-0.2,2.1c-0.1,0.7-0.4,1.2-0.8,1.7C123.3,174.1,122.8,174.4,122.1,174.5z"/>
		<path d="M132.5,174.5c-0.8,0.1-1.5,0-2.2-0.3c-0.7-0.3-1.2-0.8-1.4-1.5c-0.3-0.7-0.4-1.5-0.4-2.4c0-0.1,0-0.2,0-0.4
			c0-0.2,0-0.4,0-0.5c0-0.1,0-0.3,0-0.5c0-0.2-0.1-0.3-0.2-0.4c-0.2-0.3-0.2-0.6,0-0.8c0.2-0.3,0.4-0.4,0.7-0.4
			c0.3,0,0.5,0.1,0.8,0.4c0.3,0.5,0.4,1.3,0.3,2.4c-0.1,1.1,0.1,1.9,0.4,2.3c0.3,0.3,0.6,0.5,1,0.6c0.4,0.1,0.8,0,1.1-0.2
			c0.4-0.4,0.6-0.9,0.8-1.5c0.2-1.4,0.2-2.9-0.2-4.6c-0.4-1.6-0.9-3.1-1.7-4.5c-0.1-0.2-0.3-0.5-0.5-0.9c-0.2-0.4-0.4-0.7-0.6-1
			c-0.2-0.3-0.3-0.6-0.5-0.9c-0.2-0.3-0.3-0.7-0.5-1c-0.1-0.4-0.2-0.7-0.3-1c-0.3-1.8,0-3.2,0.8-4.2c0.4-0.6,1-0.9,1.6-0.9
			c0.7,0,1.3,0.2,1.8,0.6c0.3,0.2,0.5,0.5,0.6,0.8c0.2,0.3,0.3,0.6,0.3,0.9c0.1,0.3,0.1,0.6,0.2,1c0.1,0.4,0.2,0.7,0.2,1
			c0.1,0.3,0,0.5-0.2,0.7c-0.2,0.2-0.4,0.2-0.6,0.2c-0.3,0-0.4-0.2-0.5-0.5c-0.1-0.2-0.2-0.6-0.3-1c-0.1-0.5-0.2-0.8-0.3-1
			c-0.1-0.3-0.4-0.7-0.7-1c-0.4-0.3-0.7-0.3-0.9,0c-0.4,0.4-0.6,0.9-0.7,1.5c-0.1,0.6-0.1,1.2,0.1,1.7c0.1,0.6,0.3,1.1,0.6,1.5
			c0.2,0.4,0.5,0.9,0.9,1.6c0.4,0.6,0.7,1.2,1,1.8c0.3,0.6,0.6,1.1,0.8,1.6c0.5,1.4,0.9,2.9,1.1,4.5c0.1,0.5,0.1,1.1,0.1,1.8
			c0,0.7-0.1,1.4-0.2,2.1c-0.1,0.7-0.4,1.2-0.8,1.7C133.7,174.1,133.1,174.4,132.5,174.5z"/>
		<path d="M113.1,195.6c-0.1,0.4-0.3,0.6-0.8,0.6c-0.4,0-0.7-0.2-0.8-0.6c-0.2-0.7-0.6-2-1.2-3.8c-0.5-1.8-1-3.2-1.3-4.2
			c0,0.3-0.1,0.9-0.1,1.8c-0.1,0.9-0.1,1.7-0.1,2.3c0,0.6,0,1.2,0,1.8c0,1,0,2.6,0.1,4.7c0,2.1,0,3.7,0.1,4.7c0,0.3-0.1,0.6-0.4,0.7
			c-0.3,0.1-0.5,0.1-0.8,0c-0.3-0.1-0.4-0.4-0.5-0.7c0-0.1,0-0.3-0.1-0.5c0-0.2,0-0.4-0.1-0.5c0-0.1,0-0.3,0.1-0.4
			c0-0.8,0-1.7,0-2.6c0-0.9,0-1.9,0-3c0-1.1,0-1.9,0-2.5c0-0.9,0-1.9,0.1-3c0.1-1.1,0.1-2.2,0.2-3.4c0.1-1.1,0.1-2.1,0.1-3
			c0-0.3,0.1-0.5,0.3-0.6c0.3-0.1,0.5-0.1,0.8,0c0.3,0.1,0.4,0.3,0.4,0.7v0.1c0.5,0.7,0.9,1.6,1.3,2.6c0.4,1,0.7,1.8,1,2.5
			c0.2,0.7,0.5,1.6,0.9,2.8c0.7-2.5,1.9-5.4,3.6-8.5c0.2-0.4,0.5-0.5,1-0.4c0.4,0.1,0.6,0.4,0.6,0.8c0.1,2.3,0.1,5.6-0.1,9.9
			c-0.2,4.3-0.3,7.3-0.3,9c0,0.3-0.1,0.6-0.4,0.7c-0.3,0.1-0.5,0.1-0.8,0c-0.3-0.1-0.4-0.4-0.4-0.7c-0.1-2,0-4.7,0.1-8.3
			c0.2-3.6,0.3-6,0.3-7.2C114.4,190.4,113.5,193.1,113.1,195.6z"/>
		<path d="M122.4,205.1c-0.4,0-0.7-0.1-0.9-0.2c-0.2-0.1-0.4-0.3-0.5-0.6c-0.1-0.2-0.1-0.5-0.1-0.7c0-0.3,0-0.6,0-1
			c0-0.4,0-0.6,0-0.8v-3.7c0-3.2,0-5.9,0.1-7.9c0.1-2.7,0.1-4.8,0-6.5c-0.1-0.1-0.1-0.2-0.1-0.4c0-0.1,0-0.3,0-0.5
			c0-0.2,0.1-0.4,0.3-0.5c0.2-0.1,0.4-0.2,0.6-0.2c0,0,0.1,0,0.1,0c0.3,0,0.8,0,1.6,0c0.7,0,1.3,0,1.6,0c1-0.1,1.5,0.2,1.6,0.9
			c0,0.3-0.1,0.5-0.3,0.6c-0.2,0.2-0.5,0.2-0.7,0.2h-0.2h-0.1c0,0-0.1,0-0.2,0c-0.1,0-0.1,0-0.2,0c-0.1,0-0.2,0-0.3,0
			c-0.1,0-0.3,0-0.3,0c-0.4,0-1,0-1.8-0.1c0.2,1.6,0.2,3.6,0.2,5.9c0.2,0,0.4,0,0.7,0.1c0.3,0,0.5,0,0.7,0.1c0.2,0,0.4,0,0.7,0.1
			c0.3,0,0.5,0,0.7,0.1c0.3,0,0.6,0.2,0.7,0.5c0.1,0.3,0.1,0.6,0,0.9c-0.1,0.3-0.4,0.4-0.7,0.3c0,0-0.1,0-0.1,0c-0.1,0-0.1,0-0.1,0
			h0c-0.8-0.1-1.7-0.2-2.5-0.4c-0.1,2.6-0.1,4.2-0.1,4.9c0,3.1,0,5.4,0,7c0,0.1,0,0.3,0,0.5h0.3c0,0,1.1,0,3.2,0
			c0.2,0,0.4,0.1,0.5,0.2c0.1,0.1,0.2,0.3,0.3,0.4c0,0.2,0,0.3,0,0.5c0,0.2-0.1,0.3-0.3,0.4c-0.1,0.1-0.3,0.2-0.5,0.2
			c-0.3,0-1,0-1.8,0C123.3,205.2,122.7,205.2,122.4,205.1z"/>
	</g>
</g>
<g>
	<path d="M302,157.1c-0.4-12.4-3.6-21.4-9.6-26.7c-4.6-4.2-10.5-6-17.7-5.6c-4.8,0.3-9,2.9-12.7,5.2c-3.3,2.1-6.4,4.1-9.4,4.1
		c-2.8,0-6-2-9.4-4.2c-4.1-2.6-8.8-5.6-14-5.6c-6.2-0.1-11.9,2.1-16.3,6.4c-6.1,5.9-9.6,15.5-9.7,26.4
		c-0.5,41.9,28.4,68.9,49.3,69.9c0.3,0,0.6,0,0.8,0c7.4,0,16.1-4.5,24.4-12.7C289.4,202.9,302.8,180.9,302,157.1z M252.6,225.3
		c-19.8-0.9-48.1-26.9-47.6-68.1c0.2-17,9-31.3,24.2-31.1c9,0,16.3,9.7,23.5,9.7c7.1,0,13.7-8.8,22.2-9.3
		c7.1-0.4,24.4,0.8,25.4,30.6C301.4,190.6,272.4,226.2,252.6,225.3z"/>
	<path class="st1" d="M274.8,126.6c-8.5,0.5-15.1,9.3-22.2,9.3c-7.1,0-14.5-9.7-23.5-9.7c-15.2-0.2-24,14-24.2,31.1
		c-0.5,41.2,27.8,67.2,47.6,68.1c19.8,0.9,48.8-34.7,47.6-68.1C299.2,127.4,281.9,126.2,274.8,126.6z"/>
	<g>
		<path d="M233.1,174.7c-0.2,0-0.4-0.1-0.6-0.3c-0.2-0.2-0.3-0.4-0.3-0.6c-0.1-3,0-6.5,0.2-10.5c0-0.7,0.1-1.8,0.2-3.1
			c0.1-1.3,0.1-2.6,0.2-3.7c0.1-1.1,0.1-2.1,0.2-3.1c0-0.1,0-0.2,0-0.3v-0.1c0-0.2,0-0.3,0.2-0.5c0.1-0.1,0.2-0.2,0.4-0.2
			c0.1,0,0.3,0,0.4,0c0.1,0,0.3,0.1,0.4,0.2c0.1,0.1,0.2,0.3,0.2,0.5c0,1.9,0,3,0,3.4c0,0.4-0.1,1.6-0.2,3.4c-0.1,1.9-0.2,3-0.2,3.4
			c-0.2,3.8-0.3,7.1-0.2,9.6c1.1,0,2,0,2.7-0.1c0.2,0,0.4,0,0.6,0c0.2,0,0.4,0.1,0.6,0.2c0.2,0.1,0.3,0.3,0.4,0.5
			c0.1,0.4,0,0.6-0.3,0.8c-0.3,0.2-0.6,0.2-0.9,0.1c-0.1,0-0.3,0-0.4,0c-0.2,0-0.3,0-0.5,0.1c-0.2,0-0.3,0.1-0.4,0.1
			C235.2,174.8,234.3,174.8,233.1,174.7z"/>
		<path d="M250.8,161c0,0.3,0,0.6,0.1,1.1c0,0.5,0,0.9,0,1.1c0,0.3,0,0.7,0,1.1c0,0.4,0,0.8,0,1.1c0,0.3,0,0.7,0,1.1
			c0,0.4,0,0.8,0,1.1c0,0.3,0,0.7-0.1,1.1c0,0.4-0.1,0.8-0.2,1.1c-0.1,0.5-0.2,1.1-0.4,1.6c-0.2,0.5-0.4,1-0.7,1.5
			c-0.3,0.5-0.6,0.9-1,1.2c-0.4,0.3-0.8,0.5-1.4,0.6c-0.5,0.1-1.1,0.1-1.7-0.1c-0.6-0.2-1-0.4-1.4-0.8c-0.4-0.3-0.7-0.7-1-1.2
			c-0.2-0.5-0.4-0.9-0.6-1.4c-0.1-0.4-0.3-1-0.4-1.6c-0.5-2.7-0.7-5.5-0.7-8.3c0-0.1,0.1-1.6,0.2-4.6c0,0,0-0.2,0-0.3s0-0.3,0-0.4
			s0-0.2,0-0.3c0-0.2,0-0.3,0-0.4s0-0.2,0-0.3c0-0.2,0-0.3,0.1-0.4c0-0.1,0.1-0.2,0.1-0.3c0-0.1,0.1-0.2,0.1-0.3
			c0-0.1,0.1-0.2,0.1-0.3c0.3-0.6,0.8-1,1.3-1.3c0.6-0.3,1.1-0.4,1.8-0.3c0.2-0.2,0.5-0.3,0.8-0.2c0.3,0,0.6,0.1,0.8,0.2
			c0.3,0.1,0.5,0.3,0.8,0.6c0.3,0.3,0.5,0.5,0.7,0.7c0.2,0.2,0.4,0.4,0.5,0.7c0.7,0.9,1.1,1.9,1.4,3
			C250.6,158.2,250.8,159.5,250.8,161z M248.5,171.5c0.4-1.1,0.7-2.5,0.8-4.1s0.1-3,0-4.2c0-0.3,0-0.8,0-1.6c0-0.8,0-1.4-0.1-1.8
			c0-0.4-0.1-0.9-0.2-1.5c-0.1-0.6-0.3-1.2-0.4-1.6c-0.2-0.6-0.6-1.2-1.1-1.8c-0.1-0.2-0.3-0.3-0.5-0.5c-0.2,0.1-0.4,0-0.6-0.1
			c-0.1-0.1-0.3-0.2-0.4-0.2c-0.3,0.1-0.5,0.1-0.8-0.1c-0.4,0-0.7,0.1-0.9,0.3c-0.3,0.2-0.4,0.5-0.5,0.8c-0.1,0.3-0.1,0.6-0.2,1
			c0,0.4-0.1,0.6-0.1,0.9c0,0.2,0,0.6,0,1c0,0.4,0,0.7,0,0.9c-0.2,3.8-0.2,6.7,0.2,8.7c0.3,2,0.6,3.4,0.8,4.1
			c0.4,1.1,1.1,1.6,2.1,1.7C247.3,173.3,248,172.7,248.5,171.5z"/>
		<path d="M261.7,157.4c-0.4,3-0.7,4.8-0.8,5.6c-0.1,0.5-0.2,1.4-0.3,2.7c-0.1,1.3-0.2,2.3-0.3,3c-0.1,0.6-0.2,1.6-0.5,2.8
			c-0.2,1.2-0.4,2.1-0.5,2.7c-0.1,0.4-0.3,0.6-0.8,0.6c-0.4,0-0.7-0.2-0.8-0.6c-0.1-0.3-0.2-0.5-0.2-0.8c-0.1-0.3-0.1-0.6-0.2-0.8
			c0-0.3-0.1-0.5-0.1-0.8c0-0.3-0.1-0.6-0.1-0.8c0-0.3-0.1-0.5-0.1-0.8c0-0.3-0.1-0.6-0.1-0.8c-0.2-1.2-0.5-3-1-5.4
			c-0.2-0.8-0.3-1.8-0.5-2.8c-0.2-1-0.3-1.9-0.4-2.4c-0.1-0.6-0.2-1.6-0.4-3c-0.2-1.4-0.3-2.3-0.3-2.6c0-0.2,0.1-0.4,0.3-0.6
			c0.2-0.1,0.5-0.2,0.7-0.1c0.3,0.1,0.4,0.2,0.5,0.5c0.2,1.1,0.5,2.9,0.9,5.4c0.4,2.5,0.7,4.4,1,5.7c0.6,2.9,0.9,4.6,1,5.1l0.1-0.8
			c0.4-3.7,0.6-5.6,0.6-5.7c0.2-1.6,0.5-3.4,0.8-5.4c0.1-0.6,0.3-1.5,0.6-2.7c0.3-1.1,0.5-1.9,0.6-2.2c0.1-0.3,0.3-0.5,0.6-0.6
			c0.3-0.1,0.6,0,0.8,0.2c0.2,0.2,0.3,0.5,0.2,0.8c-0.1,0.3-0.2,0.7-0.3,1.2c-0.1,0.5-0.2,0.9-0.3,1.2c-0.1,0.4-0.2,0.8-0.3,1.2
			C261.8,156.6,261.7,157,261.7,157.4z"/>
		<path d="M267.2,175.1c-0.4,0-0.7-0.1-0.9-0.2s-0.4-0.3-0.5-0.6c-0.1-0.2-0.1-0.5-0.1-0.7c0-0.3,0-0.6,0-1c0-0.4,0-0.6,0-0.8v-3.7
			c0-3.2,0-5.9,0.1-7.9c0.1-2.7,0.1-4.8,0-6.5c-0.1-0.1-0.1-0.2-0.1-0.4c0-0.1,0-0.3,0-0.5c0-0.2,0.1-0.4,0.3-0.5
			c0.2-0.1,0.4-0.2,0.6-0.2c0,0,0.1,0,0.1,0c0.3,0,0.8,0,1.6,0c0.7,0,1.3,0,1.6,0c1-0.1,1.5,0.2,1.6,0.9c0,0.3-0.1,0.5-0.3,0.6
			c-0.2,0.2-0.5,0.2-0.7,0.2h-0.2h-0.1c0,0-0.1,0-0.2,0c-0.1,0-0.1,0-0.2,0c-0.1,0-0.2,0-0.3,0c-0.1,0-0.3,0-0.3,0
			c-0.4,0-1,0-1.8-0.1c0.2,1.6,0.2,3.6,0.2,5.9c0.2,0,0.4,0,0.7,0.1c0.3,0,0.5,0,0.7,0.1c0.2,0,0.4,0,0.7,0.1c0.3,0,0.5,0,0.7,0.1
			c0.3,0,0.6,0.2,0.7,0.5c0.1,0.3,0.1,0.6,0,0.9c-0.1,0.3-0.4,0.4-0.7,0.3c0,0-0.1,0-0.1,0s-0.1,0-0.1,0h0c-0.8-0.1-1.7-0.2-2.5-0.4
			c-0.1,2.6-0.1,4.2-0.1,4.9c0,3.1,0,5.4,0,7c0,0.1,0,0.3,0,0.5h0.3c0,0,1.1,0,3.2,0c0.2,0,0.4,0.1,0.5,0.2c0.1,0.1,0.2,0.3,0.3,0.4
			c0,0.2,0,0.3,0,0.5c0,0.2-0.1,0.3-0.3,0.4c-0.1,0.1-0.3,0.2-0.5,0.2c-0.3,0-1,0-1.8,0C268.2,175.1,267.6,175.1,267.2,175.1z"/>
		<path d="M248.2,195.6c-0.1,0.4-0.3,0.6-0.8,0.6c-0.4,0-0.7-0.2-0.8-0.6c-0.2-0.7-0.6-2-1.2-3.8c-0.5-1.8-1-3.2-1.3-4.2
			c0,0.3-0.1,0.9-0.1,1.8c-0.1,0.9-0.1,1.7-0.1,2.3c0,0.6,0,1.2,0,1.8c0,1,0,2.6,0.1,4.7c0,2.1,0,3.7,0.1,4.7c0,0.3-0.1,0.6-0.4,0.7
			c-0.3,0.1-0.5,0.1-0.8,0c-0.3-0.1-0.4-0.4-0.5-0.7c0-0.1,0-0.3-0.1-0.5c0-0.2,0-0.4-0.1-0.5c0-0.1,0-0.3,0.1-0.4
			c0-0.8,0-1.7,0-2.6c0-0.9,0-1.9,0-3c0-1.1,0-1.9,0-2.5c0-0.9,0-1.9,0.1-3c0.1-1.1,0.1-2.2,0.2-3.4c0.1-1.1,0.1-2.1,0.1-3
			c0-0.3,0.1-0.5,0.3-0.6c0.3-0.1,0.5-0.1,0.8,0c0.3,0.1,0.4,0.3,0.4,0.7v0.1c0.5,0.7,0.9,1.6,1.3,2.6c0.4,1,0.7,1.8,1,2.5
			c0.2,0.7,0.5,1.6,0.9,2.8c0.7-2.5,1.9-5.4,3.6-8.5c0.2-0.4,0.5-0.5,1-0.4c0.4,0.1,0.6,0.4,0.6,0.8c0.1,2.3,0.1,5.6-0.1,9.9
			c-0.2,4.3-0.3,7.3-0.3,9c0,0.3-0.1,0.6-0.4,0.7c-0.3,0.1-0.5,0.1-0.8,0c-0.3-0.1-0.4-0.4-0.4-0.7c-0.1-2,0-4.7,0.1-8.3
			c0.2-3.6,0.3-6,0.3-7.2C249.4,190.4,248.5,193.1,248.2,195.6z"/>
		<path d="M257.4,205.1c-0.4,0-0.7-0.1-0.9-0.2c-0.2-0.1-0.4-0.3-0.5-0.6c-0.1-0.2-0.1-0.5-0.1-0.7c0-0.3,0-0.6,0-1
			c0-0.4,0-0.6,0-0.8v-3.7c0-3.2,0-5.9,0.1-7.9c0.1-2.7,0.1-4.8,0-6.5c-0.1-0.1-0.1-0.2-0.1-0.4c0-0.1,0-0.3,0-0.5
			c0-0.2,0.1-0.4,0.3-0.5c0.2-0.1,0.4-0.2,0.6-0.2c0,0,0.1,0,0.1,0c0.3,0,0.8,0,1.6,0c0.7,0,1.3,0,1.6,0c1-0.1,1.5,0.2,1.6,0.9
			c0,0.3-0.1,0.5-0.3,0.6c-0.2,0.2-0.5,0.2-0.7,0.2h-0.2h-0.1c0,0-0.1,0-0.2,0c-0.1,0-0.1,0-0.2,0c-0.1,0-0.2,0-0.3,0
			c-0.1,0-0.3,0-0.3,0c-0.4,0-1,0-1.8-0.1c0.2,1.6,0.2,3.6,0.2,5.9c0.2,0,0.4,0,0.7,0.1c0.3,0,0.5,0,0.7,0.1c0.2,0,0.4,0,0.7,0.1
			c0.3,0,0.5,0,0.7,0.1c0.3,0,0.6,0.2,0.7,0.5c0.1,0.3,0.1,0.6,0,0.9c-0.1,0.3-0.4,0.4-0.7,0.3c0,0-0.1,0-0.1,0c-0.1,0-0.1,0-0.1,0
			h0c-0.8-0.1-1.7-0.2-2.5-0.4c-0.1,2.6-0.1,4.2-0.1,4.9c0,3.1,0,5.4,0,7c0,0.1,0,0.3,0,0.5h0.3c0,0,1.1,0,3.2,0
			c0.2,0,0.4,0.1,0.5,0.2c0.1,0.1,0.2,0.3,0.3,0.4c0,0.2,0,0.3,0,0.5c0,0.2-0.1,0.3-0.3,0.4c-0.1,0.1-0.3,0.2-0.5,0.2
			c-0.3,0-1,0-1.8,0C258.3,205.2,257.7,205.2,257.4,205.1z"/>
	</g>
</g>
<g>
	<path d="M437,157.1c-0.4-12.4-3.6-21.4-9.6-26.7c-4.6-4.2-10.5-6-17.7-5.6c-4.8,0.3-9,2.9-12.7,5.2c-3.3,2.1-6.4,4.1-9.4,4.1
		c-2.8,0-6-2-9.4-4.2c-4.1-2.6-8.8-5.6-14-5.6c-6.2-0.1-11.9,2.1-16.3,6.4c-6.1,5.9-9.6,15.5-9.7,26.4
		c-0.5,41.9,28.4,68.9,49.3,69.9c0.3,0,0.6,0,0.8,0c7.4,0,16.1-4.5,24.4-12.7C424.4,202.9,437.8,180.9,437,157.1z M387.6,225.3
		c-19.8-0.9-48.1-26.9-47.6-68.1c0.2-17,9-31.3,24.2-31.1c9,0,16.3,9.7,23.5,9.7c7.1,0,13.7-8.8,22.2-9.3
		c7.1-0.4,24.4,0.8,25.4,30.6C436.4,190.6,407.4,226.2,387.6,225.3z"/>
	<path class="st2" d="M409.8,126.6c-8.5,0.5-15.1,9.3-22.2,9.3c-7.1,0-14.5-9.7-23.5-9.7c-15.2-0.2-24,14-24.2,31.1
		c-0.5,41.2,27.8,67.2,47.6,68.1c19.8,0.9,48.8-34.7,47.6-68.1C434.2,127.4,416.9,126.2,409.8,126.6z"/>
	<g>
		<path d="M384.9,158.5c1.1,1.4,1.6,3.4,1.3,6.2c-0.1,1.3-0.4,2.5-0.7,3.5c-0.4,1-1,1.8-1.8,2.4c-0.7,0.5-1.4,0.7-2.2,0.8
			c-0.8,0.1-1.5-0.1-2.1-0.5c-0.2,0-0.3,0-0.5,0c-0.2,0-0.3-0.1-0.4-0.2c-0.1-0.1-0.2-0.3-0.2-0.5c0-0.4-0.1-0.8-0.1-1.3
			c0-0.5,0-0.8,0-1.1c0-0.3,0.1-0.7,0.1-1.3c0-0.6,0.1-1,0.1-1.1c0.1-1.1,0.2-2.9,0.3-5.2c0.2-3.3,0.3-6.8,0.3-10.5
			c0-0.2,0-0.4,0.2-0.6c0.2-0.1,0.3-0.2,0.5-0.2l0,0c0.6-0.3,1.3-0.4,2.1-0.4c0.7,0.1,1.4,0.3,2,0.6c0.6,0.3,1.1,0.8,1.5,1.4
			c0.4,0.6,0.5,1.3,0.5,2.1c-0.1,1.6-0.7,2.9-1.8,3.9c-0.2,0.2-0.6,0.4-1,0.7C383.7,157.5,384.4,157.9,384.9,158.5z M384.6,164.1
			c0-0.5,0-1,0-1.5c0-0.5-0.1-1.1-0.3-1.6c-0.2-0.6-0.4-1-0.8-1.3c-0.7-0.6-1.8-0.9-3.3-0.7l-0.1,1.4c0,0.5-0.1,1.8-0.2,3.9
			c-0.1,2.2-0.2,3.8-0.2,5c0.5,0.5,1.1,0.7,1.8,0.6c0.7-0.1,1.3-0.5,1.7-1C384.1,167.4,384.5,165.9,384.6,164.1z M383.3,150.8
			c-0.4-0.3-0.9-0.6-1.4-0.6c-0.5-0.1-1,0-1.5,0.2c0.1,1.9,0,4-0.1,6.5c0.5-0.3,0.9-0.5,1.1-0.6c0.2-0.1,0.5-0.3,1-0.6
			c0.4-0.3,0.7-0.6,1-0.9c0.2-0.3,0.4-0.6,0.5-1C384.3,152.5,384.1,151.5,383.3,150.8z"/>
		<path d="M391.2,171.5c-0.4,0-0.7-0.1-0.9-0.2s-0.4-0.3-0.5-0.6c-0.1-0.2-0.1-0.5-0.1-0.7c0-0.3,0-0.6,0-1c0-0.4,0-0.6,0-0.8v-3.7
			c0-3.2,0-5.9,0.1-7.9c0.1-2.7,0.1-4.8,0-6.5c-0.1-0.1-0.1-0.2-0.1-0.4c0-0.1,0-0.3,0-0.5c0-0.2,0.1-0.4,0.3-0.5
			c0.2-0.1,0.4-0.2,0.6-0.2c0,0,0.1,0,0.1,0c0.3,0,0.8,0,1.6,0c0.7,0,1.3,0,1.6,0c1-0.1,1.5,0.2,1.6,0.9c0,0.3-0.1,0.5-0.3,0.6
			c-0.2,0.2-0.5,0.2-0.7,0.2h-0.2h-0.1c0,0-0.1,0-0.2,0c-0.1,0-0.1,0-0.2,0c-0.1,0-0.2,0-0.3,0c-0.1,0-0.3,0-0.3,0
			c-0.4,0-1,0-1.8-0.1c0.2,1.6,0.2,3.6,0.2,5.9c0.2,0,0.4,0,0.7,0.1c0.3,0,0.5,0,0.7,0.1c0.2,0,0.4,0,0.7,0.1c0.3,0,0.5,0,0.7,0.1
			c0.3,0,0.6,0.2,0.7,0.5c0.1,0.3,0.1,0.6,0,0.9c-0.1,0.3-0.4,0.4-0.7,0.3c0,0-0.1,0-0.1,0c-0.1,0-0.1,0-0.1,0h0
			c-0.8-0.1-1.7-0.2-2.5-0.4c-0.1,2.6-0.1,4.2-0.1,4.9c0,3.1,0,5.4,0,7c0,0.1,0,0.3,0,0.5h0.3c0,0,1.1,0,3.2,0
			c0.2,0,0.4,0.1,0.5,0.2c0.1,0.1,0.2,0.3,0.3,0.4c0,0.2,0,0.3,0,0.5c0,0.2-0.1,0.3-0.3,0.4c-0.1,0.1-0.3,0.2-0.5,0.2
			c-0.3,0-1,0-1.8,0C392.2,171.5,391.6,171.5,391.2,171.5z"/>
		<path d="M373,192.1c-0.1,0.4-0.3,0.6-0.8,0.6c-0.4,0-0.7-0.2-0.8-0.6c-0.2-0.7-0.6-2-1.2-3.8c-0.5-1.8-1-3.2-1.3-4.2
			c0,0.3-0.1,0.9-0.1,1.8c-0.1,0.9-0.1,1.7-0.1,2.3c0,0.6,0,1.2,0,1.8c0,1,0,2.6,0.1,4.7c0,2.1,0,3.7,0.1,4.7c0,0.3-0.1,0.6-0.4,0.7
			c-0.3,0.1-0.5,0.1-0.8,0c-0.3-0.1-0.4-0.4-0.5-0.7c0-0.1,0-0.3-0.1-0.5c0-0.2,0-0.4-0.1-0.5c0-0.1,0-0.3,0.1-0.4
			c0-0.8,0-1.7,0-2.6c0-0.9,0-1.9,0-3c0-1.1,0-1.9,0-2.5c0-0.9,0-1.9,0.1-3c0.1-1.1,0.1-2.2,0.2-3.4c0.1-1.1,0.1-2.1,0.1-3
			c0-0.3,0.1-0.5,0.3-0.6c0.3-0.1,0.5-0.1,0.8,0c0.3,0.1,0.4,0.3,0.4,0.7v0.1c0.5,0.7,0.9,1.6,1.3,2.6c0.4,1,0.7,1.8,1,2.5
			c0.2,0.7,0.5,1.6,0.9,2.8c0.7-2.5,1.9-5.4,3.6-8.5c0.2-0.4,0.5-0.5,1-0.4c0.4,0.1,0.6,0.4,0.6,0.8c0.1,2.3,0.1,5.6-0.1,9.9
			c-0.2,4.3-0.3,7.3-0.3,9c0,0.3-0.1,0.6-0.4,0.7c-0.3,0.1-0.5,0.1-0.8,0c-0.3-0.1-0.4-0.4-0.4-0.7c-0.1-2,0-4.7,0.1-8.3
			c0.2-3.6,0.3-6,0.3-7.2C374.2,186.8,373.3,189.5,373,192.1z"/>
		<path d="M381.4,180.5c-0.3,0-0.5-0.1-0.6-0.3c-0.1-0.3-0.1-0.5,0-0.7l0,0c0.1-0.3,0.4-0.4,0.6-0.4c0.1,0,0.6,0.1,1.4,0.2
			c0.9,0.1,1.5,0.1,2,0.1c0.3,0,0.6,0.1,0.7,0.4c0.1,0.3,0.1,0.5,0,0.8c-0.1,0.3-0.4,0.4-0.7,0.5c-0.2,0-0.4,0-0.6,0
			c0.1,3.7,0,6.6-0.1,8.8c0,0.5,0,1.4-0.1,2.6c0,1.2,0,2.1-0.1,2.8c0,0.2,0,0.5,0,0.8c0,0.4,0,0.7-0.1,0.9c0,0.2,0,0.5,0,0.8
			c0,0.3,0,0.6,0,0.9c0,0.3,0,0.6,0.1,0.9c0.3,0,0.6-0.1,0.8-0.2c0.3-0.1,0.6,0,0.8,0.2c0.2,0.2,0.3,0.5,0.2,0.8
			c-0.1,0.3-0.3,0.5-0.6,0.6c-0.7,0.2-1.9,0.2-3.4-0.1c-0.1,0-0.2-0.1-0.3-0.2c-0.1-0.1-0.2-0.1-0.2-0.2c-0.1-0.2-0.1-0.4,0-0.6
			c0.1-0.2,0.2-0.3,0.4-0.4c0.1,0,0.3-0.1,0.3-0.1h0.2c-0.1-0.6-0.1-2,0-4c0-0.6,0-1.6,0.1-2.9c0-1.3,0.1-2.2,0.1-2.8
			c0-0.8,0.1-1.8,0.1-2.9c0-1.1,0-2.2,0-3.3c0-1.1,0-2,0.1-2.9c-0.1,0-0.2,0-0.3,0c-0.1,0-0.2,0-0.3,0c-0.1,0-0.1,0-0.3-0.1
			c-0.1,0-0.2,0-0.2,0C381.6,180.5,381.5,180.5,381.4,180.5L381.4,180.5z"/>
		<path d="M397.1,199.6c0,0.3-0.1,0.6-0.3,0.7c-0.2,0.2-0.5,0.2-0.8,0.1c-0.3-0.1-0.5-0.3-0.5-0.6c-2.3-7.1-3.8-11.8-4.6-14.3
			c0.1,1.4,0.2,3.7,0.4,7.1c0.2,3.4,0.4,6,0.4,7.8c0,0.3-0.1,0.6-0.4,0.7c-0.3,0.1-0.6,0.1-0.8,0c-0.3-0.1-0.4-0.4-0.5-0.7
			c-0.1-0.5-0.1-0.9-0.1-1.1c0-0.1,0-0.3,0-0.4c0-1.3-0.2-3.3-0.3-5.9c-0.2-2.6-0.3-5-0.4-7.1c-0.1-2.1-0.1-4.1,0-6
			c0-0.2,0.1-0.4,0.2-0.5c0.1-0.1,0.2-0.2,0.4-0.2c0.2,0,0.3,0,0.5,0c0.2,0,0.3,0.1,0.4,0.2c0.1,0.1,0.2,0.3,0.2,0.5
			c0,0.1,0,0.1,0,0.2c0.8,2.4,2.4,7.3,4.8,14.7c0.2-3.1,0.3-5.2,0.3-6.2c0-0.4,0-1.1,0-2c0-0.9,0-1.6,0-2.2c0-0.5,0-1.2,0-2
			c0-0.8,0.1-1.5,0.2-2.1c-0.3-0.3-0.3-0.6-0.1-0.9c0.2-0.2,0.3-0.4,0.5-0.6c0.3-0.3,0.6-0.4,1-0.1c0.4,0.2,0.5,0.6,0.4,1
			c-0.2,0.9-0.3,1.9-0.4,2.9c0,1,0,2.2,0,3.5c0,1.4,0,2.3,0,2.9c0,1.1-0.1,2.8-0.3,5.1C397.1,196.6,397.1,198.4,397.1,199.6z"/>
		<path d="M402.6,201.5c-0.4,0-0.7-0.1-0.9-0.2c-0.2-0.1-0.4-0.3-0.5-0.6c-0.1-0.2-0.1-0.5-0.1-0.7c0-0.3,0-0.6,0-1
			c0-0.4,0-0.6,0-0.8v-3.7c0-3.2,0-5.9,0.1-7.9c0.1-2.7,0.1-4.8,0-6.5c-0.1-0.1-0.1-0.2-0.1-0.4c0-0.1,0-0.3,0-0.5
			c0-0.2,0.1-0.4,0.3-0.5c0.2-0.1,0.4-0.2,0.6-0.2c0,0,0.1,0,0.1,0c0.3,0,0.8,0,1.6,0c0.7,0,1.3,0,1.6,0c1-0.1,1.5,0.2,1.6,0.9
			c0,0.3-0.1,0.5-0.3,0.6c-0.2,0.2-0.5,0.2-0.7,0.2h-0.2h-0.1c0,0-0.1,0-0.2,0c-0.1,0-0.1,0-0.2,0c-0.1,0-0.2,0-0.3,0
			c-0.1,0-0.3,0-0.3,0c-0.4,0-1,0-1.8-0.1c0.2,1.6,0.2,3.6,0.2,5.9c0.2,0,0.4,0,0.7,0.1c0.3,0,0.5,0,0.7,0.1c0.2,0,0.4,0,0.7,0.1
			c0.3,0,0.5,0,0.7,0.1c0.3,0,0.6,0.2,0.7,0.5c0.1,0.3,0.1,0.6,0,0.9c-0.1,0.3-0.4,0.4-0.7,0.3c0,0-0.1,0-0.1,0c-0.1,0-0.1,0-0.1,0
			h0c-0.8-0.1-1.7-0.2-2.5-0.4c-0.1,2.6-0.1,4.2-0.1,4.9c0,3.1,0,5.4,0,7c0,0.1,0,0.3,0,0.5h0.3c0,0,1.1,0,3.2,0
			c0.2,0,0.4,0.1,0.5,0.2c0.1,0.1,0.2,0.3,0.3,0.4c0,0.2,0,0.3,0,0.5c0,0.2-0.1,0.3-0.3,0.4c-0.1,0.1-0.3,0.2-0.5,0.2
			c-0.3,0-1,0-1.8,0C403.5,201.6,402.9,201.6,402.6,201.5z"/>
	</g>
</g>
<g>
	<path d="M437,280.5c-0.4-12.4-3.6-21.4-9.6-26.7c-4.6-4.2-10.5-6-17.7-5.6c-4.8,0.3-9,2.9-12.7,5.2c-3.3,2.1-6.4,4.1-9.4,4.1
		c-2.8,0-6-2-9.4-4.2c-4.1-2.6-8.8-5.6-14-5.6c-6.2-0.1-11.9,2.1-16.3,6.4c-6.1,5.9-9.6,15.5-9.7,26.4
		c-0.5,41.9,28.4,68.9,49.3,69.9c0.3,0,0.6,0,0.8,0c7.4,0,16.1-4.5,24.4-12.7C424.4,326.2,437.8,304.3,437,280.5z M387.6,348.6
		c-19.8-0.9-48.1-26.9-47.6-68.1c0.2-17,9-31.3,24.2-31.1c9,0,16.3,9.7,23.5,9.7c7.1,0,13.7-8.8,22.2-9.3
		c7.1-0.4,24.4,0.8,25.4,30.6C436.4,313.9,407.4,349.6,387.6,348.6z"/>
	<path class="st3" d="M409.8,249.9c-8.5,0.5-15.1,9.3-22.2,9.3c-7.1,0-14.5-9.7-23.5-9.7c-15.2-0.2-24,14-24.2,31.1
		c-0.5,41.2,27.8,67.2,47.6,68.1c19.8,0.9,48.8-34.7,47.6-68.1C434.2,250.7,416.9,249.5,409.8,249.9z"/>
	<g>
		<path d="M370.9,283.5c-0.1,0.2-0.1,0.4-0.2,0.8c-0.1,0.4-0.2,0.7-0.3,1c-0.1,0.3-0.2,0.5-0.3,0.8c-0.1,0.5-0.1,1.1-0.1,1.8
			c0,0.6,0,1.2,0,1.7c0,0.5,0.1,1.1,0.1,1.8c0,0.7,0.1,1.3,0.1,1.7c0,0.4,0,1,0.1,1.8c0,0.8,0.1,1.5,0.1,1.9c0,0.2,0,0.5,0,0.9
			c0,0.4,0,0.8,0,1c0,0.3-0.2,0.5-0.4,0.7c-0.3,0.2-0.5,0.2-0.8,0.1c-0.3-0.1-0.4-0.3-0.5-0.6v0v-0.2h0c-0.1-3.4-0.2-5.4-0.2-6
			c0-0.5,0-1.2-0.1-2.1c-0.1-0.9-0.1-1.6-0.1-2.1c0-0.5,0-1.2,0.1-2.1c-0.2-0.3-0.4-0.7-0.5-1.1c-0.1-0.4-0.2-0.9-0.3-1.5
			c-0.1-0.6-0.1-1-0.2-1.2c-0.1-0.3-0.2-0.8-0.4-1.5c-0.2-0.7-0.3-1.4-0.4-1.9c-0.1-0.5-0.2-1.1-0.2-1.6c0-0.3,0.1-0.5,0.3-0.6
			c0.2-0.1,0.5-0.1,0.7,0c0.3,0.1,0.4,0.3,0.4,0.6c0.1,0.6,0.2,1.4,0.5,2.5c0.3,1.1,0.4,1.9,0.5,2.3c0,0.2,0.1,0.6,0.1,1
			c0-0.1,0.1-0.3,0.2-0.5c0.1-0.2,0.1-0.4,0.2-0.5c0.4-1.2,0.7-2,0.8-2.2c0.3-0.9,0.6-1.5,0.7-1.8c0.1-0.4,0.2-0.7,0.2-0.8
			c0,0,0-0.1,0-0.2h0c-0.2-0.4,0-0.8,0.4-0.9c0.5-0.2,0.8-0.1,1,0.3c0.1,0.2,0.2,0.4,0.2,0.7c0,0.3,0,0.5-0.1,0.9
			c-0.1,0.3-0.2,0.6-0.3,0.8c-0.1,0.2-0.2,0.5-0.4,0.8c-0.2,0.3-0.3,0.5-0.3,0.7C371.6,281.4,371.2,282.4,370.9,283.5z"/>
		<path d="M384.9,285.6c0,0.3,0,0.6,0.1,1.1c0,0.5,0,0.9,0,1.1c0,0.3,0,0.7,0,1.1c0,0.4,0,0.8,0,1.1c0,0.3,0,0.7,0,1.1
			c0,0.4,0,0.8,0,1.1c0,0.3-0.1,0.7-0.1,1.1c0,0.4-0.1,0.8-0.2,1.1c-0.1,0.5-0.2,1.1-0.4,1.6c-0.2,0.5-0.4,1-0.7,1.5
			c-0.3,0.5-0.6,0.9-1,1.2c-0.4,0.3-0.8,0.5-1.4,0.6c-0.5,0.1-1.1,0.1-1.7-0.1c-0.6-0.2-1-0.4-1.4-0.8c-0.4-0.3-0.7-0.7-1-1.2
			c-0.2-0.5-0.4-0.9-0.6-1.4c-0.1-0.4-0.3-1-0.4-1.6c-0.5-2.7-0.7-5.5-0.7-8.3c0-0.1,0.1-1.6,0.2-4.6c0,0,0-0.2,0-0.3
			c0-0.2,0-0.3,0-0.4c0-0.1,0-0.2,0-0.3c0-0.2,0-0.3,0-0.4c0-0.1,0-0.2,0-0.3c0-0.2,0-0.3,0.1-0.4c0-0.1,0.1-0.2,0.1-0.3
			c0-0.1,0.1-0.2,0.1-0.3c0-0.1,0.1-0.2,0.1-0.3c0.3-0.6,0.8-1,1.3-1.3c0.6-0.3,1.1-0.4,1.8-0.3c0.2-0.2,0.5-0.3,0.8-0.2
			c0.3,0,0.6,0.1,0.8,0.2c0.3,0.1,0.5,0.3,0.8,0.6c0.3,0.3,0.5,0.5,0.7,0.7c0.2,0.2,0.4,0.4,0.5,0.7c0.7,0.9,1.1,1.9,1.4,3
			C384.7,282.9,384.8,284.2,384.9,285.6z M382.6,296.1c0.4-1.1,0.7-2.5,0.8-4.1c0.1-1.6,0.1-3,0-4.2c0-0.3,0-0.8,0-1.6
			c0-0.8,0-1.4-0.1-1.8c0-0.4-0.1-0.9-0.2-1.5c-0.1-0.6-0.3-1.2-0.4-1.6c-0.2-0.6-0.6-1.2-1.1-1.8c-0.1-0.2-0.3-0.3-0.5-0.5
			c-0.2,0.1-0.4,0-0.6-0.1c-0.1-0.1-0.3-0.2-0.4-0.2c-0.3,0.1-0.5,0.1-0.8-0.1c-0.4,0-0.7,0.1-0.9,0.3c-0.3,0.2-0.4,0.5-0.5,0.8
			c-0.1,0.3-0.1,0.6-0.2,1c0,0.4-0.1,0.6-0.1,0.9c0,0.2,0,0.6,0,1c0,0.4,0,0.7,0,0.9c-0.2,3.8-0.2,6.7,0.2,8.7
			c0.3,2,0.6,3.4,0.8,4.1c0.4,1.1,1.1,1.6,2.1,1.7C381.3,297.9,382.1,297.4,382.6,296.1z"/>
		<path d="M393.5,277.7c0-0.3,0.1-0.6,0.4-0.7c0.3-0.1,0.6-0.1,0.8,0c0.3,0.1,0.4,0.4,0.4,0.7c0,1.2,0.1,3.2,0.2,6
			c0.1,2.8,0.2,5,0.1,6.5c0,0.6,0,1.6,0,2.8c0,1.2,0,2.1,0,2.7c-0.1,2-0.7,3.2-2,3.5c-0.7,0.2-1.4,0-2-0.6c-0.6-0.6-1.1-1.2-1.5-2
			c-0.5-1.2-0.9-3-1.1-5.3c-0.1-1.7-0.2-4.2-0.3-7.3c0-3.2-0.1-5.1-0.1-5.8c0-0.4,0.2-0.7,0.6-0.7c0.4-0.1,0.7,0.1,0.8,0.5
			c0,0.1,0.1,0.1,0.1,0.2c0.1,1.4,0.2,3.4,0.2,6c0.1,2.6,0.1,4.4,0.2,5.3c0.1,1.8,0.3,3.5,0.7,5c0.2,1.1,0.6,1.8,0.9,2.2
			c0.1,0.1,0.3,0.3,0.4,0.4c0.1,0.1,0.3,0.2,0.5,0.3c0.2,0.1,0.3,0.1,0.5,0c0.1-0.1,0.3-0.2,0.3-0.5c0.1-0.4,0.2-0.8,0.2-1.2
			c0-0.4,0-0.9,0-1.5c0-0.6,0-1,0-1.3c0.1-3.2,0.1-5,0.1-5.3c0-0.9-0.1-2-0.1-3.2c-0.1-1.3-0.1-2.5-0.2-3.6
			C393.5,279.8,393.5,278.7,393.5,277.7z"/>
		<path d="M407.8,285.8c0.3,0,0.5,0.1,0.6,0.3c0.1,0.2,0.2,0.5,0.1,0.8c-0.1,0.3-0.2,0.4-0.5,0.5c-0.7,0.1-1.5,0.4-2.4,0.8
			c0.6,1.3,0.9,2.8,0.9,4.5c0,0.8,0,1.4-0.2,1.9c-0.1,0.5-0.3,1.1-0.6,1.9c-0.3,0.7-0.6,1.4-1,2c-0.4,0.6-0.9,1-1.4,1.3
			c-0.6,0.3-1.2,0.3-1.8,0.2c-0.6-0.2-1-0.5-1.5-1c-0.7-0.9-1.1-1.8-1.4-2.9c-0.3-1.1-0.4-2.1-0.3-3c0.1-0.9,0.2-2,0.5-3.2
			c0.4-1.8,0.9-3.3,1.5-4.7c0.1-0.3,0.2-0.5,0.4-0.8c-0.2-0.1-0.3-0.2-0.5-0.2c-0.7-0.4-1.1-1-1.2-1.7c-0.2-1.4,0.1-2.8,0.8-4.1
			c0.2-0.3,0.4-0.6,0.7-0.8c0.3-0.3,0.5-0.5,0.9-0.6c0.3-0.2,0.6-0.3,1-0.3c0.3,0,0.7,0.1,1.1,0.3c0.6,0.4,1,0.9,1.2,1.6
			c0.2,0.7,0.2,1.4-0.1,2.1c-0.1,0.3-0.3,0.4-0.5,0.5c-0.3,0.1-0.5,0-0.7-0.2c-0.2-0.2-0.2-0.4-0.2-0.7c0.1-0.3,0.2-0.7,0.1-1.2
			c-0.1-0.5-0.3-0.8-0.8-0.9c-0.6-0.1-1.1,0.4-1.6,1.4c-0.4,0.9-0.5,1.6-0.5,2.3c0,0.3,0.1,0.5,0.2,0.7c0.1,0.2,0.3,0.2,0.6,0.3
			c0.2,0,0.4,0,0.6,0c0.2,0,0.4-0.1,0.7-0.2c0.2,0,0.4,0,0.5,0.1c0.2,0.1,0.3,0.2,0.3,0.3c0.1,0.1,0.1,0.3,0.1,0.4
			c0,0.2,0,0.3-0.1,0.4c-0.1,0.1-0.2,0.2-0.4,0.3c-0.2,0.1-0.4,0.2-0.5,0.3c-0.2,0.2-0.3,0.4-0.5,0.7c-0.2,0.3-0.3,0.5-0.3,0.6
			c-0.1,0.1-0.1,0.3-0.3,0.6c-0.5,1.4-0.9,2.5-1.1,3.5c-0.2,1.1-0.4,1.9-0.5,2.6s-0.1,1.4,0.1,2.3c0.1,0.9,0.4,1.7,0.8,2.5
			c0.7,1.3,1.4,1.5,2.2,0.6c0.7-0.7,1.1-1.7,1.4-2.8c0.3-1.1,0.4-2.1,0.4-3.1c0-0.9-0.3-1.9-0.7-3c-0.1,0-0.1,0.1-0.2,0.1
			c-0.1,0.1-0.2,0.1-0.3,0.2c-0.1,0.1-0.2,0.1-0.2,0.1c-0.3,0.2-0.5,0.2-0.8,0c-0.2-0.2-0.4-0.4-0.4-0.6c0-0.3,0.1-0.5,0.4-0.6
			c0.1-0.1,0.3-0.2,0.6-0.4c0.4-0.2,0.6-0.4,0.7-0.4c0.1-0.1,0.4-0.2,0.7-0.4c0.3-0.2,0.6-0.3,0.8-0.4c0.2-0.1,0.4-0.2,0.7-0.3
			s0.5-0.2,0.8-0.2C407.3,285.9,407.6,285.9,407.8,285.8z"/>
		<path d="M383.7,320.3c-0.1,0.4-0.3,0.6-0.8,0.6c-0.4,0-0.7-0.2-0.8-0.6c-0.2-0.7-0.6-2-1.2-3.8c-0.5-1.8-1-3.2-1.3-4.2
			c0,0.3-0.1,0.9-0.1,1.8c-0.1,0.9-0.1,1.7-0.1,2.3c0,0.6,0,1.2,0,1.8c0,1,0,2.6,0.1,4.7c0,2.1,0,3.7,0.1,4.7c0,0.3-0.1,0.6-0.4,0.7
			c-0.3,0.1-0.5,0.1-0.8,0c-0.3-0.1-0.4-0.4-0.5-0.7c0-0.1,0-0.3-0.1-0.5c0-0.2,0-0.4-0.1-0.5c0-0.1,0-0.3,0.1-0.4
			c0-0.8,0-1.7,0-2.6c0-0.9,0-1.9,0-3c0-1.1,0-1.9,0-2.5c0-0.9,0-1.9,0.1-3c0.1-1.1,0.1-2.2,0.2-3.4c0.1-1.1,0.1-2.1,0.1-3
			c0-0.3,0.1-0.5,0.3-0.6c0.3-0.1,0.5-0.1,0.8,0c0.3,0.1,0.4,0.3,0.4,0.7v0.1c0.5,0.7,0.9,1.6,1.3,2.6c0.4,1,0.7,1.8,1,2.5
			s0.5,1.6,0.9,2.8c0.7-2.5,1.9-5.4,3.6-8.5c0.2-0.4,0.5-0.5,1-0.4c0.4,0.1,0.6,0.4,0.6,0.8c0.1,2.3,0.1,5.6-0.1,9.9
			c-0.2,4.3-0.3,7.3-0.3,9c0,0.3-0.1,0.6-0.4,0.7c-0.3,0.1-0.5,0.1-0.8,0c-0.3-0.1-0.4-0.4-0.4-0.7c-0.1-2,0-4.7,0.1-8.3
			c0.2-3.6,0.3-6,0.3-7.2C385,315.1,384.1,317.8,383.7,320.3z"/>
		<path d="M393,329.8c-0.4,0-0.7-0.1-0.9-0.2c-0.2-0.1-0.4-0.3-0.5-0.6c-0.1-0.2-0.1-0.5-0.1-0.7c0-0.3,0-0.6,0-1c0-0.4,0-0.6,0-0.8
			v-3.7c0-3.2,0-5.9,0.1-7.9c0.1-2.7,0.1-4.8,0-6.5c-0.1-0.1-0.1-0.2-0.1-0.4c0-0.1,0-0.3,0-0.5c0-0.2,0.1-0.4,0.3-0.5
			c0.2-0.1,0.4-0.2,0.6-0.2c0,0,0.1,0,0.1,0c0.3,0,0.8,0,1.6,0c0.7,0,1.3,0,1.6,0c1-0.1,1.5,0.2,1.6,0.9c0,0.3-0.1,0.5-0.3,0.6
			c-0.2,0.2-0.5,0.2-0.7,0.2H396H396c0,0-0.1,0-0.2,0c-0.1,0-0.1,0-0.2,0c-0.1,0-0.2,0-0.3,0c-0.1,0-0.3,0-0.3,0c-0.4,0-1,0-1.8-0.1
			c0.2,1.6,0.2,3.6,0.2,5.9c0.2,0,0.4,0,0.7,0.1c0.3,0,0.5,0,0.7,0.1c0.2,0,0.4,0,0.7,0.1c0.3,0,0.5,0,0.7,0.1
			c0.3,0,0.6,0.2,0.7,0.5c0.1,0.3,0.1,0.6,0,0.9c-0.1,0.3-0.4,0.4-0.7,0.3c0,0-0.1,0-0.1,0c-0.1,0-0.1,0-0.1,0h0
			c-0.8-0.1-1.7-0.2-2.5-0.4c-0.1,2.6-0.1,4.2-0.1,4.9c0,3.1,0,5.4,0,7c0,0.1,0,0.3,0,0.5h0.3c0,0,1.1,0,3.2,0
			c0.2,0,0.4,0.1,0.5,0.2c0.1,0.1,0.2,0.3,0.3,0.4c0,0.2,0,0.3,0,0.5c0,0.2-0.1,0.3-0.3,0.4c-0.1,0.1-0.3,0.2-0.5,0.2
			c-0.3,0-1,0-1.8,0C393.9,329.8,393.3,329.8,393,329.8z"/>
	</g>
</g>
<g>
	<path d="M302,280.5c-0.4-12.4-3.6-21.4-9.6-26.7c-4.6-4.2-10.5-6-17.7-5.6c-4.8,0.3-9,2.9-12.7,5.2c-3.3,2.1-6.4,4.1-9.4,4.1
		c-2.8,0-6-2-9.4-4.2c-4.1-2.6-8.8-5.6-14-5.6c-6.2-0.1-11.9,2.1-16.3,6.4c-6.1,5.9-9.6,15.5-9.7,26.4
		c-0.5,41.9,28.4,68.9,49.3,69.9c0.3,0,0.6,0,0.8,0c7.4,0,16.1-4.5,24.4-12.7C289.4,326.2,302.8,304.3,302,280.5z M252.6,348.6
		c-19.8-0.9-48.1-26.9-47.6-68.1c0.2-17,9-31.3,24.2-31.1c9,0,16.3,9.7,23.5,9.7c7.1,0,13.7-8.8,22.2-9.3
		c7.1-0.4,24.4,0.8,25.4,30.6C301.4,313.9,272.4,349.6,252.6,348.6z"/>
	<path class="st4" d="M274.8,249.9c-8.5,0.5-15.1,9.3-22.2,9.3c-7.1,0-14.5-9.7-23.5-9.7c-15.2-0.2-24,14-24.2,31.1
		c-0.5,41.2,27.8,67.2,47.6,68.1c19.8,0.9,48.8-34.7,47.6-68.1C299.2,250.7,281.9,249.5,274.8,249.9z"/>
	<g>
		<path d="M233.7,299.6c-0.2,0-0.4-0.1-0.6-0.3c-0.2-0.2-0.3-0.4-0.3-0.6c-0.1-3,0-6.5,0.2-10.5c0-0.7,0.1-1.8,0.2-3.1
			c0.1-1.3,0.1-2.6,0.2-3.7c0.1-1.1,0.1-2.1,0.2-3.1c0-0.1,0-0.2,0-0.3v-0.1c0-0.2,0-0.3,0.2-0.5c0.1-0.1,0.2-0.2,0.4-0.2
			c0.1,0,0.3,0,0.4,0c0.1,0,0.3,0.1,0.4,0.2c0.1,0.1,0.2,0.3,0.2,0.5c0,1.9,0,3,0,3.4c0,0.4-0.1,1.6-0.2,3.4c-0.1,1.9-0.2,3-0.2,3.4
			c-0.2,3.8-0.3,7.1-0.2,9.6c1.1,0,2,0,2.7-0.1c0.2,0,0.4,0,0.6,0c0.2,0,0.4,0.1,0.6,0.2c0.2,0.1,0.3,0.3,0.4,0.5
			c0.1,0.4,0,0.6-0.3,0.8c-0.3,0.2-0.6,0.2-0.9,0.1c-0.1,0-0.3,0-0.4,0c-0.2,0-0.3,0-0.5,0.1s-0.3,0.1-0.4,0.1
			C235.8,299.6,234.9,299.6,233.7,299.6z"/>
		<path d="M251.5,285.8c0,0.3,0,0.6,0.1,1.1c0,0.5,0,0.9,0,1.1c0,0.3,0,0.7,0,1.1c0,0.4,0,0.8,0,1.1c0,0.3,0,0.7,0,1.1
			c0,0.4,0,0.8,0,1.1c0,0.3-0.1,0.7-0.1,1.1c0,0.4-0.1,0.8-0.2,1.1c-0.1,0.5-0.2,1.1-0.4,1.6c-0.2,0.5-0.4,1-0.7,1.5
			c-0.3,0.5-0.6,0.9-1,1.2c-0.4,0.3-0.8,0.5-1.4,0.6c-0.5,0.1-1.1,0.1-1.7-0.1c-0.6-0.2-1-0.4-1.4-0.8c-0.4-0.3-0.7-0.7-1-1.2
			c-0.2-0.5-0.4-0.9-0.6-1.4c-0.1-0.4-0.3-1-0.4-1.6c-0.5-2.7-0.7-5.5-0.7-8.3c0-0.1,0.1-1.6,0.2-4.6c0,0,0-0.2,0-0.3s0-0.3,0-0.4
			c0-0.1,0-0.2,0-0.3c0-0.2,0-0.3,0-0.4s0-0.2,0-0.3c0-0.2,0-0.3,0.1-0.4c0-0.1,0.1-0.2,0.1-0.3c0-0.1,0.1-0.2,0.1-0.3
			c0-0.1,0.1-0.2,0.1-0.3c0.3-0.6,0.8-1,1.3-1.3c0.6-0.3,1.1-0.4,1.8-0.3c0.2-0.2,0.5-0.3,0.8-0.2c0.3,0,0.6,0.1,0.8,0.2
			c0.3,0.1,0.5,0.3,0.8,0.6c0.3,0.3,0.5,0.5,0.7,0.7c0.2,0.2,0.4,0.4,0.5,0.7c0.7,0.9,1.1,1.9,1.4,3
			C251.3,283,251.4,284.3,251.5,285.8z M249.2,296.3c0.4-1.1,0.7-2.5,0.8-4.1s0.1-3,0-4.2c0-0.3,0-0.8,0-1.6c0-0.8,0-1.4-0.1-1.8
			c0-0.4-0.1-0.9-0.2-1.5c-0.1-0.6-0.3-1.2-0.4-1.6c-0.2-0.6-0.6-1.2-1.1-1.8c-0.1-0.2-0.3-0.3-0.5-0.5c-0.2,0.1-0.4,0-0.6-0.1
			c-0.1-0.1-0.3-0.2-0.4-0.2c-0.3,0.1-0.5,0.1-0.8-0.1c-0.4,0-0.7,0.1-0.9,0.3c-0.3,0.2-0.4,0.5-0.5,0.8c-0.1,0.3-0.1,0.6-0.2,1
			c0,0.4-0.1,0.6-0.1,0.9c0,0.2,0,0.6,0,1c0,0.4,0,0.7,0,0.9c-0.2,3.8-0.2,6.7,0.2,8.7c0.3,2,0.6,3.4,0.8,4.1
			c0.4,1.1,1.1,1.6,2.1,1.7C247.9,298.1,248.7,297.5,249.2,296.3z"/>
		<path d="M262.3,282.2c-0.4,3-0.7,4.8-0.8,5.6c-0.1,0.5-0.2,1.4-0.3,2.7c-0.1,1.3-0.2,2.3-0.3,3c-0.1,0.6-0.2,1.6-0.5,2.8
			c-0.2,1.2-0.4,2.1-0.5,2.7c-0.1,0.4-0.3,0.6-0.8,0.6c-0.4,0-0.7-0.2-0.8-0.6c-0.1-0.3-0.2-0.5-0.2-0.8c-0.1-0.3-0.1-0.6-0.2-0.8
			c0-0.3-0.1-0.5-0.1-0.8c0-0.3-0.1-0.6-0.1-0.8c0-0.3-0.1-0.5-0.1-0.8c0-0.3-0.1-0.6-0.1-0.8c-0.2-1.2-0.5-3-1-5.4
			c-0.2-0.8-0.3-1.8-0.5-2.8c-0.2-1-0.3-1.9-0.4-2.4c-0.1-0.6-0.2-1.6-0.4-3c-0.2-1.4-0.3-2.3-0.3-2.6c0-0.2,0.1-0.4,0.3-0.6
			c0.2-0.1,0.5-0.2,0.7-0.1c0.3,0.1,0.4,0.2,0.5,0.5c0.2,1.1,0.5,2.9,0.9,5.4c0.4,2.5,0.7,4.4,1,5.7c0.6,2.9,0.9,4.6,1,5.1l0.1-0.8
			c0.4-3.7,0.6-5.6,0.6-5.7c0.2-1.6,0.5-3.4,0.8-5.4c0.1-0.6,0.3-1.5,0.6-2.7c0.3-1.1,0.5-1.9,0.6-2.2c0.1-0.3,0.3-0.5,0.6-0.6
			c0.3-0.1,0.6,0,0.8,0.2c0.2,0.2,0.3,0.5,0.2,0.8c-0.1,0.3-0.2,0.7-0.3,1.2c-0.1,0.5-0.2,0.9-0.3,1.2c-0.1,0.4-0.2,0.8-0.3,1.2
			C262.4,281.4,262.4,281.8,262.3,282.2z"/>
		<path d="M267.9,299.9c-0.4,0-0.7-0.1-0.9-0.2c-0.2-0.1-0.4-0.3-0.5-0.6c-0.1-0.2-0.1-0.5-0.1-0.7c0-0.3,0-0.6,0-1
			c0-0.4,0-0.6,0-0.8V293c0-3.2,0-5.9,0.1-7.9c0.1-2.7,0.1-4.8,0-6.5c-0.1-0.1-0.1-0.2-0.1-0.4c0-0.1,0-0.3,0-0.5
			c0-0.2,0.1-0.4,0.3-0.5c0.2-0.1,0.4-0.2,0.6-0.2c0,0,0.1,0,0.1,0c0.3,0,0.8,0,1.6,0c0.7,0,1.3,0,1.6,0c1-0.1,1.5,0.2,1.6,0.9
			c0,0.3-0.1,0.5-0.3,0.6c-0.2,0.2-0.5,0.2-0.7,0.2h-0.2h-0.1c0,0-0.1,0-0.2,0c-0.1,0-0.1,0-0.2,0c-0.1,0-0.2,0-0.3,0
			c-0.1,0-0.3,0-0.3,0c-0.4,0-1,0-1.8-0.1c0.2,1.6,0.2,3.6,0.2,5.9c0.2,0,0.4,0,0.7,0.1c0.3,0,0.5,0,0.7,0.1c0.2,0,0.4,0,0.7,0.1
			c0.3,0,0.5,0,0.7,0.1c0.3,0,0.6,0.2,0.7,0.5c0.1,0.3,0.1,0.6,0,0.9c-0.1,0.3-0.4,0.4-0.7,0.3c0,0-0.1,0-0.1,0c-0.1,0-0.1,0-0.1,0
			h0c-0.8-0.1-1.7-0.2-2.5-0.4c-0.1,2.6-0.1,4.2-0.1,4.9c0,3.1,0,5.4,0,7c0,0.1,0,0.3,0,0.5h0.3c0,0,1.1,0,3.2,0
			c0.2,0,0.4,0.1,0.5,0.2c0.1,0.1,0.2,0.3,0.3,0.4c0,0.2,0,0.3,0,0.5c0,0.2-0.1,0.3-0.3,0.4c-0.1,0.1-0.3,0.2-0.5,0.2
			c-0.3,0-1,0-1.8,0C268.9,299.9,268.2,299.9,267.9,299.9z"/>
		<path d="M242.3,313.7c-0.1,0.2-0.1,0.4-0.2,0.8c-0.1,0.4-0.2,0.7-0.3,1s-0.2,0.5-0.3,0.8c-0.1,0.5-0.1,1.1-0.1,1.8s0,1.2,0,1.7
			c0,0.5,0.1,1.1,0.1,1.8c0,0.7,0.1,1.3,0.1,1.7c0,0.4,0,1,0.1,1.8c0,0.8,0.1,1.5,0.1,1.9c0,0.2,0,0.5,0,0.9c0,0.4,0,0.8,0,1
			c0,0.3-0.2,0.5-0.4,0.7c-0.3,0.2-0.5,0.2-0.8,0.1c-0.3-0.1-0.4-0.3-0.5-0.6v0v-0.2h0c-0.1-3.4-0.2-5.4-0.2-6c0-0.5,0-1.2-0.1-2.1
			c-0.1-0.9-0.1-1.6-0.1-2.1c0-0.5,0-1.2,0.1-2.1c-0.2-0.3-0.4-0.7-0.5-1.1c-0.1-0.4-0.2-0.9-0.3-1.5c-0.1-0.6-0.1-1-0.2-1.2
			c-0.1-0.3-0.2-0.8-0.4-1.5c-0.2-0.7-0.3-1.4-0.4-1.9c-0.1-0.5-0.2-1.1-0.2-1.6c0-0.3,0.1-0.5,0.3-0.6c0.2-0.1,0.5-0.1,0.7,0
			c0.3,0.1,0.4,0.3,0.4,0.6c0.1,0.6,0.2,1.5,0.5,2.5c0.3,1.1,0.4,1.9,0.5,2.3c0,0.2,0.1,0.6,0.1,1c0-0.1,0.1-0.3,0.2-0.5
			c0.1-0.2,0.1-0.4,0.2-0.5c0.4-1.2,0.7-2,0.8-2.2c0.3-0.9,0.6-1.5,0.7-1.8c0.1-0.4,0.2-0.7,0.2-0.8c0,0,0-0.1,0-0.2h0
			c-0.2-0.4,0-0.8,0.4-0.9c0.5-0.2,0.8-0.1,1,0.3c0.1,0.2,0.2,0.4,0.2,0.7c0,0.3,0,0.5-0.1,0.9c-0.1,0.3-0.2,0.6-0.3,0.8
			c-0.1,0.2-0.2,0.5-0.4,0.8c-0.2,0.3-0.3,0.5-0.3,0.7C243,311.7,242.6,312.6,242.3,313.7z"/>
		<path d="M256.3,315.9c0,0.3,0,0.6,0.1,1.1c0,0.5,0,0.9,0,1.1c0,0.3,0,0.7,0,1.1c0,0.4,0,0.8,0,1.1c0,0.3,0,0.7,0,1.1
			c0,0.4,0,0.8,0,1.1c0,0.3-0.1,0.7-0.1,1.1c0,0.4-0.1,0.8-0.2,1.1c-0.1,0.5-0.2,1.1-0.4,1.6c-0.2,0.5-0.4,1-0.7,1.5
			c-0.3,0.5-0.6,0.9-1,1.2s-0.8,0.5-1.4,0.6c-0.5,0.1-1.1,0.1-1.7-0.1c-0.6-0.2-1-0.4-1.4-0.8c-0.4-0.3-0.7-0.7-1-1.2
			c-0.2-0.5-0.4-0.9-0.6-1.4c-0.1-0.4-0.3-1-0.4-1.6c-0.5-2.7-0.7-5.5-0.7-8.3c0-0.1,0.1-1.6,0.2-4.6c0,0,0-0.2,0-0.3s0-0.3,0-0.4
			s0-0.2,0-0.3c0-0.2,0-0.3,0-0.4c0-0.1,0-0.2,0-0.3c0-0.2,0-0.3,0.1-0.4c0-0.1,0.1-0.2,0.1-0.3c0-0.1,0.1-0.2,0.1-0.3
			c0-0.1,0.1-0.2,0.1-0.3c0.3-0.6,0.8-1,1.3-1.3c0.6-0.3,1.1-0.4,1.8-0.3c0.2-0.2,0.5-0.3,0.8-0.2c0.3,0,0.6,0.1,0.8,0.2
			c0.3,0.1,0.5,0.3,0.8,0.6c0.3,0.3,0.5,0.5,0.7,0.7c0.2,0.2,0.4,0.4,0.5,0.7c0.7,0.9,1.1,1.9,1.4,3
			C256.1,313.1,256.2,314.4,256.3,315.9z M253.9,326.4c0.4-1.1,0.7-2.5,0.8-4.1c0.1-1.6,0.1-3,0-4.2c0-0.3,0-0.8,0-1.6
			s0-1.4-0.1-1.8c0-0.4-0.1-0.9-0.2-1.5c-0.1-0.6-0.3-1.2-0.4-1.6c-0.2-0.6-0.6-1.2-1.1-1.8c-0.1-0.2-0.3-0.3-0.5-0.5
			c-0.2,0.1-0.4,0-0.6-0.1c-0.1-0.1-0.3-0.2-0.4-0.2c-0.3,0.1-0.5,0.1-0.8-0.1c-0.4,0-0.7,0.1-0.9,0.3c-0.3,0.2-0.4,0.5-0.5,0.8
			c-0.1,0.3-0.1,0.6-0.2,1c0,0.4-0.1,0.6-0.1,0.9c0,0.2,0,0.6,0,1c0,0.4,0,0.7,0,0.9c-0.2,3.8-0.2,6.7,0.2,8.7
			c0.3,2,0.6,3.4,0.8,4.1c0.4,1.1,1.1,1.6,2.1,1.7C252.7,328.2,253.5,327.6,253.9,326.4z"/>
		<path d="M264.8,307.9c0-0.3,0.1-0.6,0.4-0.7c0.3-0.1,0.6-0.1,0.8,0c0.3,0.1,0.4,0.4,0.4,0.7c0,1.2,0.1,3.2,0.2,6
			c0.1,2.8,0.2,5,0.1,6.5c0,0.6,0,1.6,0,2.8c0,1.2,0,2.1,0,2.7c-0.1,2-0.7,3.2-2,3.5c-0.7,0.2-1.4,0-2-0.6c-0.6-0.6-1.1-1.2-1.5-2
			c-0.5-1.2-0.9-3-1.1-5.3c-0.1-1.7-0.2-4.2-0.3-7.3c0-3.2-0.1-5.1-0.1-5.8c0-0.4,0.2-0.7,0.6-0.7c0.4-0.1,0.7,0.1,0.8,0.5
			c0,0.1,0.1,0.1,0.1,0.2c0.1,1.4,0.2,3.4,0.2,6c0.1,2.6,0.1,4.4,0.2,5.3c0.1,1.8,0.3,3.5,0.7,5c0.2,1.1,0.6,1.8,0.9,2.2
			c0.1,0.1,0.3,0.3,0.4,0.4c0.1,0.1,0.3,0.2,0.5,0.3c0.2,0.1,0.3,0.1,0.5,0c0.1-0.1,0.3-0.2,0.3-0.5c0.1-0.4,0.2-0.8,0.2-1.2
			c0-0.4,0-0.9,0-1.5c0-0.6,0-1,0-1.3c0.1-3.2,0.1-5,0.1-5.3c0-0.9-0.1-2-0.1-3.2c-0.1-1.3-0.1-2.5-0.2-3.6
			C264.9,310,264.8,308.9,264.8,307.9z"/>
	</g>
</g>
<g>
	<path d="M167,280.5c-0.4-12.4-3.6-21.4-9.6-26.7c-4.6-4.2-10.5-6-17.7-5.6c-4.8,0.3-9,2.9-12.7,5.2c-3.3,2.1-6.4,4.1-9.4,4.1
		c-2.8,0-6-2-9.4-4.2c-4.1-2.6-8.8-5.6-14-5.6c-6.2-0.1-11.9,2.1-16.3,6.4c-6.1,5.9-9.6,15.5-9.7,26.4
		c-0.5,41.9,28.4,68.9,49.3,69.9c0.3,0,0.6,0,0.8,0c7.4,0,16.1-4.5,24.4-12.7C154.4,326.2,167.8,304.3,167,280.5z M117.6,348.6
		c-19.8-0.9-48.1-26.9-47.6-68.1c0.2-17,9-31.3,24.2-31.1c9,0,16.3,9.7,23.5,9.7c7.1,0,13.7-8.8,22.2-9.3
		c7.1-0.4,24.4,0.8,25.4,30.6C166.3,313.9,137.4,349.6,117.6,348.6z"/>
	<path class="st5" d="M139.8,249.9c-8.5,0.5-15.1,9.3-22.2,9.3c-7.1,0-14.5-9.7-23.5-9.7c-15.2-0.2-24,14-24.2,31.1
		c-0.5,41.2,27.8,67.2,47.6,68.1c19.8,0.9,48.8-34.7,47.6-68.1C164.2,250.7,146.9,249.5,139.8,249.9z"/>
	<g>
		<path d="M102.1,295.9c0,0.3-0.1,0.6-0.4,0.7c-0.3,0.1-0.5,0.1-0.8,0c-0.3-0.1-0.4-0.4-0.5-0.7c-0.1-2.1-0.1-4.3,0-6.6
			c0.1-2.4,0.2-4.9,0.3-7.8c0.2-2.8,0.2-5,0.3-6.6c-1.1,0-2,0-2.6,0c-0.3,0-0.5-0.1-0.6-0.3c-0.1-0.2-0.1-0.5,0-0.7
			c0.1-0.3,0.3-0.4,0.6-0.4c0.5,0,1.2-0.1,2-0.1s1.5,0,2.2-0.1c0.7,0,1.4-0.1,2-0.2c0.3-0.1,0.6,0,0.8,0.3c0.2,0.2,0.3,0.5,0.2,0.8
			c-0.1,0.3-0.3,0.5-0.6,0.5c-0.7,0.1-1.6,0.2-2.5,0.2c0,2.2,0,5.6-0.3,10.3S102,293.4,102.1,295.9z"/>
		<path d="M114.4,291.3c0.2,1,0.4,1.9,0.6,2.6c0.2,0.8,0.4,1.5,0.7,2.2c0.2,0.4,0,0.7-0.4,0.9c-0.4,0.2-0.7,0.2-1-0.1
			c-0.2-0.2-0.4-0.4-0.5-0.5c-0.3-0.3-0.3-0.6-0.1-1c-0.3-0.9-0.6-2.1-1-3.8c-0.4-1.6-0.6-2.7-0.8-3.2c-0.1-0.5-0.3-1.1-0.5-2
			c-0.2-0.9-0.4-1.6-0.5-2c0,0.1,0,0.3,0,0.4c0,0.1,0,0.3,0,0.4c0,0.1,0,0.3,0,0.4c0,1.1,0,2.7,0,4.8c0.1,2.2,0.1,3.8,0,4.8
			c0,0.3-0.1,0.6-0.4,0.7c-0.3,0.1-0.6,0.1-0.8,0c-0.3-0.1-0.4-0.4-0.4-0.7c0-1,0-2.7,0-5c0-2.3,0-4,0-5.1c0.2-4.2,0.3-7.3,0.4-9.5
			c-0.2-0.2-0.2-0.4-0.2-0.6c0-0.2,0.1-0.4,0.3-0.6c0.7-0.4,1.4-0.6,2.1-0.5c0.7,0.1,1.4,0.4,2,0.8c0.6,0.4,1.1,1,1.4,1.6
			c0.4,0.7,0.5,1.4,0.4,2.1c-0.1,1-0.5,1.8-1.1,2.3c-0.6,0.5-1.5,0.9-2.6,1.1l0.1,0.3c0,0.1,0.1,0.3,0.2,0.5
			c0.1,0.2,0.1,0.4,0.2,0.5c0.1,0.4,0.3,1,0.5,1.8l1.1,3.9C114,289.6,114.2,290.3,114.4,291.3z M113.7,279.2
			c0.2-0.6,0.2-1.2,0.1-1.7c-0.2-0.6-0.5-1-1-1.4c-0.5-0.4-1.1-0.5-1.6-0.4c0,1.3,0,2.9-0.1,4.8c0.1,0,0.2,0,0.4-0.1
			c0.2,0,0.4-0.1,0.5-0.1c0.1,0,0.2-0.1,0.4-0.1c0.2,0,0.3-0.1,0.4-0.2c0.1-0.1,0.2-0.1,0.4-0.2c0.1-0.1,0.2-0.2,0.3-0.3
			C113.6,279.5,113.7,279.3,113.7,279.2z"/>
		<path d="M124.3,274.6c0-0.3,0.1-0.6,0.4-0.7c0.3-0.1,0.6-0.1,0.8,0c0.3,0.1,0.4,0.4,0.4,0.7c0,1.2,0.1,3.2,0.2,6
			c0.1,2.8,0.2,5,0.1,6.5c0,0.6,0,1.6,0,2.8c0,1.2,0,2.1,0,2.7c-0.1,2-0.7,3.2-2,3.5c-0.7,0.2-1.4,0-2-0.6c-0.6-0.6-1.1-1.2-1.5-2
			c-0.5-1.2-0.9-3-1.1-5.3c-0.1-1.7-0.2-4.2-0.3-7.3c0-3.2-0.1-5.1-0.1-5.8c0-0.4,0.2-0.7,0.6-0.7c0.4-0.1,0.7,0.1,0.8,0.5
			c0,0.1,0.1,0.1,0.1,0.2c0.1,1.4,0.2,3.4,0.2,6c0.1,2.6,0.1,4.4,0.2,5.3c0.1,1.8,0.3,3.5,0.7,5c0.2,1.1,0.6,1.8,0.9,2.2
			c0.1,0.1,0.3,0.3,0.4,0.4c0.1,0.1,0.3,0.2,0.5,0.3c0.2,0.1,0.3,0.1,0.5,0c0.1-0.1,0.3-0.2,0.3-0.5c0.1-0.4,0.2-0.8,0.2-1.2
			c0-0.4,0-0.9,0-1.5c0-0.6,0-1,0-1.3c0.1-3.2,0.1-5,0.1-5.3c0-0.9-0.1-2-0.1-3.2c-0.1-1.3-0.1-2.5-0.2-3.6
			C124.3,276.6,124.3,275.6,124.3,274.6z"/>
		<path d="M131.3,296.6c-0.4,0-0.7-0.1-0.9-0.2c-0.2-0.1-0.4-0.3-0.5-0.6c-0.1-0.2-0.1-0.5-0.1-0.7c0-0.3,0-0.6,0-1
			c0-0.4,0-0.6,0-0.8v-3.7c0-3.2,0-5.9,0.1-7.9c0.1-2.7,0.1-4.8,0-6.5c-0.1-0.1-0.1-0.2-0.1-0.4c0-0.1,0-0.3,0-0.5
			c0-0.2,0.1-0.4,0.3-0.5c0.2-0.1,0.4-0.2,0.6-0.2c0,0,0.1,0,0.1,0c0.3,0,0.8,0,1.6,0c0.7,0,1.3,0,1.6,0c1-0.1,1.5,0.2,1.6,0.9
			c0,0.3-0.1,0.5-0.3,0.6c-0.2,0.2-0.5,0.2-0.7,0.2h-0.2h-0.1c0,0-0.1,0-0.2,0c-0.1,0-0.1,0-0.2,0c-0.1,0-0.2,0-0.3,0
			c-0.1,0-0.3,0-0.3,0c-0.4,0-1,0-1.8-0.1c0.2,1.6,0.2,3.6,0.2,5.9c0.2,0,0.4,0,0.7,0.1c0.3,0,0.5,0,0.7,0.1c0.2,0,0.4,0,0.7,0.1
			c0.3,0,0.5,0,0.7,0.1c0.3,0,0.6,0.2,0.7,0.5c0.1,0.3,0.1,0.6,0,0.9c-0.1,0.3-0.4,0.4-0.7,0.3c0,0-0.1,0-0.1,0c-0.1,0-0.1,0-0.1,0
			h0c-0.8-0.1-1.7-0.2-2.5-0.4c-0.1,2.6-0.1,4.2-0.1,4.9c0,3.1,0,5.4,0,7c0,0.1,0,0.3,0,0.5h0.3c0,0,1.1,0,3.2,0
			c0.2,0,0.4,0.1,0.5,0.2c0.1,0.1,0.2,0.3,0.3,0.4c0,0.2,0,0.3,0,0.5c0,0.2-0.1,0.3-0.3,0.4c-0.1,0.1-0.3,0.2-0.5,0.2
			c-0.3,0-1,0-1.8,0C132.3,296.6,131.7,296.6,131.3,296.6z"/>
		<path d="M98.1,326.3c-0.2,0-0.4-0.1-0.6-0.3c-0.2-0.2-0.3-0.4-0.3-0.6c-0.1-3,0-6.5,0.2-10.5c0-0.7,0.1-1.8,0.2-3.1
			c0.1-1.3,0.1-2.6,0.2-3.7c0.1-1.1,0.1-2.1,0.2-3.1c0-0.1,0-0.2,0-0.3v-0.1c0-0.2,0-0.3,0.2-0.5c0.1-0.1,0.2-0.2,0.4-0.2
			c0.1,0,0.3,0,0.4,0c0.1,0,0.3,0.1,0.4,0.2c0.1,0.1,0.2,0.3,0.2,0.5c0,1.9,0,3,0,3.4c0,0.4-0.1,1.6-0.2,3.4c-0.1,1.9-0.2,3-0.2,3.4
			c-0.2,3.8-0.3,7.1-0.2,9.6c1.1,0,2,0,2.7-0.1c0.2,0,0.4,0,0.6,0s0.4,0.1,0.6,0.2c0.2,0.1,0.3,0.3,0.4,0.5c0.1,0.4,0,0.6-0.3,0.8
			c-0.3,0.2-0.6,0.2-0.9,0.1c-0.1,0-0.3,0-0.4,0c-0.2,0-0.3,0-0.5,0.1c-0.2,0-0.3,0.1-0.4,0.1C100.2,326.4,99.3,326.4,98.1,326.3z"
			/>
		<path d="M115.8,312.6c0,0.3,0,0.6,0.1,1.1c0,0.5,0,0.9,0,1.1c0,0.3,0,0.7,0,1.1c0,0.4,0,0.8,0,1.1c0,0.3,0,0.7,0,1.1
			c0,0.4,0,0.8,0,1.1c0,0.3-0.1,0.7-0.1,1.1c0,0.4-0.1,0.8-0.2,1.1c-0.1,0.5-0.2,1.1-0.4,1.6c-0.2,0.5-0.4,1-0.7,1.5
			c-0.3,0.5-0.6,0.9-1,1.2c-0.4,0.3-0.8,0.5-1.4,0.6c-0.5,0.1-1.1,0.1-1.7-0.1c-0.6-0.2-1-0.4-1.4-0.8c-0.4-0.3-0.7-0.7-1-1.2
			c-0.2-0.5-0.4-0.9-0.6-1.4c-0.1-0.4-0.3-1-0.4-1.6c-0.5-2.7-0.7-5.5-0.7-8.3c0-0.1,0.1-1.6,0.2-4.6c0,0,0-0.2,0-0.3
			c0-0.2,0-0.3,0-0.4c0-0.1,0-0.2,0-0.3c0-0.2,0-0.3,0-0.4s0-0.2,0-0.3c0-0.2,0-0.3,0.1-0.4c0-0.1,0.1-0.2,0.1-0.3
			c0-0.1,0.1-0.2,0.1-0.3c0-0.1,0.1-0.2,0.1-0.3c0.3-0.6,0.8-1,1.3-1.3c0.6-0.3,1.1-0.4,1.8-0.3c0.2-0.2,0.5-0.3,0.8-0.2
			c0.3,0,0.6,0.1,0.8,0.2c0.3,0.1,0.5,0.3,0.8,0.6c0.3,0.3,0.5,0.5,0.7,0.7c0.2,0.2,0.4,0.4,0.5,0.7c0.7,0.9,1.1,1.9,1.4,3
			C115.6,309.8,115.8,311.1,115.8,312.6z M113.5,323.1c0.4-1.1,0.7-2.5,0.8-4.1c0.1-1.6,0.1-3,0-4.2c0-0.3,0-0.8,0-1.6
			c0-0.8,0-1.4-0.1-1.8c0-0.4-0.1-0.9-0.2-1.5c-0.1-0.6-0.3-1.2-0.4-1.6c-0.2-0.6-0.6-1.2-1.1-1.8c-0.1-0.2-0.3-0.3-0.5-0.5
			c-0.2,0.1-0.4,0-0.6-0.1c-0.1-0.1-0.3-0.2-0.4-0.2c-0.3,0.1-0.5,0.1-0.8-0.1c-0.4,0-0.7,0.1-0.9,0.3c-0.3,0.2-0.4,0.5-0.5,0.8
			c-0.1,0.3-0.1,0.6-0.2,1c0,0.4-0.1,0.6-0.1,0.9c0,0.2,0,0.6,0,1c0,0.4,0,0.7,0,0.9c-0.2,3.8-0.2,6.7,0.2,8.7
			c0.3,2,0.6,3.4,0.8,4.1c0.4,1.1,1.1,1.6,2.1,1.7C112.3,324.9,113,324.3,113.5,323.1z"/>
		<path d="M126.6,309c-0.4,3-0.7,4.8-0.8,5.6c-0.1,0.5-0.2,1.4-0.3,2.7c-0.1,1.3-0.2,2.3-0.3,3c-0.1,0.6-0.2,1.6-0.5,2.8
			c-0.2,1.2-0.4,2.1-0.5,2.7c-0.1,0.4-0.3,0.6-0.8,0.6c-0.4,0-0.7-0.2-0.8-0.6c-0.1-0.3-0.2-0.5-0.2-0.8c-0.1-0.3-0.1-0.6-0.2-0.8
			c0-0.3-0.1-0.5-0.1-0.8c0-0.3-0.1-0.6-0.1-0.8c0-0.3-0.1-0.5-0.1-0.8c0-0.3-0.1-0.6-0.1-0.8c-0.2-1.2-0.5-3-1-5.4
			c-0.2-0.8-0.3-1.8-0.5-2.8c-0.2-1-0.3-1.9-0.4-2.4c-0.1-0.6-0.2-1.6-0.4-3c-0.2-1.4-0.3-2.3-0.3-2.6c0-0.2,0.1-0.4,0.3-0.6
			c0.2-0.1,0.5-0.2,0.7-0.1c0.3,0.1,0.4,0.2,0.5,0.5c0.2,1.1,0.5,2.9,0.9,5.4c0.4,2.5,0.7,4.4,1,5.7c0.6,2.9,0.9,4.6,1,5.1l0.1-0.8
			c0.4-3.7,0.6-5.6,0.6-5.7c0.2-1.6,0.5-3.4,0.8-5.4c0.1-0.6,0.3-1.5,0.6-2.7c0.3-1.1,0.5-1.9,0.6-2.2c0.1-0.3,0.3-0.5,0.6-0.6
			c0.3-0.1,0.6,0,0.8,0.2c0.2,0.2,0.3,0.5,0.2,0.8c-0.1,0.3-0.2,0.7-0.3,1.2s-0.2,0.9-0.3,1.2c-0.1,0.4-0.2,0.7-0.3,1.2
			C126.8,308.2,126.7,308.6,126.6,309z"/>
		<path d="M132.2,326.7c-0.4,0-0.7-0.1-0.9-0.2s-0.4-0.3-0.5-0.6c-0.1-0.2-0.1-0.5-0.1-0.7c0-0.3,0-0.6,0-1c0-0.4,0-0.6,0-0.8v-3.7
			c0-3.2,0-5.9,0.1-7.9c0.1-2.7,0.1-4.8,0-6.5c-0.1-0.1-0.1-0.2-0.1-0.4c0-0.1,0-0.3,0-0.5c0-0.2,0.1-0.4,0.3-0.5
			c0.2-0.1,0.4-0.2,0.6-0.2c0,0,0.1,0,0.1,0c0.3,0,0.8,0,1.6,0c0.7,0,1.3,0,1.6,0c1-0.1,1.5,0.2,1.6,0.9c0,0.3-0.1,0.5-0.3,0.6
			c-0.2,0.2-0.5,0.2-0.7,0.2h-0.2h-0.1c0,0-0.1,0-0.2,0c-0.1,0-0.1,0-0.2,0c-0.1,0-0.2,0-0.3,0c-0.1,0-0.3,0-0.3,0
			c-0.4,0-1,0-1.8-0.1c0.2,1.6,0.2,3.6,0.2,5.9c0.2,0,0.4,0,0.7,0.1c0.3,0,0.5,0,0.7,0.1c0.2,0,0.4,0,0.7,0.1c0.3,0,0.5,0,0.7,0.1
			c0.3,0,0.6,0.2,0.7,0.5c0.1,0.3,0.1,0.6,0,0.9c-0.1,0.3-0.4,0.4-0.7,0.3c0,0-0.1,0-0.1,0c-0.1,0-0.1,0-0.1,0h0
			c-0.8-0.1-1.7-0.2-2.5-0.4c-0.1,2.6-0.1,4.2-0.1,4.9c0,3.1,0,5.4,0,7c0,0.1,0,0.3,0,0.5h0.3c0,0,1.1,0,3.2,0
			c0.2,0,0.4,0.1,0.5,0.2c0.1,0.1,0.2,0.3,0.3,0.4c0,0.2,0,0.3,0,0.5c0,0.2-0.1,0.3-0.3,0.4c-0.1,0.1-0.3,0.2-0.5,0.2
			c-0.3,0-1,0-1.8,0C133.2,326.7,132.6,326.7,132.2,326.7z"/>
	</g>
</g>
</svg>
